<?xml version="1.0" encoding="UTF-8" standalone="no"?>
<svg width="110px" height="110px" viewBox="0 0 110 110" version="1.1" xmlns="http://www.w3.org/2000/svg" xmlns:xlink="http://www.w3.org/1999/xlink">
    <!-- Generator: Sketch 41.2 (35397) - http://www.bohemiancoding.com/sketch -->
    <title>Artboard</title>
    <desc>Created with Sketch.</desc>
    <defs>
        <polygon id="path-1" points="0.0046 34 1.0046 34 1.0046 0.0101 0.0046 0.0101 0.0046 34"></polygon>
    </defs>
    <g id="Welcome" stroke="none" stroke-width="1" fill="none" fill-rule="evenodd">
        <g id="Artboard">
            <g id="Page-1" transform="translate(41.000000, 27.000000)">
                <g id="Group-18" transform="translate(2.000000, 2.551100)">
                    <path d="M13.0046,18.0101 C13.0046,18.0101 17.2876,15.5811 17.1886,9.4901 C17.0916,3.5961 12.7176,0.5241 12.7176,0.5241 C12.7176,0.5241 8.4456,3.7391 8.5436,9.6331 C8.6436,15.7231 13.0046,18.0101 13.0046,18.0101" id="Fill-1" fill="#F8CBCE"></path>
                    <path d="M12.8298,24.3304 C12.8298,24.3304 14.2928,19.6284 10.0538,15.2544 C5.9498,11.0224 0.6578,11.7734 0.6578,11.7734 C0.6578,11.7734 -0.2582,17.0404 3.8458,21.2724 C8.0848,25.6464 12.8298,24.3304 12.8298,24.3304" id="Fill-3" fill="#F8CBCE"></path>
                    <path d="M13.0075,35.1458 C13.0075,35.1458 14.4705,30.4438 10.2305,26.0698 C6.1275,21.8378 0.8355,22.5888 0.8355,22.5888 C0.8355,22.5888 -0.0805,27.8548 4.0235,32.0878 C8.2625,36.4618 13.0075,35.1458 13.0075,35.1458" id="Fill-5" fill="#F8CBCE"></path>
                    <path d="M13.1853,45.9613 C13.1853,45.9613 14.6483,41.2593 10.4083,36.8853 C6.3053,32.6523 1.0123,33.4043 1.0123,33.4043 C1.0123,33.4043 0.0973,38.6703 4.2003,42.9033 C8.4403,47.2773 13.1853,45.9613 13.1853,45.9613" id="Fill-7" fill="#F8CBCE"></path>
                    <path d="M13.3864,24.3216 C13.3864,24.3216 11.7704,19.6706 15.8644,15.1596 C19.8254,10.7946 25.1394,11.3716 25.1394,11.3716 C25.1394,11.3716 26.2284,16.6056 22.2664,20.9696 C18.1714,25.4806 13.3864,24.3216 13.3864,24.3216" id="Fill-9" fill="#F8CBCE"></path>
                    <path d="M13.5642,35.1366 C13.5642,35.1366 11.9482,30.4856 16.0422,25.9746 C20.0032,21.6096 25.3172,22.1866 25.3172,22.1866 C25.3172,22.1866 26.4062,27.4206 22.4442,31.7856 C18.3492,36.2966 13.5642,35.1366 13.5642,35.1366" id="Fill-11" fill="#F8CBCE"></path>
                    <path d="M13.7409,45.952 C13.7409,45.952 12.1249,41.301 16.2199,36.79 C20.1809,32.425 25.4949,33.002 25.4949,33.002 C25.4949,33.002 26.5829,38.236 22.6209,42.601 C18.5269,47.111 13.7409,45.952 13.7409,45.952" id="Fill-13" fill="#F8CBCE"></path>
                    <g id="Group-17" transform="translate(13.000000, 18.000000)">
                        <mask id="mask-2" fill="white">
                            <use xlink:href="#path-1"></use>
                        </mask>
                        <g id="Clip-16"></g>
                        <path d="M0.0046,0.0101 L0.5626,34.0001" id="Fill-15" fill="#F8CBCE" mask="url(#mask-2)"></path>
                    </g>
                </g>
                <g id="Group-35" transform="translate(0.000000, 0.551100)" stroke="#E94D59" stroke-width="1.2">
                    <path d="M13.0339,17.6766 C13.0339,17.6766 17.3179,15.2486 17.2179,9.1576 C17.1209,3.2636 12.7469,0.1906 12.7469,0.1906 C12.7469,0.1906 8.4759,3.4056 8.5729,9.2996 C8.6729,15.3896 13.0339,17.6766 13.0339,17.6766 Z" id="Stroke-19"></path>
                    <path d="M12.8601,23.9974 C12.8601,23.9974 14.3231,19.2954 10.0831,14.9214 C5.9791,10.6884 0.6871,11.4404 0.6871,11.4404 C0.6871,11.4404 -0.2289,16.7064 3.8751,20.9394 C8.1151,25.3134 12.8601,23.9974 12.8601,23.9974 Z" id="Stroke-21"></path>
                    <path d="M13.0378,34.8123 C13.0378,34.8123 14.4998,30.1103 10.2608,25.7363 C6.1568,21.5043 0.8648,22.2553 0.8648,22.2553 C0.8648,22.2553 -0.0512,27.5223 4.0528,31.7543 C8.2928,36.1283 13.0378,34.8123 13.0378,34.8123 Z" id="Stroke-23"></path>
                    <path d="M13.2155,45.6278 C13.2155,45.6278 14.6775,40.9258 10.4385,36.5518 C6.3345,32.3198 1.0425,33.0708 1.0425,33.0708 C1.0425,33.0708 0.1265,38.3368 4.2305,42.5698 C8.4695,46.9438 13.2155,45.6278 13.2155,45.6278 Z" id="Stroke-25"></path>
                    <path d="M13.4157,23.9881 C13.4157,23.9881 11.7997,19.3371 15.8937,14.8261 C19.8547,10.4611 25.1697,11.0381 25.1697,11.0381 C25.1697,11.0381 26.2577,16.2721 22.2957,20.6371 C18.2017,25.1481 13.4157,23.9881 13.4157,23.9881 Z" id="Stroke-27"></path>
                    <path d="M13.5935,34.8035 C13.5935,34.8035 11.9775,30.1525 16.0715,25.6415 C20.0325,21.2765 25.3475,21.8535 25.3475,21.8535 C25.3475,21.8535 26.4355,27.0875 22.4735,31.4515 C18.3795,35.9625 13.5935,34.8035 13.5935,34.8035 Z" id="Stroke-29"></path>
                    <path d="M13.7712,45.6185 C13.7712,45.6185 12.1552,40.9675 16.2492,36.4565 C20.2102,32.0915 25.5252,32.6685 25.5252,32.6685 C25.5252,32.6685 26.6132,37.9025 22.6512,42.2675 C18.5572,46.7785 13.7712,45.6185 13.7712,45.6185 Z" id="Stroke-31"></path>
                    <path d="M13.0339,17.6766 L13.5929,51.6666" id="Stroke-33"></path>
                </g>
            </g>
        </g>
    </g>
</svg>