<?xml version="1.0" encoding="UTF-8" standalone="no"?>
<svg width="110px" height="110px" viewBox="0 0 110 110" version="1.1" xmlns="http://www.w3.org/2000/svg" xmlns:xlink="http://www.w3.org/1999/xlink">
    <!-- Generator: Sketch 41.2 (35397) - http://www.bohemiancoding.com/sketch -->
    <title>Artboard Copy</title>
    <desc>Created with Sketch.</desc>
    <defs>
        <polygon id="path-1" points="0.6004 46 53.841 46 53.841 0.9543 0.6004 0.9543 0.6004 46"></polygon>
        <polygon id="path-3" points="0 49 55.841 49 55.841 0.963 0 0.963"></polygon>
    </defs>
    <g id="Welcome" stroke="none" stroke-width="1" fill="none" fill-rule="evenodd">
        <g id="Artboard-Copy">
            <g id="Page-1" transform="translate(27.000000, 30.000000)">
                <g id="Group-3" transform="translate(2.000000, 3.037200)">
                    <mask id="mask-2" fill="white">
                        <use xlink:href="#path-1"></use>
                    </mask>
                    <g id="Clip-2"></g>
                    <path d="M47.2214,0.9543 L7.2194,0.9543 C3.5644,0.9543 0.6004,3.9183 0.6004,7.5743 C0.6004,11.2293 3.5644,14.1933 7.2194,14.1933 C10.3854,14.1933 13.0244,11.9683 13.6774,8.9983 L13.8394,8.9983 L13.8394,14.1933 L13.8394,19.9183 L13.0604,19.9183 C12.0614,19.9183 11.2514,20.7273 11.2514,21.7263 C11.2514,22.7253 12.0614,23.5353 13.0604,23.5353 L13.8394,23.5353 L13.8394,46.0003 L17.2904,46.0003 L22.0104,46.0003 L25.0234,46.0003 L29.7424,46.0003 L32.7544,46.0003 L37.4744,46.0003 L40.6024,46.0003 L40.6024,23.5353 L41.3804,23.5353 C42.3794,23.5353 43.1904,22.7253 43.1904,21.7263 C43.1904,20.7273 42.3794,19.9183 41.3804,19.9183 L40.6024,19.9183 L40.6024,14.1933 L40.6024,8.9983 L40.7644,8.9983 C41.4174,11.9683 44.0564,14.1933 47.2214,14.1933 C50.8774,14.1933 53.8414,11.2293 53.8414,7.5743 C53.8414,3.9183 50.8774,0.9543 47.2214,0.9543" id="Fill-1" fill="#F8CBCE" mask="url(#mask-2)"></path>
                </g>
                <g id="Group-27" transform="translate(0.000000, 0.037200)">
                    <path d="M10.4812,8.1823 C10.4812,6.3813 9.0212,4.9203 7.2192,4.9203 C5.4192,4.9203 3.9582,6.3813 3.9582,8.1823 C3.9582,9.9843 5.4192,11.4443 7.2192,11.4443 C9.0212,11.4443 10.4812,9.9843 10.4812,8.1823 Z" id="Stroke-4" stroke="#E94D59" stroke-width="1.2"></path>
                    <path d="M50.4841,8.1823 C50.4841,6.3813 49.0231,4.9203 47.2211,4.9203 C45.4211,4.9203 43.9601,6.3813 43.9601,8.1823 C43.9601,9.9843 45.4211,11.4443 47.2211,11.4443 C49.0231,11.4443 50.4841,9.9843 50.4841,8.1823 Z" id="Stroke-6" stroke="#E94D59" stroke-width="1.2"></path>
                    <path d="M13.8396,8.1823 C13.8396,11.8383 10.8756,14.8023 7.2196,14.8023 C3.5646,14.8023 0.6006,11.8383 0.6006,8.1823 C0.6006,4.5263 3.5646,1.5623 7.2196,1.5623 L47.2216,1.5623 C50.8776,1.5623 53.8416,4.5263 53.8416,8.1823 C53.8416,11.8383 50.8776,14.8023 47.2216,14.8023 C43.5666,14.8023 40.6026,11.8383 40.6026,8.1823" id="Stroke-8" stroke="#E94D59" stroke-width="1.2"></path>
                    <mask id="mask-4" fill="white">
                        <use xlink:href="#path-3"></use>
                    </mask>
                    <g id="Clip-11"></g>
                    <polygon id="Stroke-10" stroke="#E94D59" stroke-width="1.2" mask="url(#mask-4)" points="13.839 14.802 40.602 14.802 40.602 8.182 13.839 8.182"></polygon>
                    <polygon id="Stroke-12" stroke="#E94D59" stroke-width="1.2" mask="url(#mask-4)" points="13.839 20.527 40.602 20.527 40.602 14.803 13.839 14.803"></polygon>
                    <path d="M41.3816,20.5266 L13.0606,20.5266 C12.0616,20.5266 11.2516,21.3366 11.2516,22.3356 C11.2516,23.3346 12.0616,24.1436 13.0606,24.1436 L41.3816,24.1436 C42.3796,24.1436 43.1906,23.3346 43.1906,22.3356 C43.1906,21.3366 42.3796,20.5266 41.3816,20.5266 Z" id="Stroke-13" stroke="#E94D59" stroke-width="1.2" mask="url(#mask-4)"></path>
                    <polygon id="Stroke-14" stroke="#E94D59" stroke-width="1.2" mask="url(#mask-4)" points="13.839 46.609 40.602 46.609 40.602 24.144 13.839 24.144"></polygon>
                    <path d="M27.3825,28.9606 C26.0795,28.9606 25.0235,29.9686 25.0235,31.2116 L25.0235,46.6086 L29.7425,46.6086 L29.7425,31.2116 C29.7425,29.9686 28.6865,28.9606 27.3825,28.9606 Z" id="Stroke-15" stroke="#E94D59" stroke-width="1.2" mask="url(#mask-4)"></path>
                    <path d="M19.6511,28.9606 C18.3471,28.9606 17.2911,29.9686 17.2911,31.2116 L17.2911,46.6086 L22.0101,46.6086 L22.0101,31.2116 C22.0101,29.9686 20.9541,28.9606 19.6511,28.9606 Z" id="Stroke-16" stroke="#E94D59" stroke-width="1.2" mask="url(#mask-4)"></path>
                    <path d="M35.114,28.9606 C33.811,28.9606 32.755,29.9686 32.755,31.2116 L32.755,46.6086 L37.474,46.6086 L37.474,31.2116 C37.474,29.9686 36.418,28.9606 35.114,28.9606 Z" id="Stroke-17" stroke="#E94D59" stroke-width="1.2" mask="url(#mask-4)"></path>
                    <path d="M17.6628,14.8019 L17.6628,20.5269" id="Stroke-18" stroke="#E94D59" stroke-width="1.2" mask="url(#mask-4)"></path>
                    <path d="M36.779,14.8019 L36.779,20.5269" id="Stroke-19" stroke="#E94D59" stroke-width="1.2" mask="url(#mask-4)"></path>
                    <path d="M32.9558,14.8019 L32.9558,20.5269" id="Stroke-20" stroke="#E94D59" stroke-width="1.2" mask="url(#mask-4)"></path>
                    <path d="M21.4861,14.8019 L21.4861,20.5269" id="Stroke-21" stroke="#E94D59" stroke-width="1.2" mask="url(#mask-4)"></path>
                    <path d="M25.3093,14.8019 L25.3093,20.5269" id="Stroke-22" stroke="#E94D59" stroke-width="1.2" mask="url(#mask-4)"></path>
                    <path d="M29.1325,14.8019 L29.1325,20.5269" id="Stroke-23" stroke="#E94D59" stroke-width="1.2" mask="url(#mask-4)"></path>
                    <path d="M20.9616,11.2116 C20.9616,12.6466 20.3746,13.8096 19.6506,13.8096 C18.9266,13.8096 18.3396,12.6466 18.3396,11.2116 C18.3396,9.7766 18.9266,8.6136 19.6506,8.6136 C20.3746,8.6136 20.9616,9.7766 20.9616,11.2116 Z" id="Stroke-24" stroke="#E94D59" stroke-width="1.2" mask="url(#mask-4)"></path>
                    <path d="M28.6941,11.2116 C28.6941,12.6466 28.1071,13.8096 27.3821,13.8096 C26.6591,13.8096 26.0721,12.6466 26.0721,11.2116 C26.0721,9.7766 26.6591,8.6136 27.3821,8.6136 C28.1071,8.6136 28.6941,9.7766 28.6941,11.2116 Z" id="Stroke-25" stroke="#E94D59" stroke-width="1.2" mask="url(#mask-4)"></path>
                    <path d="M36.4255,11.2116 C36.4255,12.6466 35.8385,13.8096 35.1135,13.8096 C34.3905,13.8096 33.8035,12.6466 33.8035,11.2116 C33.8035,9.7766 34.3905,8.6136 35.1135,8.6136 C35.8385,8.6136 36.4255,9.7766 36.4255,11.2116 Z" id="Stroke-26" stroke="#E94D59" stroke-width="1.2" mask="url(#mask-4)"></path>
                </g>
            </g>
        </g>
    </g>
</svg>