<?xml version="1.0" encoding="UTF-8" standalone="no"?>
<svg width="110px" height="110px" viewBox="0 0 110 110" version="1.1" xmlns="http://www.w3.org/2000/svg" xmlns:xlink="http://www.w3.org/1999/xlink">
    <!-- Generator: Sketch 41.2 (35397) - http://www.bohemiancoding.com/sketch -->
    <title>Artboard Copy 4</title>
    <desc>Created with Sketch.</desc>
    <defs></defs>
    <g id="Welcome" stroke="none" stroke-width="1" fill="none" fill-rule="evenodd">
        <g id="Artboard-Copy-4">
            <g id="Page-1" transform="translate(29.000000, 30.000000)">
                <path d="M19.5827,44.5745 C20.8077,45.7995 22.7997,45.7925 24.0317,44.5605 C22.7997,45.7925 22.7927,47.7845 24.0177,49.0095 C25.2417,50.2335 27.2337,50.2265 28.4667,48.9945 L32.4487,45.0115 C33.3747,44.0855 33.6077,42.7305 33.1457,41.5945 C34.3877,42.7365 36.3207,42.7095 37.5327,41.4975 C38.7747,40.2545 38.7817,38.2465 37.5477,37.0115 C38.7817,38.2465 40.7907,38.2395 42.0327,36.9965 C43.2757,35.7545 43.2827,33.7455 42.0477,32.5105 C43.2827,33.7455 45.2917,33.7395 46.5337,32.4955 C47.3307,31.6995 47.6127,30.5895 47.3927,29.5685 L47.3987,29.5745 L47.7567,29.2175 C53.2837,23.6905 53.3117,14.7585 47.8207,9.2665 C42.3297,3.7755 33.3967,3.8045 27.8707,9.3315 L27.8687,9.3325 L27.8697,9.3315 L26.7647,8.2245 C21.2717,2.7335 12.3407,2.7625 6.8127,8.2895 C1.2857,13.8165 1.2577,22.7495 6.7487,28.2405 L7.8547,29.3465 L10.3007,31.7925 L10.3027,31.7945 C9.5207,33.0135 9.6547,34.6465 10.7147,35.7065 C11.7737,36.7655 13.4067,36.8995 14.6267,36.1185 L14.7357,36.2285 C13.9557,37.4485 14.0897,39.0805 15.1487,40.1405 C16.3737,41.3655 18.3647,41.3585 19.5977,40.1265 C18.3647,41.3585 18.3587,43.3505 19.5827,44.5745" id="Fill-1" fill="#F8CBCE"></path>
                <path d="M40.528,30.4945 L30.388,20.3545" id="Stroke-3" stroke="#E94D59" stroke-width="1.2"></path>
                <path d="M35.9303,34.9334 L25.8693,24.8734" id="Stroke-4" stroke="#E94D59" stroke-width="1.2"></path>
                <g id="Group-17" transform="translate(0.000000, 0.923200)" stroke="#E94D59" stroke-width="1.2">
                    <path d="M8.3336,28.4619 L4.7526,24.8809 C-0.7844,19.3439 -0.7844,10.3669 4.7526,4.8299 C10.2896,-0.7071 19.2676,-0.7071 24.8046,4.8299 L25.9196,5.9449" id="Stroke-5"></path>
                    <path d="M45.6129,26.3549 L45.9709,25.9969 C51.5079,20.4589 51.5079,11.4819 45.9709,5.9449 C40.4339,0.4079 31.4569,0.4079 25.9199,5.9449 L15.6129,16.2519 L15.5699,16.2949 C17.8959,18.6209 21.6689,18.6209 23.9949,16.2949 C23.9949,16.2949 30.1329,10.1579 30.1319,10.1569 L32.8419,12.8669 L44.7539,24.7789 C45.9989,26.0239 45.9989,28.0419 44.7539,29.2879 C43.5089,30.5329 41.4899,30.5329 40.2449,29.2879 C41.4899,30.5329 41.4889,32.5509 40.2449,33.7959 C38.9999,35.0419 36.9799,35.0419 35.7349,33.7959 C36.9799,35.0419 36.9799,37.0599 35.7349,38.3049 C34.4899,39.5499 32.4709,39.5499 31.2259,38.3049" id="Stroke-7"></path>
                    <path d="M26.6481,45.8105 L30.6371,41.8205 C31.8721,40.5865 31.8721,38.5845 30.6371,37.3495 C29.4031,36.1155 27.4011,36.1155 26.1671,37.3495 L22.1761,41.3395 C20.9421,42.5745 20.9421,44.5765 22.1761,45.8105 C23.4111,47.0455 25.4131,47.0455 26.6481,45.8105 Z" id="Stroke-9"></path>
                    <path d="M22.1764,41.3393 L26.1664,37.3493 C27.4014,36.1153 27.4014,34.1133 26.1654,32.8793 C24.9314,31.6443 22.9294,31.6443 21.6954,32.8793 L17.7054,36.8683 C16.4704,38.1033 16.4704,40.1053 17.7054,41.3393 C18.9404,42.5743 20.9424,42.5743 22.1764,41.3393 Z" id="Stroke-11"></path>
                    <path d="M17.7057,36.8681 L21.6947,32.8791 C22.9297,31.6441 22.9297,29.6421 21.6947,28.4081 C20.4607,27.1731 18.4587,27.1731 17.2247,28.4081 L13.2337,32.3971 C11.9997,33.6321 11.9997,35.6341 13.2337,36.8681 C14.4697,38.1031 16.4707,38.1031 17.7057,36.8681 Z" id="Stroke-13"></path>
                    <path d="M13.234,32.3969 L17.224,28.4079 C18.459,27.1729 18.459,25.1709 17.224,23.9369 C15.989,22.7019 13.987,22.7019 12.753,23.9369 L8.763,27.9259 C7.528,29.1609 7.528,31.1629 8.763,32.3969 C9.998,33.6319 12,33.6319 13.234,32.3969 Z" id="Stroke-15"></path>
                </g>
            </g>
        </g>
    </g>
</svg>