<?xml version="1.0" encoding="UTF-8" standalone="no"?>
<svg width="110px" height="110px" viewBox="0 0 110 110" version="1.1" xmlns="http://www.w3.org/2000/svg" xmlns:xlink="http://www.w3.org/1999/xlink">
    <!-- Generator: Sketch 41.2 (35397) - http://www.bohemiancoding.com/sketch -->
    <title>Artboard Copy 2</title>
    <desc>Created with Sketch.</desc>
    <defs></defs>
    <g id="Welcome" stroke="none" stroke-width="1" fill="none" fill-rule="evenodd">
        <g id="Artboard-Copy-2">
            <g id="Page-1" transform="translate(36.000000, 31.000000)">
                <g id="Group-3" transform="translate(2.000000, 3.398600)" fill="#F8CBCE">
                    <path d="M17.6883,44.9999 C36.1903,35.2499 34.7503,28.7139 34.7503,28.7139 L34.7503,7.4419 C21.2333,7.4419 17.6883,0.3509 17.6883,0.3509 C17.6883,0.3509 14.1423,7.4419 0.6263,7.4419 L0.6263,28.7139 C0.6263,28.7139 -0.8147,35.2499 17.6883,44.9999" id="Fill-1"></path>
                </g>
                <g id="Group-10" transform="translate(0.000000, 0.398600)" stroke="#E94D59" stroke-width="1.2">
                    <path d="M17.6883,45.5922 C36.1903,35.8422 34.7503,29.3052 34.7503,29.3052 L34.7503,8.0332 C21.2333,8.0332 17.6883,0.9432 17.6883,0.9432 C17.6883,0.9432 14.1423,8.0332 0.6263,8.0332 L0.6263,29.3052 C0.6263,29.3052 -0.8147,35.8422 17.6883,45.5922 Z" id="Stroke-4"></path>
                    <path d="M0.6004,15.4032 L25.8834,40.6872" id="Stroke-6"></path>
                    <path d="M7.1248,7.3993 L33.1478,33.4223" id="Stroke-8"></path>
                </g>
            </g>
        </g>
    </g>
</svg>