<?xml version="1.0" encoding="UTF-8" standalone="no"?>
<svg width="110px" height="110px" viewBox="0 0 110 110" version="1.1" xmlns="http://www.w3.org/2000/svg" xmlns:xlink="http://www.w3.org/1999/xlink">
    <!-- Generator: Sketch 41.2 (35397) - http://www.bohemiancoding.com/sketch -->
    <title>Artboard Copy 3</title>
    <desc>Created with Sketch.</desc>
    <defs>
        <polygon id="path-1" points="0.5992 51 29.505 51 29.505 0.9423 0.5992 0.9423 0.5992 51"></polygon>
    </defs>
    <g id="Welcome" stroke="none" stroke-width="1" fill="none" fill-rule="evenodd">
        <g id="Artboard-Copy-3">
            <g id="Page-1" transform="translate(39.000000, 28.000000)">
                <g id="Group-12" transform="translate(2.000000, 2.990400)">
                    <g id="Group-3">
                        <mask id="mask-2" fill="white">
                            <use xlink:href="#path-1"></use>
                        </mask>
                        <g id="Clip-2"></g>
                        <path d="M26.6142,16.3143 C25.0172,16.3143 23.7232,17.6083 23.7232,19.2053 L23.7232,7.7233 C23.7232,6.1263 22.4292,4.8323 20.8332,4.8323 C19.2372,4.8323 17.9432,6.1263 17.9432,7.7233 L17.9432,3.8333 C17.9432,2.2373 16.6482,0.9423 15.0522,0.9423 C13.4562,0.9423 12.1622,2.2373 12.1622,3.8333 L12.1622,7.3483 C12.1622,5.7513 10.8682,4.4583 9.2712,4.4583 C7.6752,4.4583 6.3812,5.7513 6.3812,7.3483 L6.3812,14.2523 C6.3812,12.6563 5.0872,11.3613 3.4902,11.3613 C1.8942,11.3613 0.5992,12.6563 0.5992,14.2523 L0.5992,36.5473 C0.5992,44.5293 7.0702,51.0003 15.0522,51.0003 C23.0342,51.0003 29.5052,44.5293 29.5052,36.5473 L29.5052,19.2053 C29.5052,17.6083 28.2112,16.3143 26.6142,16.3143" id="Fill-1" fill="#F8CBCE" mask="url(#mask-2)"></path>
                    </g>
                    <path d="M6.3808,13.4872 L6.3808,26.6402" id="Fill-4" fill="#F8CBCE"></path>
                    <polyline id="Fill-6" fill="#F8CBCE" points="12.1621 6.7079 12.1621 13.1689 12.1621 26.6409"></polyline>
                    <path d="M17.9433,6.7079 L17.9433,26.6409" id="Fill-8" fill="#F8CBCE"></path>
                    <path d="M23.7236,18.0038 L23.7236,26.6408" id="Fill-10" fill="#F8CBCE"></path>
                </g>
                <g id="Group-23" transform="translate(0.000000, 0.990400)" stroke="#E94D59" stroke-width="1.2">
                    <path d="M26.6142,15.9808 C25.0172,15.9808 23.7232,17.2748 23.7232,18.8718 L23.7232,7.3898 C23.7232,5.7928 22.4292,4.4998 20.8332,4.4998 C19.2372,4.4998 17.9432,5.7928 17.9432,7.3898 L17.9432,3.4998 C17.9432,1.9038 16.6482,0.6098 15.0522,0.6098 C13.4562,0.6098 12.1622,1.9038 12.1622,3.4998 L12.1622,7.0148 C12.1622,5.4178 10.8682,4.1248 9.2712,4.1248 C7.6752,4.1248 6.3812,5.4178 6.3812,7.0148 L6.3812,13.9188 C6.3812,12.3228 5.0872,11.0278 3.4902,11.0278 C1.8942,11.0278 0.5992,12.3228 0.5992,13.9188 L0.5992,36.2138 C0.5992,44.1958 7.0702,50.6668 15.0522,50.6668 C23.0342,50.6668 29.5052,44.1958 29.5052,36.2138 L29.5052,18.8718 C29.5052,17.2748 28.2112,15.9808 26.6142,15.9808 Z" id="Stroke-13"></path>
                    <path d="M6.3808,13.1542 L6.3808,26.3072" id="Stroke-15"></path>
                    <polyline id="Stroke-17" points="12.1621 6.3744 12.1621 12.8354 12.1621 26.3074"></polyline>
                    <path d="M17.9433,6.3744 L17.9433,26.3074" id="Stroke-19"></path>
                    <path d="M23.7236,17.6703 L23.7236,26.3073" id="Stroke-21"></path>
                </g>
            </g>
        </g>
    </g>
</svg>