<?xml version="1.0" encoding="UTF-8" standalone="no"?>
<svg width="110px" height="110px" viewBox="0 0 110 110" version="1.1" xmlns="http://www.w3.org/2000/svg" xmlns:xlink="http://www.w3.org/1999/xlink">
    <!-- Generator: Sketch 41.2 (35397) - http://www.bohemiancoding.com/sketch -->
    <title>Artboard Copy 5</title>
    <desc>Created with Sketch.</desc>
    <defs>
        <polygon id="path-1" points="0.6331 20 12.161 20 12.161 0.3175 0.6331 0.3175 0.6331 20"></polygon>
        <polygon id="path-3" points="0 37 69.161 37 69.161 0.853 0 0.853"></polygon>
    </defs>
    <g id="Welcome" stroke="none" stroke-width="1" fill="none" fill-rule="evenodd">
        <g id="Artboard-Copy-5">
            <g id="Page-1" transform="translate(20.000000, 36.000000)">
                <g id="Group-6" transform="translate(0.000000, 0.147000)">
                    <g id="Group-3" transform="translate(57.000000, 17.000000)">
                        <mask id="mask-2" fill="white">
                            <use xlink:href="#path-1"></use>
                        </mask>
                        <g id="Clip-2"></g>
                        <path d="M6.3971,0.3175 C3.2131,0.3175 0.6331,1.6715 0.6331,3.3435 L0.6331,16.9745 C0.6331,18.6455 3.2131,20.0005 6.3971,20.0005 C9.5801,20.0005 12.1611,18.6455 12.1611,16.9745 L12.1611,3.3435 C12.1611,1.6715 9.5801,0.3175 6.3971,0.3175" id="Fill-1" fill="#F8CBCE" mask="url(#mask-2)"></path>
                    </g>
                    <mask id="mask-4" fill="white">
                        <use xlink:href="#path-3"></use>
                    </mask>
                    <g id="Clip-5"></g>
                    <polygon id="Fill-4" fill="#F8CBCE" mask="url(#mask-4)" points="2.5 30.877 61.996 30.877 61.996 3.758 2.5 3.758"></polygon>
                </g>
                <g id="Group-21" transform="translate(0.000000, 1.147000)" stroke="#E94D59">
                    <path d="M67.1608,17.0099 L67.1608,30.6409 C67.1608,32.3119 64.5798,33.6669 61.3968,33.6669 C58.2138,33.6669 55.6338,32.3119 55.6338,30.6409 L55.6338,17.0099" id="Stroke-7"></path>
                    <polyline id="Stroke-9" points="55.6335 27.4713 0.4995 27.4713 0.4995 0.3533 59.9955 0.3533 59.9955 13.9123"></polyline>
                    <path d="M67.1608,17.0099 C67.1608,18.6809 64.5798,20.0359 61.3968,20.0359 C58.2138,20.0359 55.6338,18.6809 55.6338,17.0099 C55.6338,15.3389 58.2138,13.9839 61.3968,13.9839 C64.5798,13.9839 67.1608,15.3389 67.1608,17.0099 Z" id="Stroke-11"></path>
                    <path d="M67.1608,27.233 C67.1608,28.904 64.5798,30.259 61.3968,30.259 C58.2138,30.259 55.6338,28.904 55.6338,27.233" id="Stroke-13"></path>
                    <path d="M67.1608,20.4176 C67.1608,22.0886 64.5798,23.4436 61.3968,23.4436 C58.2138,23.4436 55.6338,22.0886 55.6338,20.4176" id="Stroke-15"></path>
                    <path d="M67.1608,23.8253 C67.1608,25.4963 64.5798,26.8513 61.3968,26.8513 C58.2138,26.8513 55.6338,25.4963 55.6338,23.8253" id="Stroke-17"></path>
                    <path d="M38.1842,13.9122 C38.1842,9.5292 34.6312,5.9752 30.2472,5.9752 C25.8652,5.9752 22.3112,9.5292 22.3112,13.9122 C22.3112,18.2952 25.8652,21.8492 30.2472,21.8492 C34.6312,21.8492 38.1842,18.2952 38.1842,13.9122 Z" id="Stroke-19"></path>
                </g>
                <text id="$" font-family="Dosis-Bold, Dosis" font-size="11.0234" font-weight="bold" fill="#E94D59">
                    <tspan x="27.3564" y="17.9059072">$</tspan>
                </text>
            </g>
        </g>
    </g>
</svg>