<?xml version="1.0" encoding="UTF-8" standalone="no"?>
<svg width="110px" height="110px" viewBox="0 0 110 110" version="1.1" xmlns="http://www.w3.org/2000/svg" xmlns:xlink="http://www.w3.org/1999/xlink">
    <!-- Generator: Sketch 41.2 (35397) - http://www.bohemiancoding.com/sketch -->
    <title>Artboard Copy 6</title>
    <desc>Created with Sketch.</desc>
    <defs></defs>
    <g id="Welcome" stroke="none" stroke-width="1" fill="none" fill-rule="evenodd">
        <g id="Artboard-Copy-6">
            <g id="Page-1" transform="translate(24.000000, 33.000000)">
                <polygon id="Fill-1" fill="#F8CBCE" points="43.911 5.0819 53.784 43.3099 61.347 41.3569 51.474 3.1279"></polygon>
                <polygon id="Fill-2" fill="#F8CBCE" points="14.1309 3.0002 2.4969 3.0002 2.4969 42.4832 14.1309 42.4832 25.7629 42.4832 37.8739 42.4832 45.7019 42.4832 45.7019 12.3052 37.8739 12.3052 37.8739 9.1102 25.7629 9.1102 25.7629 3.0002"></polygon>
                <g id="Group-7" transform="translate(0.000000, 0.310300)" stroke-width="1.2" stroke="#E94D59">
                    <polygon id="Stroke-3" points="0.599 39.775 12.233 39.775 12.233 0.292 0.599 0.292"></polygon>
                    <polygon id="Stroke-5" points="12.233 39.775 23.867 39.775 23.867 0.292 12.233 0.292"></polygon>
                    <polygon id="Stroke-6" points="59.4491 38.6492 51.8871 40.6022 42.0141 2.3742 49.5771 0.4202"></polygon>
                </g>
                <polygon id="Stroke-8" stroke="#E94D59" stroke-width="1.2" points="23.867 40.0853 35.977 40.0853 35.977 6.7123 23.867 6.7123"></polygon>
                <polygon id="Stroke-9" stroke="#E94D59" stroke-width="1.2" points="35.978 40.0853 43.806 40.0853 43.806 9.9073 35.978 9.9073"></polygon>
                <g id="Group-14" transform="translate(0.000000, 7.310300)" stroke="#E94D59" stroke-width="1.2">
                    <path d="M0.5995,0.5486 L12.2335,0.5486" id="Stroke-10"></path>
                    <path d="M0.5995,3.4304 L12.2335,3.4304" id="Stroke-12"></path>
                </g>
                <path d="M12.2333,7.8589 L23.8673,7.8589" id="Stroke-15" stroke="#E94D59" stroke-width="1.2"></path>
                <path d="M12.2333,10.7407 L23.8673,10.7407" id="Stroke-16" stroke="#E94D59" stroke-width="1.2"></path>
                <path d="M24.1054,13.6225 L35.7384,13.6225" id="Stroke-17" stroke="#E94D59" stroke-width="1.2"></path>
                <path d="M12.2333,13.6225 L23.8673,13.6225" id="Stroke-18" stroke="#E94D59" stroke-width="1.2"></path>
                <g id="Group-31" transform="translate(27.000000, 17.310300)" stroke="#E94D59" stroke-width="1.2">
                    <path d="M5.7988,15.7644 C5.7988,14.1754 4.5108,12.8874 2.9218,12.8874 C1.3338,12.8874 0.0458,14.1754 0.0458,15.7644 C0.0458,17.3524 1.3338,18.6404 2.9218,18.6404 C4.5108,18.6404 5.7988,17.3524 5.7988,15.7644 Z" id="Stroke-19"></path>
                    <path d="M8.9775,18.6404 L16.8055,18.6404" id="Stroke-21"></path>
                    <path d="M8.9775,15.7644 L16.8055,15.7644" id="Stroke-23"></path>
                    <path d="M21.0292,8.6628 L28.5912,6.7098" id="Stroke-25"></path>
                    <path d="M20.2802,5.7624 L27.8422,3.8094" id="Stroke-27"></path>
                    <path d="M19.5312,2.863 L27.0932,0.91" id="Stroke-29"></path>
                </g>
            </g>
        </g>
    </g>
</svg>