<?xml version="1.0" encoding="UTF-8" standalone="no"?>
<svg width="110px" height="110px" viewBox="0 0 110 110" version="1.1" xmlns="http://www.w3.org/2000/svg" xmlns:xlink="http://www.w3.org/1999/xlink">
    <!-- Generator: Sketch 41.2 (35397) - http://www.bohemiancoding.com/sketch -->
    <title>Artboard Copy 7</title>
    <desc>Created with Sketch.</desc>
    <defs>
        <polygon id="path-1" points="1.357 0.442 0.357 0.442 0.357 9.7529 1.357 9.7529 1.357 0.442"></polygon>
        <polygon id="path-3" points="0 0.7984 0 1.7984 9.2966 1.7984 9.2966 0.7984 0 0.7984"></polygon>
    </defs>
    <g id="Welcome" stroke="none" stroke-width="1" fill="none" fill-rule="evenodd">
        <g id="Artboard-Copy-7">
            <g id="Page-1" transform="translate(27.000000, 25.000000)">
                <path d="M29.357,15.1634 C21.403,15.1634 14.956,21.6114 14.956,29.5644 C14.956,35.3534 18.379,40.3314 23.305,42.6194 L23.305,45.2394 L23.305,47.2154 L23.305,55.7394 C23.305,57.2964 26.014,58.5584 29.357,58.5584 C32.699,58.5584 35.409,57.2964 35.409,55.7394 L35.409,47.2154 L35.409,45.2394 L35.409,42.6194 C40.335,40.3314 43.758,35.3534 43.758,29.5644 C43.758,21.6114 37.31,15.1634 29.357,15.1634" id="Fill-1" fill="#F8CBCE"></path>
                <g id="Group-45" transform="translate(0.000000, 0.558400)">
                    <path d="M33.4088,44.3238 L33.4088,39.7278 C38.3348,37.4398 41.7588,32.4628 41.7588,26.6738 C41.7588,18.7188 35.3098,12.2718 27.3568,12.2718 C19.4028,12.2718 12.9558,18.7188 12.9558,26.6738 C12.9558,32.4628 16.3798,37.4398 21.3048,39.7278 L21.3048,44.3238" id="Stroke-3" stroke="#E94D59" stroke-width="1.2"></path>
                    <path d="M33.4088,44.3238 C33.4088,45.8808 30.6988,47.1418 27.3568,47.1418 C24.0138,47.1418 21.3048,45.8808 21.3048,44.3238 C21.3048,42.7658 24.0138,41.5048 27.3568,41.5048 C30.6988,41.5048 33.4088,42.7658 33.4088,44.3238 Z" id="Stroke-5" stroke="#E94D59" stroke-width="1.2"></path>
                    <path d="M33.4088,47.1646 C33.4088,48.7216 30.6988,49.9836 27.3568,49.9836 C24.0138,49.9836 21.3048,48.7216 21.3048,47.1646" id="Stroke-7" stroke="#E94D59" stroke-width="1.2"></path>
                    <path d="M33.4088,50.0064 C33.4088,51.5634 30.6988,52.8254 27.3568,52.8254 C24.0138,52.8254 21.3048,51.5634 21.3048,50.0064" id="Stroke-9" stroke="#E94D59" stroke-width="1.2"></path>
                    <path d="M33.4088,52.8472 C33.4088,54.4052 30.6988,55.6662 27.3568,55.6662 C24.0138,55.6662 21.3048,54.4052 21.3048,52.8472" id="Stroke-11" stroke="#E94D59" stroke-width="1.2"></path>
                    <path d="M21.3052,44.3238 L21.3052,52.8468" id="Stroke-13" stroke="#E94D59" stroke-width="1.2"></path>
                    <path d="M33.4088,44.3238 L33.4088,52.8468" id="Stroke-15" stroke="#E94D59" stroke-width="1.2"></path>
                    <path d="M25.0132,32.1754 C25.0132,30.8104 23.9072,29.7034 22.5412,29.7034 C21.1752,29.7034 20.0692,30.8104 20.0692,32.1754 C20.0692,33.5404 21.1752,34.6484 22.5412,34.6484 C23.9072,34.6484 25.0132,33.5404 25.0132,32.1754 Z" id="Stroke-17" stroke="#E94D59" stroke-width="1.2"></path>
                    <path d="M29.9576,32.1754 C29.9576,30.8104 28.8516,29.7034 27.4856,29.7034 C26.1206,29.7034 25.0136,30.8104 25.0136,32.1754 C25.0136,33.5404 26.1206,34.6484 27.4856,34.6484 C28.8516,34.6484 29.9576,33.5404 29.9576,32.1754 Z" id="Stroke-19" stroke="#E94D59" stroke-width="1.2"></path>
                    <path d="M34.9029,32.1754 C34.9029,30.8104 33.7959,29.7034 32.4299,29.7034 C31.0649,29.7034 29.9579,30.8104 29.9579,32.1754 C29.9579,33.5404 31.0649,34.6484 32.4299,34.6484 C33.7959,34.6484 34.9029,33.5404 34.9029,32.1754 Z" id="Stroke-21" stroke="#E94D59" stroke-width="1.2"></path>
                    <path d="M22.5416,34.648 L27.3566,44.324" id="Stroke-23" stroke="#E94D59" stroke-width="1.2"></path>
                    <path d="M32.4302,34.648 L27.3572,44.324" id="Stroke-25" stroke="#E94D59" stroke-width="1.2"></path>
                    <path d="M27.4859,34.648 L27.4859,44.324" id="Stroke-27" stroke="#E94D59" stroke-width="1.2"></path>
                    <g id="Group-31" transform="translate(27.000000, 0.000000)">
                        <mask id="mask-2" fill="white">
                            <use xlink:href="#path-1"></use>
                        </mask>
                        <g id="Clip-30"></g>
                        <path d="M0.357,0.4419 L0.357,9.7529" id="Stroke-29" stroke="#E94D59" stroke-width="1.2" mask="url(#mask-2)"></path>
                    </g>
                    <path d="M40.1343,40.5767 L46.7003,47.1417" id="Stroke-32" stroke="#E94D59" stroke-width="1.2"></path>
                    <path d="M8.0123,8.4546 L14.5953,15.0366" id="Stroke-34" stroke="#E94D59" stroke-width="1.2"></path>
                    <path d="M40.1275,15.0425 L46.7155,8.4545" id="Stroke-36" stroke="#E94D59" stroke-width="1.2"></path>
                    <path d="M8.0269,47.1422 L14.5869,40.5832" id="Stroke-38" stroke="#E94D59" stroke-width="1.2"></path>
                    <path d="M45.4175,27.7984 L54.7135,27.7984" id="Stroke-40" stroke="#E94D59" stroke-width="1.2"></path>
                    <g id="Group-44" transform="translate(0.000000, 27.000000)">
                        <mask id="mask-4" fill="white">
                            <use xlink:href="#path-3"></use>
                        </mask>
                        <g id="Clip-43"></g>
                        <path d="M-0.0004,0.7984 L9.2966,0.7984" id="Stroke-42" stroke="#E94D59" stroke-width="1.2" mask="url(#mask-4)"></path>
                    </g>
                </g>
            </g>
        </g>
    </g>
</svg>