<?xml version="1.0" encoding="UTF-8" standalone="no"?>
<svg width="110px" height="110px" viewBox="0 0 110 110" version="1.1" xmlns="http://www.w3.org/2000/svg" xmlns:xlink="http://www.w3.org/1999/xlink">
    <!-- Generator: Sketch 41.2 (35397) - http://www.bohemiancoding.com/sketch -->
    <title>Artboard Copy 9</title>
    <desc>Created with Sketch.</desc>
    <defs>
        <polygon id="path-1" points="0 43 78.272 43 78.272 0.353 0 0.353"></polygon>
    </defs>
    <g id="Welcome" stroke="none" stroke-width="1" fill="none" fill-rule="evenodd">
        <g id="Artboard-Copy-9">
            <g id="Page-1" transform="translate(15.000000, 33.000000)">
                <polygon id="Fill-1" fill="#F8CBCE" points="46.4229 13.7584 34.4499 13.7584 34.3219 13.7584 25.5219 13.7584 25.5219 22.4484 17.8819 22.4484 10.2409 22.4484 2.5999 22.4484 2.5999 28.0324 2.5999 43.6474 10.2409 43.6474 17.8819 43.6474 25.5219 43.6474 34.4499 43.6474 37.5529 43.6474 43.3289 43.6474 46.4229 43.6474 55.3509 43.6474 62.9909 43.6474 70.6319 43.6474 78.2719 43.6474 78.2719 22.4484 70.6319 22.4484 62.9909 22.4484 55.3509 22.4484 55.3509 13.7584"></polygon>
                <polygon id="Fill-2" fill="#F8CBCE" points="40.437 7.6084 46.423 7.6084 46.423 3.9334 40.437 3.9334"></polygon>
                <polygon id="Stroke-3" stroke="#E94D59" stroke-width="1.2" points="32.321 25.6984 44.423 25.6984 44.423 11.4254 32.321 11.4254"></polygon>
                <polygon id="Stroke-4" stroke="#E94D59" stroke-width="1.2" points="32.45 41.3144 44.423 41.3144 44.423 25.6994 32.45 25.6994"></polygon>
                <path d="M38.4364,19.2623 L38.4364,22.8653" id="Stroke-6" stroke="#E94D59" stroke-width="1.2"></path>
                <path d="M32.4501,25.6989 L32.4501,11.4259" id="Stroke-7" stroke="#E94D59" stroke-width="1.2"></path>
                <path d="M32.4501,16.2975 L38.4361,11.4255" id="Stroke-8" stroke="#E94D59" stroke-width="1.2"></path>
                <path d="M44.3583,16.2975 L38.3723,11.4255" id="Stroke-9" stroke="#E94D59" stroke-width="1.2"></path>
                <polygon id="Stroke-10" stroke="#E94D59" stroke-width="1.2" points="23.522 25.6984 32.45 25.6984 32.45 11.4254 23.522 11.4254"></polygon>
                <g id="Group-16" transform="translate(0.000000, 25.647400)" stroke-width="1.2" stroke="#E94D59">
                    <polygon id="Stroke-11" points="23.522 15.667 32.45 15.667 32.45 0.052 23.522 0.052"></polygon>
                    <polygon id="Stroke-13" points="15.881 15.667 23.522 15.667 23.522 0.052 15.881 0.052"></polygon>
                    <polygon id="Stroke-14" points="8.241 15.667 15.882 15.667 15.882 0.052 8.241 0.052"></polygon>
                    <polygon id="Stroke-15" points="0.599 15.667 8.241 15.667 8.241 0.052 0.599 0.052"></polygon>
                </g>
                <path d="M27.9862,30.069 L27.9862,33.672" id="Stroke-17" stroke="#E94D59" stroke-width="1.2"></path>
                <path d="M27.9862,34.8961 L27.9862,38.4991" id="Stroke-18" stroke="#E94D59" stroke-width="1.2"></path>
                <path d="M27.9862,19.2623 L27.9862,22.8653" id="Stroke-19" stroke="#E94D59" stroke-width="1.2"></path>
                <path d="M19.7021,30.069 L19.7021,33.672" id="Stroke-20" stroke="#E94D59" stroke-width="1.2"></path>
                <path d="M19.7021,34.8961 L19.7021,38.4991" id="Stroke-21" stroke="#E94D59" stroke-width="1.2"></path>
                <path d="M12.0614,30.069 L12.0614,33.672" id="Stroke-22" stroke="#E94D59" stroke-width="1.2"></path>
                <path d="M12.0614,34.8961 L12.0614,38.4991" id="Stroke-23" stroke="#E94D59" stroke-width="1.2"></path>
                <path d="M4.4208,30.069 L4.4208,33.672" id="Stroke-24" stroke="#E94D59" stroke-width="1.2"></path>
                <path d="M4.4208,34.8961 L4.4208,38.4991" id="Stroke-25" stroke="#E94D59" stroke-width="1.2"></path>
                <polygon id="Stroke-26" stroke="#E94D59" stroke-width="1.2" points="0.599 25.6984 8.241 25.6984 8.241 20.1154 0.599 20.1154"></polygon>
                <polygon id="Stroke-28" stroke="#E94D59" stroke-width="1.2" points="8.241 25.6984 15.882 25.6984 15.882 20.1154 8.241 20.1154"></polygon>
                <polygon id="Stroke-29" stroke="#E94D59" stroke-width="1.2" points="15.881 25.6984 23.522 25.6984 23.522 20.1154 15.881 20.1154"></polygon>
                <path d="M23.5224,16.2975 L32.4504,16.2975" id="Stroke-30" stroke="#E94D59" stroke-width="1.2"></path>
                <polygon id="Stroke-31" stroke="#E94D59" stroke-width="1.2" points="44.423 25.6984 53.351 25.6984 53.351 11.4254 44.423 11.4254"></polygon>
                <g id="Group-37" transform="translate(44.000000, 25.647400)" stroke-width="1.2" stroke="#E94D59">
                    <polygon id="Stroke-32" points="0.423 15.667 9.351 15.667 9.351 0.052 0.423 0.052"></polygon>
                    <polygon id="Stroke-34" points="9.35 15.667 16.991 15.667 16.991 0.052 9.35 0.052"></polygon>
                    <polygon id="Stroke-35" points="16.991 15.667 24.632 15.667 24.632 0.052 16.991 0.052"></polygon>
                    <polygon id="Stroke-36" points="24.632 15.667 32.273 15.667 32.273 0.052 24.632 0.052"></polygon>
                </g>
                <path d="M48.8866,30.069 L48.8866,33.672" id="Stroke-38" stroke="#E94D59" stroke-width="1.2"></path>
                <path d="M48.8866,34.8961 L48.8866,38.4991" id="Stroke-39" stroke="#E94D59" stroke-width="1.2"></path>
                <path d="M48.8866,19.2623 L48.8866,22.8653" id="Stroke-40" stroke="#E94D59" stroke-width="1.2"></path>
                <path d="M57.1708,30.069 L57.1708,33.672" id="Stroke-41" stroke="#E94D59" stroke-width="1.2"></path>
                <path d="M57.1708,34.8961 L57.1708,38.4991" id="Stroke-42" stroke="#E94D59" stroke-width="1.2"></path>
                <path d="M64.8114,30.069 L64.8114,33.672" id="Stroke-43" stroke="#E94D59" stroke-width="1.2"></path>
                <path d="M64.8114,34.8961 L64.8114,38.4991" id="Stroke-44" stroke="#E94D59" stroke-width="1.2"></path>
                <path d="M72.4521,30.069 L72.4521,33.672" id="Stroke-45" stroke="#E94D59" stroke-width="1.2"></path>
                <path d="M72.4521,34.8961 L72.4521,38.4991" id="Stroke-46" stroke="#E94D59" stroke-width="1.2"></path>
                <polygon id="Stroke-47" stroke="#E94D59" stroke-width="1.2" points="68.632 25.6984 76.273 25.6984 76.273 20.1154 68.632 20.1154"></polygon>
                <polygon id="Stroke-48" stroke="#E94D59" stroke-width="1.2" points="60.991 25.6984 68.632 25.6984 68.632 20.1154 60.991 20.1154"></polygon>
                <polygon id="Stroke-49" stroke="#E94D59" stroke-width="1.2" points="53.35 25.6984 60.991 25.6984 60.991 20.1154 53.35 20.1154"></polygon>
                <path d="M53.3505,16.2975 L44.4225,16.2975" id="Stroke-50" stroke="#E94D59" stroke-width="1.2"></path>
                <path d="M32.4501,16.2975 L44.3581,16.2975" id="Stroke-51" stroke="#E94D59" stroke-width="1.2"></path>
                <g id="Group-57" transform="translate(0.000000, 0.647400)">
                    <path d="M38.4364,10.778 L38.4364,0.953 L38.4364,10.778 Z" id="Stroke-52" stroke="#E94D59" stroke-width="1.2"></path>
                    <mask id="mask-2" fill="white">
                        <use xlink:href="#path-1"></use>
                    </mask>
                    <g id="Clip-55"></g>
                    <polygon id="Stroke-54" stroke="#E94D59" stroke-width="1.2" mask="url(#mask-2)" points="38.437 4.627 44.423 4.627 44.423 0.953 38.437 0.953"></polygon>
                    <path d="M41.329,40.6667 L41.329,31.2597 C41.329,29.6647 40.035,28.3717 38.44,28.3717 C36.846,28.3717 35.552,29.6647 35.552,31.2597 L35.552,40.6667 L41.329,40.6667 Z" id="Stroke-56" stroke="#E94D59" stroke-width="1.2" mask="url(#mask-2)"></path>
                </g>
            </g>
        </g>
    </g>
</svg>