<?xml version="1.0" encoding="UTF-8" standalone="no"?>
<svg width="110px" height="110px" viewBox="0 0 110 110" version="1.1" xmlns="http://www.w3.org/2000/svg" xmlns:xlink="http://www.w3.org/1999/xlink">
    <!-- Generator: Sketch 41.2 (35397) - http://www.bohemiancoding.com/sketch -->
    <title>Artboard Copy 10</title>
    <desc>Created with Sketch.</desc>
    <defs>
        <polygon id="path-1" points="0.0798 53 49.928 53 49.928 0.8038 0.0798 0.8038"></polygon>
    </defs>
    <g id="Welcome" stroke="none" stroke-width="1" fill="none" fill-rule="evenodd">
        <g id="Artboard-Copy-10">
            <g id="Page-1" transform="translate(31.000000, 27.000000)">
                <g id="Group-3" transform="translate(2.000000, 1.514300)">
                    <mask id="mask-2" fill="white">
                        <use xlink:href="#path-1"></use>
                    </mask>
                    <g id="Clip-2"></g>
                    <path d="M38.1668,23.6928 L35.7158,15.6788 C35.7158,15.6788 38.8648,17.3688 40.8998,22.1148 L38.1668,23.6928 Z M16.7448,33.1398 L15.6728,24.3508 C15.6728,24.3508 18.2768,27.3798 19.3018,32.1108 L16.7448,33.1398 Z M49.9288,25.5458 L46.1858,19.0638 L44.2498,20.1808 C42.5358,16.2358 39.5028,11.6258 34.1788,8.6438 L34.1758,8.6448 C34.6818,7.8528 34.9788,6.9158 34.9788,5.9058 C34.9788,3.0888 32.6938,0.8038 29.8768,0.8038 C27.0598,0.8038 24.7748,3.0888 24.7748,5.9058 C24.7748,8.0458 26.0938,9.8748 27.9618,10.6318 C26.5268,19.7558 19.5378,24.0738 19.5378,24.0738 L19.5378,24.0758 C19.4318,24.1458 19.3388,24.2338 19.2468,24.3228 C16.9968,20.6648 14.4958,18.6478 14.4958,18.6478 L14.4948,18.6478 C14.8938,18.0208 15.1268,17.2798 15.1268,16.4828 C15.1268,14.2468 13.3138,12.4338 11.0778,12.4338 C8.8418,12.4338 7.0288,14.2468 7.0288,16.4828 C7.0288,18.1498 8.0368,19.5808 9.4768,20.2018 C9.4768,20.2018 8.3168,28.9798 1.0808,32.9148 L1.0828,32.9188 C0.4988,33.1308 0.0798,33.6858 0.0798,34.3438 C0.0798,35.1838 0.7608,35.8658 1.6018,35.8658 C1.8738,35.8658 2.1258,35.7888 2.3468,35.6638 L2.3478,35.6648 C3.7828,35.2058 6.7128,32.3908 6.7128,32.3908 L6.7128,38.9378 L7.6888,38.9378 L5.9088,50.8118 L4.5048,50.8118 C3.9458,50.8118 3.4928,51.2648 3.4928,51.8248 C3.4928,52.3828 3.9458,52.8368 4.5048,52.8368 L9.0148,52.8368 L9.1318,50.8118 L12.8578,38.9378 L15.7868,50.0808 L14.3968,50.4668 C13.8418,50.5258 13.4378,51.0248 13.4978,51.5808 C13.5568,52.1358 14.0558,52.5398 14.6108,52.4798 L19.0948,52.0048 L19.0038,50.0808 L16.9928,38.9378 L17.4528,38.9378 L17.2718,37.4638 L19.7388,36.4698 C19.8738,37.1718 20.4898,37.7048 21.2318,37.7048 C22.0728,37.7048 22.7538,37.0228 22.7538,36.1828 C22.7518,35.8738 22.7398,35.5688 22.7258,35.2668 L24.7598,34.4478 L23.1878,30.5458 L22.0828,30.9908 C21.7898,29.8258 21.4168,28.7348 20.9918,27.7198 C21.2658,27.6718 21.5198,27.5698 21.7418,27.4218 L21.7428,27.4228 L21.7458,27.4208 C21.8638,27.3418 21.9738,27.2508 22.0728,27.1488 L26.1828,23.7438 L26.1828,32.3908 L27.4458,32.3908 L24.5598,50.8118 L22.9868,50.8118 C22.4288,50.8118 21.9758,51.2648 21.9758,51.8248 C21.9758,52.3828 22.4288,52.8368 22.9868,52.8368 L28.6518,52.8368 L28.6518,50.8118 L33.1748,32.3908 L39.2908,50.4678 L37.6958,50.9778 C37.1388,51.0168 36.7188,51.5018 36.7578,52.0588 C36.7968,52.6168 37.2808,53.0368 37.8388,52.9978 L43.4888,52.5998 L43.4258,50.4678 L39.2908,32.3908 L40.8268,32.3908 L40.4138,31.0398 L43.2508,29.4008 C43.5748,29.6268 43.9678,29.7598 44.3928,29.7598 C45.4998,29.7598 46.3978,28.8618 46.3978,27.7548 C46.3978,27.6998 46.3828,27.6498 46.3768,27.5958 L49.9288,25.5458 Z" id="Fill-1" fill="#F8CBCE" mask="url(#mask-2)"></path>
                </g>
                <path d="M38.6072,23.4092 L36.1562,15.3942 C36.1562,15.3942 39.3052,17.0852 41.3402,21.8312 L38.6072,23.4092 Z M17.1852,32.8562 L16.1132,24.0672 C16.1132,24.0672 18.7172,27.0962 19.7422,31.8272 L17.1852,32.8562 Z M50.3692,25.2622 L46.6272,18.7802 L44.6912,19.8972 C42.9762,15.9522 39.9432,11.3422 34.6192,8.3602 L34.6172,8.3612 C35.1232,7.5692 35.4192,6.6312 35.4192,5.6222 C35.4192,2.8052 33.1352,0.5202 30.3172,0.5202 C27.5002,0.5202 25.2152,2.8052 25.2152,5.6222 C25.2152,7.7622 26.5342,9.5912 28.4022,10.3482 C26.9672,19.4722 19.9782,23.7902 19.9782,23.7902 L19.9792,23.7912 C19.8722,23.8622 19.7792,23.9502 19.6872,24.0392 C17.4372,20.3802 14.9362,18.3642 14.9362,18.3642 L14.9352,18.3642 C15.3342,17.7372 15.5672,16.9962 15.5672,16.1992 C15.5672,13.9632 13.7542,12.1502 11.5182,12.1502 C9.2822,12.1502 7.4692,13.9632 7.4692,16.1992 C7.4692,17.8662 8.4782,19.2972 9.9182,19.9182 L9.9172,19.9182 C9.9172,19.9182 8.7572,28.6962 1.5212,32.6312 L1.5232,32.6352 C0.9392,32.8472 0.5202,33.4022 0.5202,34.0602 C0.5202,34.9002 1.2022,35.5822 2.0422,35.5822 C2.3142,35.5822 2.5662,35.5052 2.7882,35.3802 L2.7882,35.3812 C4.2232,34.9222 7.1542,32.1072 7.1542,32.1072 L7.1542,38.6542 L8.1292,38.6542 L6.3492,50.5282 L4.9462,50.5282 C4.3862,50.5282 3.9332,50.9812 3.9332,51.5412 C3.9332,52.0992 4.3862,52.5532 4.9462,52.5532 L9.4552,52.5532 L9.5722,50.5282 L13.2982,38.6542 L16.2272,49.7962 L14.8372,50.1832 C14.2822,50.2422 13.8792,50.7402 13.9382,51.2972 C13.9972,51.8522 14.4962,52.2552 15.0512,52.1962 L19.5352,51.7212 L19.4442,49.7962 L17.4332,38.6542 L17.8932,38.6542 L17.7132,37.1802 L20.1792,36.1852 C20.3142,36.8882 20.9302,37.4212 21.6722,37.4212 C22.5132,37.4212 23.1952,36.7392 23.1952,35.8982 C23.1922,35.5902 23.1802,35.2852 23.1662,34.9832 L25.2002,34.1642 L23.6282,30.2622 L22.5232,30.7072 C22.2302,29.5422 21.8582,28.4512 21.4322,27.4362 C21.7062,27.3882 21.9612,27.2862 22.1832,27.1382 L22.1862,27.1372 C22.3052,27.0582 22.4152,26.9672 22.5132,26.8652 L26.6232,23.4602 L26.6232,32.1072 L27.8862,32.1072 L25.0012,50.5282 L23.4282,50.5282 C22.8692,50.5282 22.4162,50.9812 22.4162,51.5412 C22.4162,52.0992 22.8692,52.5532 23.4282,52.5532 L29.0922,52.5532 L29.0922,50.5282 L33.6152,32.1072 L39.7312,50.1832 L38.1372,50.6942 C37.5802,50.7332 37.1592,51.2182 37.1982,51.7752 C37.2382,52.3332 37.7212,52.7532 38.2792,52.7142 L43.9292,52.3162 L43.8672,50.1832 L39.7312,32.1072 L41.2682,32.1072 L40.8542,30.7552 L43.6912,29.1172 C44.0152,29.3432 44.4082,29.4762 44.8332,29.4762 C45.9402,29.4762 46.8382,28.5782 46.8382,27.4712 C46.8382,27.4162 46.8232,27.3662 46.8172,27.3122 L50.3692,25.2622 Z" id="Stroke-4" stroke="#E94D59" stroke-width="1.041" stroke-linecap="round" stroke-linejoin="round"></path>
            </g>
        </g>
    </g>
</svg>