<?xml version="1.0" encoding="UTF-8" standalone="no"?>
<svg width="110px" height="110px" viewBox="0 0 110 110" version="1.1" xmlns="http://www.w3.org/2000/svg" xmlns:xlink="http://www.w3.org/1999/xlink">
    <!-- Generator: Sketch 41.2 (35397) - http://www.bohemiancoding.com/sketch -->
    <title>Artboard Copy 12</title>
    <desc>Created with Sketch.</desc>
    <defs>
        <polygon id="path-1" points="0 38.953 0 50 61.151 50 61.151 0.184 0 0.184 0 38.953 61.1499 38.953 61.1499 37.953 -0.0001 37.953 -0.0001 38.953"></polygon>
    </defs>
    <g id="Welcome" stroke="none" stroke-width="1" fill="none" fill-rule="evenodd">
        <g id="Artboard-Copy-12">
            <g id="Page-1" transform="translate(24.000000, 29.000000)">
                <g id="Group-27" transform="translate(4.000000, 3.816100)" fill="#F8CBCE">
                    <path d="M56.4042,24.078 C56.4042,22.399 55.0442,21.039 53.3652,21.039 C51.6862,21.039 50.3262,22.399 50.3262,24.078 C50.3262,24.749 50.5502,25.363 50.9182,25.865 C50.5502,26.368 50.3262,26.982 50.3262,27.653 C50.3262,29.332 51.6862,30.692 53.3652,30.692 C55.0442,30.692 56.4042,29.332 56.4042,27.653 C56.4042,26.982 56.1802,26.368 55.8122,25.865 C56.1802,25.363 56.4042,24.749 56.4042,24.078" id="Fill-1"></path>
                    <path d="M48.1406,24.078 C48.1406,22.399 46.7806,21.039 45.1016,21.039 C43.4236,21.039 42.0626,22.399 42.0626,24.078 C42.0626,24.749 42.2866,25.363 42.6546,25.865 C42.2866,26.368 42.0626,26.982 42.0626,27.653 C42.0626,29.332 43.4236,30.692 45.1016,30.692 C46.7806,30.692 48.1406,29.332 48.1406,27.653 C48.1406,26.982 47.9166,26.368 47.5486,25.865 C47.9166,25.363 48.1406,24.749 48.1406,24.078" id="Fill-3"></path>
                    <path d="M6.8241,24.078 C6.8241,22.399 5.4641,21.039 3.7851,21.039 C2.1061,21.039 0.7461,22.399 0.7461,24.078 C0.7461,24.749 0.9701,25.363 1.3381,25.865 C0.9701,26.368 0.7461,26.982 0.7461,27.653 C0.7461,29.332 2.1061,30.692 3.7851,30.692 C5.4641,30.692 6.8241,29.332 6.8241,27.653 C6.8241,26.982 6.6001,26.368 6.2321,25.865 C6.6001,25.363 6.8241,24.749 6.8241,24.078" id="Fill-5"></path>
                    <path d="M15.0878,24.078 C15.0878,22.399 13.7278,21.039 12.0488,21.039 C10.3698,21.039 9.0098,22.399 9.0098,24.078 C9.0098,24.749 9.2338,25.363 9.6018,25.865 C9.2338,26.368 9.0098,26.982 9.0098,27.653 C9.0098,29.332 10.3698,30.692 12.0488,30.692 C13.7278,30.692 15.0878,29.332 15.0878,27.653 C15.0878,26.982 14.8638,26.368 14.4958,25.865 C14.8638,25.363 15.0878,24.749 15.0878,24.078" id="Fill-7"></path>
                    <path d="M23.3515,24.078 C23.3515,22.399 21.9905,21.039 20.3115,21.039 C18.6335,21.039 17.2725,22.399 17.2725,24.078 C17.2725,24.749 17.4975,25.363 17.8645,25.865 C17.4975,26.368 17.2725,26.982 17.2725,27.653 C17.2725,29.332 18.6335,30.692 20.3115,30.692 C21.9905,30.692 23.3515,29.332 23.3515,27.653 C23.3515,26.982 23.1265,26.368 22.7585,25.865 C23.1265,25.363 23.3515,24.749 23.3515,24.078" id="Fill-9"></path>
                    <path d="M31.6142,24.078 C31.6142,22.399 30.2542,21.039 28.5752,21.039 C26.8962,21.039 25.5362,22.399 25.5362,24.078 C25.5362,24.749 25.7592,25.363 26.1282,25.865 C25.7592,26.368 25.5362,26.982 25.5362,27.653 C25.5362,29.332 26.8962,30.692 28.5752,30.692 C30.2542,30.692 31.6142,29.332 31.6142,27.653 C31.6142,26.982 31.3902,26.368 31.0222,25.865 C31.3902,25.363 31.6142,24.749 31.6142,24.078" id="Fill-11"></path>
                    <path d="M39.8779,24.078 C39.8779,22.399 38.5169,21.039 36.8389,21.039 C35.1599,21.039 33.7999,22.399 33.7999,24.078 C33.7999,24.749 34.0239,25.363 34.3919,25.865 C34.0239,26.368 33.7999,26.982 33.7999,27.653 C33.7999,29.332 35.1599,30.692 36.8389,30.692 C38.5169,30.692 39.8779,29.332 39.8779,27.653 C39.8779,26.982 39.6529,26.368 39.2859,25.865 C39.6529,25.363 39.8779,24.749 39.8779,24.078" id="Fill-13"></path>
                    <path d="M34.6513,8.7166 C31.0923,4.0856 28.4543,0.6586 28.4543,0.6586 C28.4543,0.6586 25.9303,3.9356 22.4913,8.4116" id="Fill-15"></path>
                    <path d="M46.8564,8.4705 C43.3944,3.9645 40.8494,0.6585 40.8494,0.6585 C40.8494,0.6585 38.2104,4.0855 34.6514,8.7175" id="Fill-17"></path>
                    <path d="M10.1728,8.4676 C13.6338,3.9626 16.1778,0.6586 16.1778,0.6586 C16.1778,0.6586 18.8168,4.0856 22.3758,8.7176" id="Fill-19"></path>
                    <polyline id="Fill-21" points="34.6513 8.411 31.6053 12.533 28.5593 8.411 28.4673 8.411 25.4213 12.533 22.3763 8.411"></polyline>
                    <polyline id="Fill-23" points="46.9316 8.411 43.8856 12.533 40.8396 8.411 40.7476 8.411 37.7026 12.533 34.6566 8.411"></polyline>
                    <polyline id="Fill-25" points="22.3759 8.411 19.3289 12.533 16.2829 8.411 16.1919 8.411 13.1459 12.533 10.0999 8.411"></polyline>
                </g>
                <g id="Group-30" transform="translate(0.000000, 0.816100)">
                    <mask id="mask-2" fill="white">
                        <use xlink:href="#path-1"></use>
                    </mask>
                    <g id="Clip-29"></g>
                    <path d="M-0.0001,37.953 L61.1499,37.953" id="Stroke-28" stroke="#E94D59" stroke-width="1.2" mask="url(#mask-2)"></path>
                </g>
                <path d="M55.3652,38.7691 L55.3652,31.4421" id="Stroke-31" stroke="#E94D59" stroke-width="1.2"></path>
                <g id="Group-104" transform="translate(2.000000, 1.816100)" stroke="#E94D59" stroke-width="1.2">
                    <path d="M56.4042,23.5672 C56.4042,21.8892 55.0442,20.5282 53.3652,20.5282 C51.6862,20.5282 50.3262,21.8892 50.3262,23.5672 C50.3262,24.2382 50.5502,24.8522 50.9182,25.3552 C50.5502,25.8572 50.3262,26.4712 50.3262,27.1422 C50.3262,28.8212 51.6862,30.1812 53.3652,30.1812 C55.0442,30.1812 56.4042,28.8212 56.4042,27.1422 C56.4042,26.4712 56.1802,25.8572 55.8122,25.3552 C56.1802,24.8522 56.4042,24.2382 56.4042,23.5672 Z" id="Stroke-32"></path>
                    <path d="M45.1015,36.953 L45.1015,29.626" id="Stroke-34"></path>
                    <path d="M48.1406,23.5672 C48.1406,21.8892 46.7806,20.5282 45.1016,20.5282 C43.4236,20.5282 42.0626,21.8892 42.0626,23.5672 C42.0626,24.2382 42.2866,24.8522 42.6546,25.3552 C42.2866,25.8572 42.0626,26.4712 42.0626,27.1422 C42.0626,28.8212 43.4236,30.1812 45.1016,30.1812 C46.7806,30.1812 48.1406,28.8212 48.1406,27.1422 C48.1406,26.4712 47.9166,25.8572 47.5486,25.3552 C47.9166,24.8522 48.1406,24.2382 48.1406,23.5672 Z" id="Stroke-36"></path>
                    <path d="M3.7851,36.953 L3.7851,29.626" id="Stroke-38"></path>
                    <path d="M6.8241,23.5672 C6.8241,21.8892 5.4641,20.5282 3.7851,20.5282 C2.1061,20.5282 0.7461,21.8892 0.7461,23.5672 C0.7461,24.2382 0.9701,24.8522 1.3381,25.3552 C0.9701,25.8572 0.7461,26.4712 0.7461,27.1422 C0.7461,28.8212 2.1061,30.1812 3.7851,30.1812 C5.4641,30.1812 6.8241,28.8212 6.8241,27.1422 C6.8241,26.4712 6.6001,25.8572 6.2321,25.3552 C6.6001,24.8522 6.8241,24.2382 6.8241,23.5672 Z" id="Stroke-40"></path>
                    <path d="M12.0488,36.953 L12.0488,29.626" id="Stroke-42"></path>
                    <path d="M15.0878,23.5672 C15.0878,21.8892 13.7278,20.5282 12.0488,20.5282 C10.3698,20.5282 9.0098,21.8892 9.0098,23.5672 C9.0098,24.2382 9.2338,24.8522 9.6018,25.3552 C9.2338,25.8572 9.0098,26.4712 9.0098,27.1422 C9.0098,28.8212 10.3698,30.1812 12.0488,30.1812 C13.7278,30.1812 15.0878,28.8212 15.0878,27.1422 C15.0878,26.4712 14.8638,25.8572 14.4958,25.3552 C14.8638,24.8522 15.0878,24.2382 15.0878,23.5672 Z" id="Stroke-44"></path>
                    <path d="M20.3114,36.953 L20.3114,29.626" id="Stroke-46"></path>
                    <path d="M23.3515,23.5672 C23.3515,21.8892 21.9905,20.5282 20.3115,20.5282 C18.6335,20.5282 17.2725,21.8892 17.2725,23.5672 C17.2725,24.2382 17.4975,24.8522 17.8645,25.3552 C17.4975,25.8572 17.2725,26.4712 17.2725,27.1422 C17.2725,28.8212 18.6335,30.1812 20.3115,30.1812 C21.9905,30.1812 23.3515,28.8212 23.3515,27.1422 C23.3515,26.4712 23.1265,25.8572 22.7585,25.3552 C23.1265,24.8522 23.3515,24.2382 23.3515,23.5672 Z" id="Stroke-48"></path>
                    <path d="M28.5751,36.953 L28.5751,29.626" id="Stroke-50"></path>
                    <path d="M31.6142,23.5672 C31.6142,21.8892 30.2542,20.5282 28.5752,20.5282 C26.8962,20.5282 25.5362,21.8892 25.5362,23.5672 C25.5362,24.2382 25.7592,24.8522 26.1282,25.3552 C25.7592,25.8572 25.5362,26.4712 25.5362,27.1422 C25.5362,28.8212 26.8962,30.1812 28.5752,30.1812 C30.2542,30.1812 31.6142,28.8212 31.6142,27.1422 C31.6142,26.4712 31.3902,25.8572 31.0222,25.3552 C31.3902,24.8522 31.6142,24.2382 31.6142,23.5672 Z" id="Stroke-52"></path>
                    <path d="M36.8388,36.953 L36.8388,29.626" id="Stroke-54"></path>
                    <path d="M39.8779,23.5672 C39.8779,21.8892 38.5169,20.5282 36.8389,20.5282 C35.1599,20.5282 33.7999,21.8892 33.7999,23.5672 C33.7999,24.2382 34.0239,24.8522 34.3919,25.3552 C34.0239,25.8572 33.7999,26.4712 33.7999,27.1422 C33.7999,28.8212 35.1599,30.1812 36.8389,30.1812 C38.5169,30.1812 39.8779,28.8212 39.8779,27.1422 C39.8779,26.4712 39.6529,25.8572 39.2859,25.3552 C39.6529,24.8522 39.8779,24.2382 39.8779,23.5672 Z" id="Stroke-56"></path>
                    <path d="M6.7411,39.5575 C6.7411,41.2805 5.3451,42.6765 3.6221,42.6765 C1.8991,42.6765 0.5031,41.2805 0.5031,39.5575" id="Stroke-58"></path>
                    <path d="M12.9794,39.5575 C12.9794,41.2805 11.5834,42.6765 9.8604,42.6765 C8.1374,42.6765 6.7414,41.2805 6.7414,39.5575" id="Stroke-60"></path>
                    <path d="M19.2177,39.5575 C19.2177,41.2805 17.8217,42.6765 16.0987,42.6765 C14.3757,42.6765 12.9797,41.2805 12.9797,39.5575" id="Stroke-62"></path>
                    <path d="M25.456,39.5575 C25.456,41.2805 24.06,42.6765 22.337,42.6765 C20.614,42.6765 19.218,41.2805 19.218,39.5575" id="Stroke-64"></path>
                    <path d="M31.6943,39.5575 C31.6943,41.2805 30.2983,42.6765 28.5753,42.6765 C26.8523,42.6765 25.4563,41.2805 25.4563,39.5575" id="Stroke-66"></path>
                    <path d="M37.9326,39.5575 C37.9326,41.2805 36.5366,42.6765 34.8136,42.6765 C33.0906,42.6765 31.6946,41.2805 31.6946,39.5575" id="Stroke-68"></path>
                    <path d="M44.1708,39.5575 C44.1708,41.2805 42.7748,42.6765 41.0518,42.6765 C39.3288,42.6765 37.9328,41.2805 37.9328,39.5575" id="Stroke-70"></path>
                    <path d="M50.4091,39.5575 C50.4091,41.2805 49.0131,42.6765 47.2901,42.6765 C45.5671,42.6765 44.1711,41.2805 44.1711,39.5575" id="Stroke-72"></path>
                    <path d="M56.6484,39.5575 C56.6484,41.2805 55.2524,42.6765 53.5284,42.6765 C51.8054,42.6765 50.4094,41.2805 50.4094,39.5575" id="Stroke-74"></path>
                    <path d="M9.8603,45.2811 C9.8603,47.0041 8.4643,48.4001 6.7413,48.4001 C5.0183,48.4001 3.6223,47.0041 3.6223,45.2811" id="Stroke-76"></path>
                    <path d="M16.0986,45.2811 C16.0986,47.0041 14.7026,48.4001 12.9796,48.4001 C11.2566,48.4001 9.8606,47.0041 9.8606,45.2811" id="Stroke-78"></path>
                    <path d="M22.3368,45.2811 C22.3368,47.0041 20.9408,48.4001 19.2178,48.4001 C17.4948,48.4001 16.0988,47.0041 16.0988,45.2811" id="Stroke-80"></path>
                    <path d="M28.5751,45.2811 C28.5751,47.0041 27.1791,48.4001 25.4561,48.4001 C23.7331,48.4001 22.3371,47.0041 22.3371,45.2811" id="Stroke-82"></path>
                    <path d="M34.8134,45.2811 C34.8134,47.0041 33.4174,48.4001 31.6944,48.4001 C29.9714,48.4001 28.5754,47.0041 28.5754,45.2811" id="Stroke-84"></path>
                    <path d="M41.0517,45.2811 C41.0517,47.0041 39.6557,48.4001 37.9327,48.4001 C36.2097,48.4001 34.8137,47.0041 34.8137,45.2811" id="Stroke-86"></path>
                    <path d="M47.29,45.2811 C47.29,47.0041 45.894,48.4001 44.171,48.4001 C42.448,48.4001 41.052,47.0041 41.052,45.2811" id="Stroke-88"></path>
                    <path d="M53.5283,45.2811 C53.5283,47.0041 52.1323,48.4001 50.4093,48.4001 C48.6863,48.4001 47.2903,47.0041 47.2903,45.2811" id="Stroke-90"></path>
                    <path d="M42.4482,18.3045 C35.7702,9.5895 28.5152,0.1675 28.5152,0.1675 C28.5152,0.1675 21.2602,9.5895 14.5842,18.3045" id="Stroke-92"></path>
                    <path d="M54.8427,18.3045 C48.1657,9.5895 40.9107,0.1675 40.9107,0.1675 C40.9107,0.1675 38.2727,3.5935 34.7127,8.2255" id="Stroke-94"></path>
                    <path d="M2.3075,18.3045 C8.9845,9.5895 16.2405,0.1675 16.2405,0.1675 C16.2405,0.1675 18.8775,3.5935 22.4375,8.2255" id="Stroke-96"></path>
                    <polyline id="Stroke-98" points="34.7128 7.9198 31.6668 12.0418 28.6208 7.9198 28.5288 7.9198 25.4828 12.0418 22.4378 7.9198"></polyline>
                    <polyline id="Stroke-100" points="46.9941 7.9198 43.9471 12.0418 40.9011 7.9198 40.8101 7.9198 37.7641 12.0418 34.7181 7.9198"></polyline>
                    <polyline id="Stroke-102" points="22.4374 7.9198 19.3914 12.0418 16.3444 7.9198 16.2534 7.9198 13.2084 12.0418 10.1614 7.9198"></polyline>
                </g>
            </g>
        </g>
    </g>
</svg>