<?xml version="1.0" encoding="UTF-8" standalone="no"?>
<svg width="110px" height="110px" viewBox="0 0 110 110" version="1.1" xmlns="http://www.w3.org/2000/svg" xmlns:xlink="http://www.w3.org/1999/xlink">
    <!-- Generator: Sketch 41.2 (35397) - http://www.bohemiancoding.com/sketch -->
    <title>Artboard Copy 13</title>
    <desc>Created with Sketch.</desc>
    <defs>
        <polygon id="path-1" points="0.5922 39 59.306 39 59.306 0.0552110956 0.5922 0.0552110956 0.5922 39"></polygon>
    </defs>
    <g id="Welcome" stroke="none" stroke-width="1" fill="none" fill-rule="evenodd">
        <g id="Artboard-Copy-13">
            <g id="Page-1" transform="translate(24.000000, 33.000000)">
                <g id="Group-3" transform="translate(2.000000, 3.878400)">
                    <mask id="mask-2" fill="white">
                        <use xlink:href="#path-1"></use>
                    </mask>
                    <g id="Clip-2"></g>
                    <path d="M56.7952,32.3133 L56.7892,30.2373 L56.7762,30.2373 C56.6292,17.6253 47.8002,7.1103 35.9942,4.3863 L36.3342,0.8573 C34.2572,0.3473 32.0972,0.0493 29.8612,0.0553 C27.6262,0.0603 25.4682,0.3693 23.3942,0.8883 L23.7512,4.4163 C11.9582,7.1983 3.1812,17.7553 3.0952,30.3693 L3.0822,30.3693 L3.0872,32.4453 L0.5922,32.4513 L0.6072,39.0003 L59.3062,38.8563 L59.2892,32.3073 L56.7952,32.3133 Z" id="Fill-1" fill="#F8CBCE" mask="url(#mask-2)"></path>
                </g>
                <g id="Group-16" transform="translate(0.000000, 0.878400)" stroke="#E94D59" stroke-width="1.2" stroke-linejoin="round">
                    <path d="M23.8275,5.0681 C12.0275,7.8201 3.2235,18.3571 3.1075,30.9691 L3.0955,30.9691 L3.0955,33.0461" id="Stroke-4"></path>
                    <path d="M56.8031,33.0457 L56.8031,30.9697 L56.7901,30.9697 C56.6731,18.3537 47.8651,7.8147 36.0601,5.0657" id="Stroke-6"></path>
                    <polyline id="Stroke-8" points="36.5667 33.0457 59.2977 33.0457 59.2977 39.5947 0.5997 39.5947 0.5997 33.0457 23.3317 33.0457"></polyline>
                    <path d="M38.2952,27.9744 C38.2952,23.3644 34.5592,19.6274 29.9482,19.6274 C25.3392,19.6274 21.6032,23.3644 21.6032,27.9744 C21.6032,32.5834 25.3392,36.3204 29.9482,36.3204 C34.5592,36.3204 38.2952,32.5834 38.2952,27.9744 Z" id="Stroke-10"></path>
                    <path d="M34.1224,27.9744 C34.1224,25.6694 32.2534,23.8004 29.9484,23.8004 C27.6434,23.8004 25.7754,25.6694 25.7754,27.9744 C25.7754,30.2794 27.6434,32.1474 29.9484,32.1474 C32.2534,32.1474 34.1224,30.2794 34.1224,27.9744 Z" id="Stroke-12"></path>
                    <path d="M23.4788,1.5398 L24.7628,14.5468 L35.1338,14.5468 L36.4188,1.5398 C34.3428,1.0248 32.1838,0.7218 29.9488,0.7218 C27.7128,0.7218 25.5538,1.0248 23.4788,1.5398 Z" id="Stroke-14"></path>
                </g>
            </g>
        </g>
    </g>
</svg>