<?xml version="1.0" encoding="UTF-8" standalone="no"?>
<svg width="110px" height="110px" viewBox="0 0 110 110" version="1.1" xmlns="http://www.w3.org/2000/svg" xmlns:xlink="http://www.w3.org/1999/xlink">
    <!-- Generator: Sketch 41.2 (35397) - http://www.bohemiancoding.com/sketch -->
    <title>Artboard Copy 14</title>
    <desc>Created with Sketch.</desc>
    <defs></defs>
    <g id="Welcome" stroke="none" stroke-width="1" fill="none" fill-rule="evenodd">
        <g id="Artboard-Copy-14">
            <g id="Page-1" transform="translate(23.000000, 24.000000)">
                <path d="M45.6427,33.2022 L45.6367,33.2022 L38.2027,14.3532 L38.2077,14.3532 L38.2027,14.3532 L33.6977,2.9332 L30.6397,2.9332 C30.6397,2.9332 29.5837,5.6102 28.0377,9.5312 L27.9717,9.5312 C27.9927,9.5332 28.0147,9.5342 28.0357,9.5352 C27.0527,12.0252 25.8747,15.0132 24.6347,18.1562 L24.6307,18.1562 C24.6307,18.1562 24.6337,18.1562 24.6347,18.1572 C22.6027,23.3082 20.4197,28.8422 18.7027,33.1982 L2.2437,42.2752 L32.1677,60.3572 L62.0937,42.2752 L45.6427,33.2022 Z" id="Fill-1" fill="#F8CBCE"></path>
                <g id="Group-15" transform="translate(0.000000, 0.357200)" stroke="#E94D59" stroke-width="1.2">
                    <polyline id="Stroke-3" points="43.5997 30.512 60.0497 39.585 30.1247 57.666 0.1997 39.585 16.6587 30.507"></polyline>
                    <path d="M13.6036,38.5344 C13.6036,41.6004 21.0396,44.0874 30.2116,44.0874 C39.3836,44.0874 46.8196,41.6004 46.8196,38.5344 L46.7326,38.4724 L31.6536,0.2424 L28.5956,0.2424 L13.5166,38.4724 L13.6036,38.5344 Z" id="Stroke-5" stroke-linecap="round" stroke-linejoin="round"></path>
                    <path d="M20.3751,21.0862 C23.1291,21.7642 26.5301,22.1652 30.2121,22.1652 C33.8221,22.1652 37.1641,21.7792 39.8901,21.1252" id="Stroke-7" stroke-linecap="round" stroke-linejoin="round"></path>
                    <path d="M22.588,15.4661 C24.871,15.8611 27.463,16.0841 30.212,16.0841 C32.886,16.0841 35.412,15.8731 37.65,15.4971" id="Stroke-9" stroke-linecap="round" stroke-linejoin="round"></path>
                    <path d="M24.1007,11.6418 C25.9927,11.8928 28.0537,12.0308 30.2117,12.0308 C32.3097,12.0308 34.3167,11.8998 36.1647,11.6628" id="Stroke-11" stroke-linecap="round" stroke-linejoin="round"></path>
                    <path d="M25.9278,6.8411 C27.2948,6.9621 28.7308,7.0281 30.2118,7.0281 C31.6078,7.0281 32.9628,6.9701 34.2578,6.8621" id="Stroke-13" stroke-linecap="round" stroke-linejoin="round"></path>
                </g>
            </g>
        </g>
    </g>
</svg>