<?xml version="1.0" encoding="UTF-8" standalone="no"?>
<svg width="110px" height="110px" viewBox="0 0 110 110" version="1.1" xmlns="http://www.w3.org/2000/svg" xmlns:xlink="http://www.w3.org/1999/xlink">
    <!-- Generator: Sketch 41.2 (35397) - http://www.bohemiancoding.com/sketch -->
    <title>Artboard Copy 15</title>
    <desc>Created with Sketch.</desc>
    <defs>
        <polygon id="path-1" points="0 55 53.981 55 53.981 0.686 0 0.686"></polygon>
    </defs>
    <g id="Welcome" stroke="none" stroke-width="1" fill="none" fill-rule="evenodd">
        <g id="Artboard-Copy-15">
            <g id="Page-1" transform="translate(28.000000, 27.000000)">
                <path d="M53.9119,27.9995 C53.7649,25.7195 53.3259,23.5185 52.6249,21.4355 C52.2309,20.2645 51.7529,19.1335 51.2009,18.0445 C48.7279,13.1625 44.7519,9.1865 39.8699,6.7135 C38.7809,6.1615 37.6509,5.6835 36.4789,5.2895 C34.3959,4.5885 32.1949,4.1495 29.9149,4.0025 C29.3769,3.9675 28.8379,3.9335 28.2909,3.9335 C27.7429,3.9335 27.2049,3.9675 26.6669,4.0025 C24.3859,4.1495 22.1849,4.5885 20.1009,5.2895 C18.9309,5.6845 17.7999,6.1615 16.7109,6.7135 C11.8289,9.1865 7.8519,13.1625 5.3799,18.0445 C4.8289,19.1335 4.3499,20.2645 3.9559,21.4355 C3.2549,23.5185 2.8169,25.7195 2.6689,27.9995 C2.6339,28.5375 2.5999,29.0765 2.5999,29.6235 C2.5999,30.1715 2.6339,30.7095 2.6689,31.2475 C2.8169,33.5285 3.2549,35.7285 3.9559,37.8125 C4.3499,38.9835 4.8279,40.1145 5.3799,41.2035 C7.8519,46.0855 11.8289,50.0615 16.7109,52.5345 C17.7999,53.0865 18.9309,53.5635 20.1009,53.9585 C22.1849,54.6585 24.3859,55.0985 26.6669,55.2455 C27.2049,55.2805 27.7429,55.3135 28.2909,55.3135 C28.8379,55.3135 29.3769,55.2805 29.9149,55.2455 C32.1949,55.0985 34.3959,54.6595 36.4789,53.9585 C37.6509,53.5635 38.7809,53.0865 39.8699,52.5345 C44.7519,50.0615 48.7279,46.0855 51.2009,41.2035 C51.7529,40.1145 52.2309,38.9835 52.6249,37.8125 C53.3259,35.7285 53.7649,33.5285 53.9119,31.2475 C53.9469,30.7095 53.9809,30.1715 53.9809,29.6235 C53.9809,29.0765 53.9469,28.5375 53.9119,27.9995" id="Fill-1" fill="#F8CBCE"></path>
                <g id="Group-47" transform="translate(0.000000, 0.314200)">
                    <path d="M33.4294,26.9763 C33.4294,23.0343 30.2334,19.8363 26.2904,19.8363 C22.3474,19.8363 19.1514,23.0343 19.1514,26.9763 C19.1514,30.9183 22.3474,34.1153 26.2904,34.1153 C30.2334,34.1153 33.4294,30.9183 33.4294,26.9763 Z" id="Stroke-3" stroke="#E94D59" stroke-width="1.2" stroke-linecap="round" stroke-linejoin="round"></path>
                    <path d="M24.6667,40.8689 L24.6667,28.5999 L12.3977,28.5999 C11.7297,33.4869 8.1047,37.4249 3.3797,38.5559 C5.8527,43.4379 9.8287,47.4139 14.7107,49.8869 C15.8417,45.1619 19.7797,41.5369 24.6667,40.8689 Z" id="Stroke-5" stroke="#E94D59" stroke-width="1.2" stroke-linecap="round" stroke-linejoin="round"></path>
                    <path d="M27.9148,13.0837 L27.9148,25.3527 L40.1828,25.3527 C40.8518,20.4657 44.4768,16.5277 49.2008,15.3967 C46.7278,10.5147 42.7518,6.5387 37.8698,4.0657 C36.7388,8.7907 32.8008,12.4157 27.9148,13.0837 Z" id="Stroke-7" stroke="#E94D59" stroke-width="1.2" stroke-linecap="round" stroke-linejoin="round"></path>
                    <path d="M40.1824,28.6003 L27.9144,28.6003 L27.9144,40.8693 C32.8004,41.5373 36.7394,45.1623 37.8694,49.8863 C42.7514,47.4133 46.7284,43.4383 49.2014,38.5563 C44.4764,37.4243 40.8514,33.4873 40.1824,28.6003 Z" id="Stroke-9" stroke="#E94D59" stroke-width="1.2" stroke-linecap="round" stroke-linejoin="round"></path>
                    <path d="M12.3982,25.3523 L24.6672,25.3523 L24.6672,13.0833 C19.7802,12.4153 15.8412,8.7903 14.7112,4.0663 C9.8292,6.5393 5.8522,10.5143 3.3792,15.3963 C8.1052,16.5273 11.7302,20.4653 12.3982,25.3523 Z" id="Stroke-11" stroke="#E94D59" stroke-width="1.2" stroke-linecap="round" stroke-linejoin="round"></path>
                    <path d="M40.1824,25.3523 L27.9144,25.3523 L27.9144,28.6003 L40.1824,28.6003 C40.1104,28.0683 40.0624,27.5283 40.0624,26.9763 C40.0624,26.4243 40.1104,25.8843 40.1824,25.3523 Z" id="Stroke-13" stroke="#E94D59" stroke-width="1.2" stroke-linecap="round" stroke-linejoin="round"></path>
                    <path d="M12.3982,25.3523 C12.4712,25.8843 12.5192,26.4243 12.5192,26.9763 C12.5192,27.5283 12.4712,28.0683 12.3982,28.6003 L24.6672,28.6003 L24.6672,25.3523 L12.3982,25.3523 Z" id="Stroke-15" stroke="#E94D59" stroke-width="1.2" stroke-linecap="round" stroke-linejoin="round"></path>
                    <path d="M24.6667,40.8689 C25.1977,40.7959 25.7377,40.7479 26.2907,40.7479 C26.8427,40.7479 27.3827,40.7959 27.9147,40.8689 L27.9147,28.5999 L24.6667,28.5999 L24.6667,40.8689 Z" id="Stroke-17" stroke="#E94D59" stroke-width="1.2" stroke-linecap="round" stroke-linejoin="round"></path>
                    <path d="M27.9148,13.0837 C27.3828,13.1567 26.8428,13.2047 26.2908,13.2047 C25.7378,13.2047 25.1978,13.1567 24.6668,13.0837 L24.6668,25.3527 L27.9148,25.3527 L27.9148,13.0837 Z" id="Stroke-19" stroke="#E94D59" stroke-width="1.2" stroke-linecap="round" stroke-linejoin="round"></path>
                    <mask id="mask-2" fill="white">
                        <use xlink:href="#path-1"></use>
                    </mask>
                    <g id="Clip-22"></g>
                    <polygon id="Stroke-21" stroke="#E94D59" stroke-width="1.2" stroke-linecap="round" stroke-linejoin="round" mask="url(#mask-2)" points="24.667 28.6 27.915 28.6 27.915 25.352 24.667 25.352"></polygon>
                    <path d="M24.6667,13.0837 L24.6667,9.4257 C21.2967,8.7557 18.6627,6.0517 18.1017,2.6427 C16.9307,3.0357 15.7997,3.5147 14.7107,4.0657 C15.8417,8.7907 19.7797,12.4157 24.6667,13.0837 Z" id="Stroke-23" stroke="#E94D59" stroke-width="1.2" stroke-linecap="round" stroke-linejoin="round" mask="url(#mask-2)"></path>
                    <path d="M27.9148,9.4255 L27.9148,13.0835 C32.8008,12.4155 36.7388,8.7905 37.8698,4.0665 C36.7808,3.5145 35.6498,3.0355 34.4788,2.6415 C33.9178,6.0515 31.2838,8.7555 27.9148,9.4255 Z" id="Stroke-24" stroke="#E94D59" stroke-width="1.2" stroke-linecap="round" stroke-linejoin="round" mask="url(#mask-2)"></path>
                    <path d="M27.9148,13.0837 L27.9148,9.4257 C27.3888,9.5307 26.8478,9.5947 26.2908,9.5947 C25.7328,9.5947 25.1928,9.5307 24.6668,9.4257 L24.6668,13.0837 C25.1978,13.1567 25.7378,13.2047 26.2908,13.2047 C26.8428,13.2047 27.3828,13.1567 27.9148,13.0837 Z" id="Stroke-25" stroke="#E94D59" stroke-width="1.2" stroke-linecap="round" stroke-linejoin="round" mask="url(#mask-2)"></path>
                    <path d="M24.6667,9.4255 L24.6667,1.3545 C22.3857,1.5025 20.1857,1.9415 18.1017,2.6425 C18.6627,6.0515 21.2967,8.7555 24.6667,9.4255 Z" id="Stroke-26" stroke="#E94D59" stroke-width="1.2" stroke-linecap="round" stroke-linejoin="round" mask="url(#mask-2)"></path>
                    <path d="M34.4792,2.6413 C32.3962,1.9413 30.1952,1.5023 27.9152,1.3543 L27.9152,9.4253 C31.2842,8.7553 33.9172,6.0513 34.4792,2.6413 Z" id="Stroke-27" stroke="#E94D59" stroke-width="1.2" stroke-linecap="round" stroke-linejoin="round" mask="url(#mask-2)"></path>
                    <path d="M26.2908,9.5945 C26.8478,9.5945 27.3888,9.5315 27.9148,9.4255 L27.9148,1.3545 C27.3758,1.3205 26.8378,1.2855 26.2908,1.2855 C25.7428,1.2855 25.2048,1.3205 24.6668,1.3545 L24.6668,9.4255 C25.1928,9.5315 25.7328,9.5945 26.2908,9.5945 Z" id="Stroke-28" stroke="#E94D59" stroke-width="1.2" stroke-linecap="round" stroke-linejoin="round" mask="url(#mask-2)"></path>
                    <path d="M40.1824,25.3523 L43.8404,25.3523 C44.5114,21.9823 47.2144,19.3483 50.6244,18.7883 C50.2304,17.6163 49.7524,16.4863 49.2014,15.3963 C44.4764,16.5283 40.8514,20.4653 40.1824,25.3523 Z" id="Stroke-29" stroke="#E94D59" stroke-width="1.2" stroke-linecap="round" stroke-linejoin="round" mask="url(#mask-2)"></path>
                    <path d="M43.8406,28.6003 L40.1826,28.6003 C40.8516,33.4873 44.4766,37.4243 49.2006,38.5563 C49.7526,37.4663 50.2316,36.3363 50.6246,35.1643 C47.2146,34.6043 44.5116,31.9703 43.8406,28.6003 Z" id="Stroke-30" stroke="#E94D59" stroke-width="1.2" stroke-linecap="round" stroke-linejoin="round" mask="url(#mask-2)"></path>
                    <path d="M40.0623,26.9763 C40.0623,27.5283 40.1103,28.0683 40.1823,28.6003 L43.8403,28.6003 C43.7363,28.0743 43.6713,27.5343 43.6713,26.9763 C43.6713,26.4183 43.7363,25.8783 43.8403,25.3523 L40.1823,25.3523 C40.1103,25.8843 40.0623,26.4243 40.0623,26.9763 Z" id="Stroke-31" stroke="#E94D59" stroke-width="1.2" stroke-linecap="round" stroke-linejoin="round" mask="url(#mask-2)"></path>
                    <path d="M43.8406,25.3523 L51.9116,25.3523 C51.7646,23.0713 51.3256,20.8713 50.6246,18.7883 C47.2146,19.3483 44.5116,21.9823 43.8406,25.3523 Z" id="Stroke-32" stroke="#E94D59" stroke-width="1.2" stroke-linecap="round" stroke-linejoin="round" mask="url(#mask-2)"></path>
                    <path d="M50.6248,35.1648 C51.3258,33.0818 51.7648,30.8818 51.9118,28.6008 L43.8408,28.6008 C44.5118,31.9708 47.2148,34.6038 50.6248,35.1648 Z" id="Stroke-33" stroke="#E94D59" stroke-width="1.2" stroke-linecap="round" stroke-linejoin="round" mask="url(#mask-2)"></path>
                    <path d="M51.9119,25.3523 L43.8409,25.3523 C43.7359,25.8783 43.6719,26.4183 43.6719,26.9763 C43.6719,27.5343 43.7359,28.0743 43.8409,28.6003 L51.9119,28.6003 C51.9469,28.0623 51.9809,27.5233 51.9809,26.9763 C51.9809,26.4293 51.9469,25.8903 51.9119,25.3523 Z" id="Stroke-34" stroke="#E94D59" stroke-width="1.2" stroke-linecap="round" stroke-linejoin="round" mask="url(#mask-2)"></path>
                    <path d="M24.6667,44.5271 L24.6667,40.8691 C19.7797,41.5371 15.8417,45.1621 14.7107,49.8861 C15.7997,50.4381 16.9307,50.9171 18.1017,51.3101 C18.6627,47.9011 21.2967,45.1971 24.6667,44.5271 Z" id="Stroke-35" stroke="#E94D59" stroke-width="1.2" stroke-linecap="round" stroke-linejoin="round" mask="url(#mask-2)"></path>
                    <path d="M27.9148,40.8689 L27.9148,44.5269 C31.2838,45.1969 33.9178,47.9009 34.4788,51.3099 C35.6498,50.9169 36.7808,50.4379 37.8698,49.8869 C36.7388,45.1619 32.8008,41.5369 27.9148,40.8689 Z" id="Stroke-36" stroke="#E94D59" stroke-width="1.2" stroke-linecap="round" stroke-linejoin="round" mask="url(#mask-2)"></path>
                    <path d="M24.6667,40.8689 L24.6667,44.5269 C25.1927,44.4219 25.7327,44.3579 26.2907,44.3579 C26.8477,44.3579 27.3887,44.4219 27.9147,44.5269 L27.9147,40.8689 C27.3827,40.7959 26.8427,40.7479 26.2907,40.7479 C25.7377,40.7479 25.1977,40.7959 24.6667,40.8689 Z" id="Stroke-37" stroke="#E94D59" stroke-width="1.2" stroke-linecap="round" stroke-linejoin="round" mask="url(#mask-2)"></path>
                    <path d="M18.1013,51.3103 C20.1853,52.0113 22.3853,52.4503 24.6663,52.5983 L24.6663,44.5273 C21.2963,45.1973 18.6633,47.9013 18.1013,51.3103 Z" id="Stroke-38" stroke="#E94D59" stroke-width="1.2" stroke-linecap="round" stroke-linejoin="round" mask="url(#mask-2)"></path>
                    <path d="M27.9148,44.5271 L27.9148,52.5981 C30.1948,52.4501 32.3958,52.0111 34.4788,51.3101 C33.9178,47.9011 31.2838,45.1971 27.9148,44.5271 Z" id="Stroke-39" stroke="#E94D59" stroke-width="1.2" stroke-linecap="round" stroke-linejoin="round" mask="url(#mask-2)"></path>
                    <path d="M26.2908,44.3581 C25.7328,44.3581 25.1928,44.4211 24.6668,44.5271 L24.6668,52.5981 C25.2048,52.6321 25.7428,52.6671 26.2908,52.6671 C26.8378,52.6671 27.3758,52.6321 27.9148,52.5981 L27.9148,44.5271 C27.3888,44.4211 26.8478,44.3581 26.2908,44.3581 Z" id="Stroke-40" stroke="#E94D59" stroke-width="1.2" stroke-linecap="round" stroke-linejoin="round" mask="url(#mask-2)"></path>
                    <path d="M12.3982,28.6003 L8.7402,28.6003 C8.0692,31.9703 5.3662,34.6043 1.9562,35.1643 C2.3502,36.3363 2.8282,37.4663 3.3792,38.5563 C8.1052,37.4243 11.7302,33.4873 12.3982,28.6003 Z" id="Stroke-41" stroke="#E94D59" stroke-width="1.2" stroke-linecap="round" stroke-linejoin="round" mask="url(#mask-2)"></path>
                    <path d="M8.74,25.3523 L12.398,25.3523 C11.73,20.4653 8.105,16.5273 3.38,15.3963 C2.828,16.4863 2.35,17.6163 1.956,18.7883 C5.366,19.3483 8.069,21.9823 8.74,25.3523 Z" id="Stroke-42" stroke="#E94D59" stroke-width="1.2" stroke-linecap="round" stroke-linejoin="round" mask="url(#mask-2)"></path>
                    <path d="M12.3982,25.3523 L8.7402,25.3523 C8.8442,25.8783 8.9092,26.4183 8.9092,26.9763 C8.9092,27.5343 8.8442,28.0743 8.7402,28.6003 L12.3982,28.6003 C12.4712,28.0683 12.5192,27.5283 12.5192,26.9763 C12.5192,26.4243 12.4712,25.8843 12.3982,25.3523 Z" id="Stroke-43" stroke="#E94D59" stroke-width="1.2" stroke-linecap="round" stroke-linejoin="round" mask="url(#mask-2)"></path>
                    <path d="M1.9558,18.7878 C1.2548,20.8708 0.8158,23.0708 0.6688,25.3518 L8.7398,25.3518 C8.0688,21.9818 5.3658,19.3488 1.9558,18.7878 Z" id="Stroke-44" stroke="#E94D59" stroke-width="1.2" stroke-linecap="round" stroke-linejoin="round" mask="url(#mask-2)"></path>
                    <path d="M8.74,28.6003 L0.669,28.6003 C0.816,30.8813 1.255,33.0813 1.956,35.1643 C5.366,34.6043 8.069,31.9703 8.74,28.6003 Z" id="Stroke-45" stroke="#E94D59" stroke-width="1.2" stroke-linecap="round" stroke-linejoin="round" mask="url(#mask-2)"></path>
                    <path d="M8.9089,26.9763 C8.9089,26.4183 8.8449,25.8783 8.7399,25.3523 L0.6689,25.3523 C0.6339,25.8903 0.5999,26.4293 0.5999,26.9763 C0.5999,27.5233 0.6339,28.0623 0.6689,28.6003 L8.7399,28.6003 C8.8449,28.0743 8.9089,27.5343 8.9089,26.9763 Z" id="Stroke-46" stroke="#E94D59" stroke-width="1.2" stroke-linecap="round" stroke-linejoin="round" mask="url(#mask-2)"></path>
                </g>
            </g>
        </g>
    </g>
</svg>