<?xml version="1.0" encoding="UTF-8" standalone="no"?>
<svg width="110px" height="110px" viewBox="0 0 110 110" version="1.1" xmlns="http://www.w3.org/2000/svg" xmlns:xlink="http://www.w3.org/1999/xlink">
    <!-- Generator: Sketch 41.2 (35397) - http://www.bohemiancoding.com/sketch -->
    <title>Artboard Copy 16</title>
    <desc>Created with Sketch.</desc>
    <defs>
        <polygon id="path-1" points="13.014 13.2307 13.014 0.9187 0.7011 0.9187 0.7011 13.2307 13.014 13.2307"></polygon>
    </defs>
    <g id="Welcome" stroke="none" stroke-width="1" fill="none" fill-rule="evenodd">
        <g id="Artboard-Copy-16">
            <g id="Page-1" transform="translate(22.000000, 21.000000)">
                <g id="Group-14" transform="translate(4.000000, 2.952100)">
                    <path d="M11.0785,3.9126 C11.0785,2.2936 9.7665,0.9806 8.1465,0.9806 C6.5285,0.9806 5.2165,2.2936 5.2165,3.9126 C5.2165,5.5316 6.5285,6.8446 8.1465,6.8446 C9.7665,6.8446 11.0785,5.5316 11.0785,3.9126" id="Fill-1" fill="#F8CBCE"></path>
                    <path d="M13.8637,40.2622 C8.4807,40.2622 3.7097,36.8982 0.4307,30.7892 L3.5297,29.1252 C5.0567,31.9712 8.4307,36.7442 13.8637,36.7442 L13.8637,40.2622 Z" id="Fill-3" fill="#F8CBCE"></path>
                    <path d="M16.6479,3.9126 C16.6479,2.2936 17.9599,0.9806 19.5799,0.9806 C21.1989,0.9806 22.5109,2.2936 22.5109,3.9126 C22.5109,5.5316 21.1989,6.8446 19.5799,6.8446 C17.9599,6.8446 16.6479,5.5316 16.6479,3.9126" id="Fill-5" fill="#F8CBCE"></path>
                    <path d="M13.8637,40.2622 C19.2467,40.2622 24.0167,36.8982 27.2967,30.7892 L24.1977,29.1252 C22.6697,31.9712 19.2967,36.7442 13.8637,36.7442 L13.8637,40.2622 Z" id="Fill-7" fill="#F8CBCE"></path>
                    <g id="Group-11" transform="translate(47.000000, 17.000000)">
                        <mask id="mask-2" fill="white">
                            <use xlink:href="#path-1"></use>
                        </mask>
                        <g id="Clip-10"></g>
                        <path d="M13.0141,7.0747 C13.0141,3.6747 10.2571,0.9187 6.8581,0.9187 C3.4571,0.9187 0.7011,3.6747 0.7011,7.0747 C0.7011,10.4737 3.4571,13.2307 6.8581,13.2307 C10.2571,13.2307 13.0141,10.4737 13.0141,7.0747" id="Fill-9" fill="#F8CBCE" mask="url(#mask-2)"></path>
                    </g>
                    <path d="M56.9555,24.0747 C56.9555,22.3637 55.5685,20.9767 53.8575,20.9767 C52.1465,20.9767 50.7605,22.3637 50.7605,24.0747 C50.7605,25.7857 52.1465,27.1727 53.8575,27.1727 C55.5685,27.1727 56.9555,25.7857 56.9555,24.0747" id="Fill-12" fill="#F8CBCE"></path>
                </g>
                <g id="Group-41" transform="translate(0.000000, 0.952100)" stroke="#E94D59" stroke-width="1.2" stroke-linecap="round" stroke-linejoin="round">
                    <path d="M13.0785,3.5796 C13.0785,1.9606 11.7665,0.6476 10.1465,0.6476 C8.5285,0.6476 7.2165,1.9606 7.2165,3.5796 C7.2165,5.1976 8.5285,6.5106 10.1465,6.5106 C11.7665,6.5106 13.0785,5.1976 13.0785,3.5796 Z" id="Stroke-15"></path>
                    <path d="M7.2768,4.1783 C4.4648,5.2273 0.5998,8.1103 0.5998,16.0373 C0.5998,20.6053 1.7998,25.5623 3.9808,29.6243" id="Stroke-17"></path>
                    <path d="M15.8637,39.9292 C10.4807,39.9292 5.7097,36.5652 2.4307,30.4562 L5.5297,28.7912 C7.0567,31.6382 10.4307,36.4112 15.8637,36.4112 L15.8637,39.9292 Z" id="Stroke-19"></path>
                    <path d="M18.6479,3.5796 C18.6479,1.9606 19.9599,0.6476 21.5799,0.6476 C23.1989,0.6476 24.5109,1.9606 24.5109,3.5796 C24.5109,5.1976 23.1989,6.5106 21.5799,6.5106 C19.9599,6.5106 18.6479,5.1976 18.6479,3.5796 Z" id="Stroke-21"></path>
                    <path d="M24.4496,4.1783 C27.2616,5.2273 31.1276,8.1103 31.1276,16.0373 C31.1276,20.6053 29.9276,25.5623 27.7466,29.6243" id="Stroke-23"></path>
                    <path d="M15.8637,39.9292 C21.2467,39.9292 26.0167,36.5652 29.2967,30.4562 L26.1977,28.7912 C24.6697,31.6382 21.2967,36.4112 15.8637,36.4112 L15.8637,39.9292 Z" id="Stroke-25"></path>
                    <path d="M15.8637,54.1138 C15.8637,60.3468 20.9167,65.3998 27.1497,65.3998 C33.3827,65.3998 38.4347,60.3468 38.4347,54.1138" id="Stroke-27"></path>
                    <path d="M15.8637,39.9292 L15.8637,54.1142" id="Stroke-29"></path>
                    <path d="M43.4916,23.7408 C40.6996,23.7408 38.4346,26.0058 38.4346,28.7988" id="Stroke-31"></path>
                    <path d="M38.435,54.1138 L38.435,28.7988" id="Stroke-33"></path>
                    <path d="M43.4916,23.7408 L49.1356,23.7408" id="Stroke-35"></path>
                    <path d="M62.0141,23.7408 C62.0141,20.3418 59.2571,17.5858 55.8581,17.5858 C52.4571,17.5858 49.7011,20.3418 49.7011,23.7408 C49.7011,27.1408 52.4571,29.8968 55.8581,29.8968 C59.2571,29.8968 62.0141,27.1408 62.0141,23.7408 Z" id="Stroke-37"></path>
                    <path d="M58.9555,23.7408 C58.9555,22.0308 57.5685,20.6438 55.8575,20.6438 C54.1465,20.6438 52.7605,22.0308 52.7605,23.7408 C52.7605,25.4518 54.1465,26.8388 55.8575,26.8388 C57.5685,26.8388 58.9555,25.4518 58.9555,23.7408 Z" id="Stroke-39"></path>
                </g>
            </g>
        </g>
    </g>
</svg>