<?xml version="1.0" encoding="UTF-8" standalone="no"?>
<svg width="110px" height="110px" viewBox="0 0 110 110" version="1.1" xmlns="http://www.w3.org/2000/svg" xmlns:xlink="http://www.w3.org/1999/xlink">
    <!-- Generator: Sketch 41.2 (35397) - http://www.bohemiancoding.com/sketch -->
    <title>Artboard Copy 17</title>
    <desc>Created with Sketch.</desc>
    <defs>
        <polygon id="path-1" points="0.5723 45 59.8893 45 59.8893 0.9322 0.5723 0.9322"></polygon>
    </defs>
    <g id="Welcome" stroke="none" stroke-width="1" fill="none" fill-rule="evenodd">
        <g id="Artboard-Copy-17">
            <g id="Page-1" transform="translate(24.000000, 31.000000)">
                <g id="Group-3" transform="translate(2.000000, 2.001700)">
                    <mask id="mask-2" fill="white">
                        <use xlink:href="#path-1"></use>
                    </mask>
                    <g id="Clip-2"></g>
                    <path d="M54.3133,28.7922 C57.8163,26.9762 59.8893,24.7502 59.8893,22.3422 C59.8893,20.5442 59.1093,17.4392 56.1073,15.6132 C49.0093,11.2962 30.2313,0.9322 30.2313,0.9322 C30.2313,0.9322 11.4533,11.2962 4.3553,15.6132 C1.3523,17.4392 0.5723,20.5442 0.5723,22.3422 C0.5723,24.7502 2.6453,26.9762 6.1483,28.7922 L6.1483,30.3362 C6.1483,30.4852 6.1953,30.6312 6.2373,30.7772 C5.0103,30.9872 4.0753,32.0502 4.0753,33.3362 C4.0753,34.4382 4.7613,35.3742 5.7283,35.7542 L5.7283,35.7582 L28.0763,44.5862 L28.0793,44.5822 C28.7253,44.8492 29.4323,45.0002 30.1743,45.0002 C30.1843,45.0002 30.1933,44.9972 30.2033,44.9972 C30.2123,44.9972 30.2213,45.0002 30.2313,45.0002 C30.9743,45.0002 31.6803,44.8492 32.3283,44.5822 L32.3313,44.5862 L54.6773,35.7582 L54.6773,35.7542 C55.6443,35.3742 56.3313,34.4382 56.3313,33.3362 C56.3313,32.0792 55.4393,31.0292 54.2523,30.7872 L54.2233,30.7872 C54.2673,30.6382 54.3133,30.4882 54.3133,30.3362 L54.3133,28.7922 Z" id="Fill-1" fill="#F8CBCE" mask="url(#mask-2)"></path>
                </g>
                <g id="Group-14" transform="translate(0.000000, 0.001700)" stroke="#E94D59" stroke-width="1.2" stroke-linejoin="round">
                    <path d="M54.3416,28.2229 L54.3416,30.0029 C54.3416,33.3419 43.5596,36.0489 30.2586,36.0489 C16.9586,36.0489 6.1766,33.3419 6.1766,30.0029 L6.1766,28.1759" id="Stroke-4"></path>
                    <path d="M54.2205,28.5256 C57.8005,26.6976 59.9175,24.4456 59.9175,22.0086 C59.9175,20.2116 59.1375,17.1066 56.1345,15.2806 C49.0365,10.9626 30.2585,0.5976 30.2585,0.5976 C30.2585,0.5976 11.4805,10.9626 4.3825,15.2806 C1.3805,17.1066 0.6005,20.2116 0.6005,22.0086 C0.6005,24.4456 2.7175,26.6976 6.2965,28.5256 C12.8095,25.3076 21.1575,23.3746 30.2585,23.3746 C39.3605,23.3746 47.7075,25.3076 54.2205,28.5256 Z" id="Stroke-6"></path>
                    <path d="M54.2205,28.5256 C47.7075,25.3076 39.3605,23.3746 30.2585,23.3746 C21.1575,23.3746 12.8095,25.3076 6.2965,28.5256 C11.6915,31.2806 20.4115,33.0726 30.2585,33.0726 C40.1055,33.0726 48.8265,31.2806 54.2205,28.5256 Z" id="Stroke-8"></path>
                    <path d="M6.2967,30.4328 C5.0537,30.6288 4.1037,31.7048 4.1037,33.0028 C4.1037,34.1048 4.7897,35.0408 5.7567,35.4198 L5.7567,35.4248 L28.1037,44.2528 L28.1067,44.2488 C28.7537,44.5148 29.4597,44.6658 30.2027,44.6658 C30.2127,44.6658 30.2217,44.6638 30.2317,44.6638 C30.2397,44.6638 30.2497,44.6658 30.2587,44.6658 C31.0017,44.6658 31.7087,44.5148 32.3557,44.2488 L32.3587,44.2528 L54.7057,35.4248 L54.7057,35.4198 C55.6717,35.0408 56.3597,34.1048 56.3597,33.0028 C56.3597,31.7448 55.4667,30.6968 54.2807,30.4538" id="Stroke-10"></path>
                    <path d="M32.1385,28.176 C32.1385,27.123 31.2845,26.269 30.2315,26.269 C29.1775,26.269 28.3245,27.123 28.3245,28.176 C28.3245,29.23 29.1775,30.083 30.2315,30.083 C31.2845,30.083 32.1385,29.23 32.1385,28.176 Z" id="Stroke-12"></path>
                </g>
            </g>
        </g>
    </g>
</svg>