<?xml version="1.0" encoding="UTF-8" standalone="no"?>
<svg width="110px" height="110px" viewBox="0 0 110 110" version="1.1" xmlns="http://www.w3.org/2000/svg" xmlns:xlink="http://www.w3.org/1999/xlink">
    <!-- Generator: Sketch 41.2 (35397) - http://www.bohemiancoding.com/sketch -->
    <title>Artboard Copy 19</title>
    <desc>Created with Sketch.</desc>
    <defs>
        <polygon id="path-1" points="0 57 72.38 57 72.38 0.038 0 0.038"></polygon>
        <polygon id="path-3" points="0 57 72.38 57 72.38 0.038 0 0.038"></polygon>
    </defs>
    <g id="Welcome" stroke="none" stroke-width="1" fill="none" fill-rule="evenodd">
        <g id="Artboard-Copy-19">
            <g id="Page-1" transform="translate(18.000000, 26.000000)">
                <g id="Group-15" transform="translate(0.000000, 0.961700)">
                    <path d="M61.6541,10.3375 C61.6541,9.0685 60.6271,8.0415 59.3581,8.0415 C58.0911,8.0415 57.0631,9.0685 57.0631,10.3375 C57.0631,11.6055 58.0911,12.6325 59.3581,12.6325 C60.6271,12.6325 61.6541,11.6055 61.6541,10.3375 Z" id="Fill-1" fill="#F8CBCE"></path>
                    <mask id="mask-2" fill="white">
                        <use xlink:href="#path-1"></use>
                    </mask>
                    <g id="Clip-4"></g>
                    <polygon id="Fill-3" fill="#F8CBCE" mask="url(#mask-2)" points="5.9 49.711 42.979 49.711 42.979 17.61 5.9 17.61"></polygon>
                    <path d="M42.9793,17.6343 C42.9793,14.6233 40.5393,12.1833 37.5283,12.1833 L11.3513,12.1833 C8.3413,12.1833 5.9003,14.6233 5.9003,17.6343 L16.8023,17.6343 C16.8023,17.6253 16.8003,17.6183 16.8003,17.6103 L32.0803,17.6103 C32.0803,17.6183 32.0773,17.6253 32.0773,17.6343 L42.9793,17.6343 Z" id="Fill-5" fill="#F8CBCE" mask="url(#mask-2)"></path>
                    <path d="M5.9002,32.1148 L42.9792,32.1148" id="Fill-6" fill="#F8CBCE" mask="url(#mask-2)"></path>
                    <path d="M7.4685,49.7105 L7.4685,53.3385 C7.4685,55.3605 9.1085,56.9995 11.1305,56.9995 C13.1535,56.9995 14.7925,55.3605 14.7925,53.3385 L14.7925,49.7105 L7.4685,49.7105 Z" id="Fill-7" fill="#F8CBCE" mask="url(#mask-2)"></path>
                    <path d="M34.0867,49.7105 L34.0867,53.3385 C34.0867,55.3605 35.7267,56.9995 37.7487,56.9995 C39.7717,56.9995 41.4107,55.3605 41.4107,53.3385 L41.4107,49.7105 L34.0867,49.7105 Z" id="Fill-8" fill="#F8CBCE" mask="url(#mask-2)"></path>
                    <path d="M11.1306,36.607 L5.9006,36.607 L5.9006,45.648 L11.1306,45.648 C13.6276,45.648 15.6516,43.624 15.6516,41.128 C15.6516,38.63 13.6276,36.607 11.1306,36.607" id="Fill-9" fill="#F8CBCE" mask="url(#mask-2)"></path>
                    <path d="M37.7488,36.607 L42.9788,36.607 L42.9788,45.648 L37.7488,45.648 C35.2518,45.648 33.2278,43.624 33.2278,41.128 C33.2278,38.63 35.2518,36.607 37.7488,36.607" id="Fill-10" fill="#F8CBCE" mask="url(#mask-2)"></path>
                    <path d="M19.7293,39.0103 L28.8283,39.0103" id="Fill-11" fill="#F8CBCE" mask="url(#mask-2)"></path>
                    <path d="M19.7293,43.0152 L28.8283,43.0152" id="Fill-12" fill="#F8CBCE" mask="url(#mask-2)"></path>
                    <polygon id="Fill-13" fill="#F8CBCE" mask="url(#mask-2)" points="5.902 22.095 42.979 22.095 42.979 17.61 5.902 17.61"></polygon>
                    <path d="M24.2781,22.0953 L24.2781,32.1153" id="Fill-14" fill="#F8CBCE" mask="url(#mask-2)"></path>
                </g>
                <polygon id="Stroke-16" stroke="#E94D59" stroke-width="1.2" stroke-linejoin="round" points="3.9 48.3727 40.979 48.3727 40.979 16.2717 3.9 16.2717"></polygon>
                <g id="Group-52" transform="translate(0.000000, 0.961700)">
                    <path d="M40.9793,15.3345 C40.9793,12.3235 38.5393,9.8835 35.5283,9.8835 L9.3513,9.8835 C6.3413,9.8835 3.9003,12.3235 3.9003,15.3345 L14.8023,15.3345 C14.8023,15.3255 14.8003,15.3175 14.8003,15.3105 L30.0803,15.3105 C30.0803,15.3175 30.0773,15.3255 30.0773,15.3345 L40.9793,15.3345 Z" id="Stroke-17" stroke="#E94D59" stroke-width="1.2" stroke-linejoin="round"></path>
                    <path d="M3.9002,29.815 L40.9792,29.815" id="Stroke-19" stroke="#E94D59" stroke-width="1.2" stroke-linejoin="round"></path>
                    <path d="M5.4685,47.4107 L5.4685,51.0377 C5.4685,53.0597 7.1085,54.6997 9.1305,54.6997 C11.1535,54.6997 12.7925,53.0597 12.7925,51.0377 L12.7925,47.4107 L5.4685,47.4107 Z" id="Stroke-21" stroke="#E94D59" stroke-width="1.2" stroke-linejoin="round"></path>
                    <path d="M32.0867,47.4107 L32.0867,51.0377 C32.0867,53.0597 33.7267,54.6997 35.7487,54.6997 C37.7717,54.6997 39.4107,53.0597 39.4107,51.0377 L39.4107,47.4107 L32.0867,47.4107 Z" id="Stroke-23" stroke="#E94D59" stroke-width="1.2" stroke-linejoin="round"></path>
                    <path d="M9.1306,34.3072 L3.9006,34.3072 L3.9006,43.3472 L9.1306,43.3472 C11.6276,43.3472 13.6516,41.3242 13.6516,38.8282 C13.6516,36.3302 11.6276,34.3072 9.1306,34.3072 Z" id="Stroke-25" stroke="#E94D59" stroke-width="1.2" stroke-linejoin="round"></path>
                    <path d="M35.7488,34.3072 L40.9788,34.3072 L40.9788,43.3472 L35.7488,43.3472 C33.2518,43.3472 31.2278,41.3242 31.2278,38.8282 C31.2278,36.3302 33.2518,34.3072 35.7488,34.3072 Z" id="Stroke-27" stroke="#E94D59" stroke-width="1.2" stroke-linejoin="round"></path>
                    <path d="M17.7293,36.7105 L26.8283,36.7105" id="Stroke-29" stroke="#E94D59" stroke-width="1.2" stroke-linejoin="round"></path>
                    <path d="M17.7293,40.7154 L26.8283,40.7154" id="Stroke-31" stroke="#E94D59" stroke-width="1.2" stroke-linejoin="round"></path>
                    <polyline id="Stroke-33" stroke="#E94D59" stroke-width="1.2" stroke-linejoin="round" points="40.9793 20.9752 44.2803 20.9752 44.2803 28.1272"></polyline>
                    <polyline id="Stroke-35" stroke="#E94D59" stroke-width="1.2" stroke-linejoin="round" points="3.9002 20.9752 0.6002 20.9752 0.6002 28.1272"></polyline>
                    <mask id="mask-4" fill="white">
                        <use xlink:href="#path-3"></use>
                    </mask>
                    <g id="Clip-38"></g>
                    <polygon id="Stroke-37" stroke="#E94D59" stroke-width="1.2" stroke-linejoin="round" mask="url(#mask-4)" points="3.902 19.794 40.979 19.794 40.979 15.31 3.902 15.31"></polygon>
                    <path d="M22.2781,19.7945 L22.2781,29.8155" id="Stroke-39" stroke="#E94D59" stroke-width="1.2" stroke-linejoin="round" mask="url(#mask-4)"></path>
                    <polygon id="Stroke-40" stroke="#E94D59" stroke-width="1.2" stroke-linejoin="round" mask="url(#mask-4)" points="57.3582 10.4322 49.0702 39.0572 65.6472 39.0572"></polygon>
                    <path d="M59.6697,7.9976 C59.6697,6.7296 58.6427,5.7026 57.3737,5.7026 C56.1067,5.7026 55.0787,6.7296 55.0787,7.9976 C55.0787,9.2666 56.1067,10.2936 57.3737,10.2936 C58.6427,10.2936 59.6697,9.2666 59.6697,7.9976 Z" id="Stroke-41" stroke="#E94D59" stroke-width="1.2" mask="url(#mask-4)"></path>
                    <path d="M62.9021,11.4576 C63.5311,10.4546 63.8951,9.2696 63.8951,7.9976 C63.8951,6.7316 63.5341,5.5506 62.9101,4.5496" id="Stroke-42" stroke="#E94D59" stroke-width="1.2" mask="url(#mask-4)"></path>
                    <path d="M66.3386,13.608 C67.3586,11.982 67.9476,10.059 67.9476,7.998 C67.9476,5.936 67.3586,4.012 66.3376,2.386" id="Stroke-43" stroke="#E94D59" stroke-width="1.2" mask="url(#mask-4)"></path>
                    <path d="M69.5877,15.6412 C70.9777,13.4262 71.7797,10.8062 71.7797,7.9972 C71.7797,5.1912 70.9777,2.5722 69.5897,0.3572" id="Stroke-44" stroke="#E94D59" stroke-width="1.2" mask="url(#mask-4)"></path>
                    <path d="M51.8142,11.4576 C51.1852,10.4546 50.8222,9.2696 50.8222,7.9976 C50.8222,6.7316 51.1822,5.5506 51.8072,4.5496" id="Stroke-45" stroke="#E94D59" stroke-width="1.2" mask="url(#mask-4)"></path>
                    <path d="M48.3777,13.608 C47.3577,11.982 46.7687,10.059 46.7687,7.998 C46.7687,5.936 47.3587,4.012 48.3787,2.386" id="Stroke-46" stroke="#E94D59" stroke-width="1.2" mask="url(#mask-4)"></path>
                    <path d="M45.1287,15.6412 C43.7397,13.4262 42.9367,10.8062 42.9367,7.9972 C42.9367,5.1912 43.7387,2.5722 45.1277,0.3572" id="Stroke-47" stroke="#E94D59" stroke-width="1.2" mask="url(#mask-4)"></path>
                    <path d="M65.6472,39.0572 L52.2352,28.1272" id="Stroke-48" stroke="#E94D59" stroke-width="1.2" mask="url(#mask-4)"></path>
                    <path d="M52.2351,28.1275 L60.4111,20.9755" id="Stroke-49" stroke="#E94D59" stroke-width="1.2" mask="url(#mask-4)"></path>
                    <path d="M49.0701,39.0572 L62.4821,28.1272" id="Stroke-50" stroke="#E94D59" stroke-width="1.2" mask="url(#mask-4)"></path>
                    <path d="M62.4822,28.1275 L54.3062,20.9755" id="Stroke-51" stroke="#E94D59" stroke-width="1.2" mask="url(#mask-4)"></path>
                </g>
            </g>
        </g>
    </g>
</svg>