<?xml version="1.0" encoding="UTF-8" standalone="no"?>
<svg width="110px" height="110px" viewBox="0 0 110 110" version="1.1" xmlns="http://www.w3.org/2000/svg" xmlns:xlink="http://www.w3.org/1999/xlink">
    <!-- Generator: Sketch 41.2 (35397) - http://www.bohemiancoding.com/sketch -->
    <title>Artboard Copy 18</title>
    <desc>Created with Sketch.</desc>
    <defs>
        <polygon id="path-1" points="0 45.1527 55.502 45.1527 55.502 -0.0003 0 -0.0003"></polygon>
    </defs>
    <g id="Welcome" stroke="none" stroke-width="1" fill="none" fill-rule="evenodd">
        <g id="Artboard-Copy-18">
            <g id="Page-1" transform="translate(27.000000, 32.000000)">
                <path d="M37.2256,10.6494 C37.2256,6.3764 33.7616,2.9114 29.4886,2.9114 C25.2146,2.9114 21.7506,6.3764 21.7506,10.6494 L3.4746,10.6494 L3.4746,45.1524 L55.5016,45.1524 L55.5016,10.6494 L37.2256,10.6494 Z" id="Fill-1" fill="#F8CBCE"></path>
                <mask id="mask-2" fill="white">
                    <use xlink:href="#path-1"></use>
                </mask>
                <g id="Clip-4"></g>
                <path d="M1.199,42.2407 L52.027,42.2407 L52.027,8.9357 L1.199,8.9357 L1.199,42.2407 Z M52.627,43.4407 L0.6,43.4407 C0.269,43.4407 0,43.1717 0,42.8407 L0,8.3367 C0,8.0057 0.269,7.7377 0.6,7.7377 L52.627,7.7377 C52.958,7.7377 53.227,8.0057 53.227,8.3367 L53.227,42.8407 C53.227,43.1717 52.958,43.4407 52.627,43.4407 L52.627,43.4407 Z" id="Fill-3" fill="#E94D59" mask="url(#mask-2)"></path>
                <path d="M34.3506,8.9365 C34.0196,8.9365 33.7506,8.6675 33.7506,8.3365 C33.7506,4.4015 30.5486,1.1995 26.6136,1.1995 C22.6776,1.1995 19.4756,4.4015 19.4756,8.3365 C19.4756,8.6675 19.2066,8.9365 18.8756,8.9365 C18.5446,8.9365 18.2766,8.6675 18.2766,8.3365 C18.2766,3.7395 22.0156,-0.0005 26.6136,-0.0005 C31.2106,-0.0005 34.9506,3.7395 34.9506,8.3365 C34.9506,8.6675 34.6816,8.9365 34.3506,8.9365" id="Fill-5" fill="#E94D59" mask="url(#mask-2)"></path>
                <path d="M52.627,23.2666 L0.6,23.2666 C0.269,23.2666 0,22.9976 0,22.6666 C0,22.3356 0.269,22.0676 0.6,22.0676 L52.627,22.0676 C52.958,22.0676 53.227,22.3356 53.227,22.6666 C53.227,22.9976 52.958,23.2666 52.627,23.2666" id="Fill-6" fill="#E94D59" mask="url(#mask-2)"></path>
                <path d="M12.902,25.5677 L16.578,25.5677 L16.578,20.3917 L12.902,20.3917 L12.902,25.5677 Z M17.178,26.7667 L12.303,26.7667 C11.972,26.7667 11.703,26.4977 11.703,26.1667 L11.703,19.7917 C11.703,19.4607 11.972,19.1927 12.303,19.1927 L17.178,19.1927 C17.509,19.1927 17.777,19.4607 17.777,19.7917 L17.777,26.1667 C17.777,26.4977 17.509,26.7667 17.178,26.7667 L17.178,26.7667 Z" id="Fill-7" fill="#E94D59" mask="url(#mask-2)"></path>
                <path d="M36.648,25.5677 L40.324,25.5677 L40.324,20.3917 L36.648,20.3917 L36.648,25.5677 Z M40.924,26.7667 L36.049,26.7667 C35.718,26.7667 35.449,26.4977 35.449,26.1667 L35.449,19.7917 C35.449,19.4607 35.718,19.1927 36.049,19.1927 L40.924,19.1927 C41.255,19.1927 41.523,19.4607 41.523,19.7917 L41.523,26.1667 C41.523,26.4977 41.255,26.7667 40.924,26.7667 L40.924,26.7667 Z" id="Fill-8" fill="#E94D59" mask="url(#mask-2)"></path>
            </g>
        </g>
    </g>
</svg>