<?xml version="1.0" encoding="UTF-8" standalone="no"?>
<svg width="110px" height="110px" viewBox="0 0 110 110" version="1.1" xmlns="http://www.w3.org/2000/svg" xmlns:xlink="http://www.w3.org/1999/xlink">
    <!-- Generator: Sketch 41.2 (35397) - http://www.bohemiancoding.com/sketch -->
    <title>Artboard Copy 20</title>
    <desc>Created with Sketch.</desc>
    <defs>
        <polygon id="path-1" points="0 38 87.525 38 87.525 0.265 0 0.265"></polygon>
    </defs>
    <g id="Welcome" stroke="none" stroke-width="1" fill="none" fill-rule="evenodd">
        <g id="Artboard-Copy-20">
            <g id="Page-1" transform="translate(11.000000, 35.000000)">
                <polygon id="Fill-1" fill="#F8CBCE" points="7.6599 3.9337 7.6599 38.7347 22.9409 38.7347 38.2219 38.7347 38.2219 16.1807 22.9409 16.1807 22.9409 3.9337"></polygon>
                <polygon id="Fill-2" fill="#F8CBCE" points="73.262 38.7349 83.866 38.7349 83.866 7.6659 73.262 7.6659"></polygon>
                <polygon id="Fill-3" fill="#F8CBCE" points="40.8537 31.1947 40.9297 31.1947 40.9297 38.7347 48.6597 38.7347 48.6597 31.1947 44.7557 26.4397"></polygon>
                <polygon id="Fill-4" fill="#F8CBCE" points="48.6594 31.1947 48.7354 31.1947 48.7354 38.7347 56.4644 38.7347 56.4644 31.1947 52.5614 26.4397"></polygon>
                <polygon id="Fill-5" fill="#F8CBCE" points="56.4642 31.1947 56.5402 31.1947 56.5402 38.7347 64.2702 38.7347 64.2702 31.1947 60.3662 26.4397"></polygon>
                <path d="M67.9438,30.5488 C69.9728,30.5488 71.6188,28.9038 71.6188,26.8738 C71.6188,26.0638 71.3468,25.3208 70.9028,24.7128 C71.3468,24.1058 71.6188,23.3628 71.6188,22.5518 C71.6188,20.5238 69.9728,18.8778 67.9438,18.8778 C65.9148,18.8778 64.2698,20.5238 64.2698,22.5518 C64.2698,23.3628 64.5408,24.1058 64.9848,24.7128 C64.5408,25.3208 64.2698,26.0638 64.2698,26.8738 C64.2698,28.9038 65.9148,30.5488 67.9438,30.5488" id="Fill-6" fill="#F8CBCE"></path>
                <g id="Group-13" transform="translate(0.000000, 4.734900)" stroke-width="1.2" stroke="#E94D59">
                    <polygon id="Stroke-8" points="20.919 31.667 36.2 31.667 36.2 9.112 20.919 9.112"></polygon>
                    <polygon id="Stroke-10" points="71.239 31.666 81.843 31.666 81.843 0.597 71.239 0.597"></polygon>
                    <path d="M0.0004,31.6664 L87.5244,31.6664" id="Stroke-11"></path>
                    <polyline id="Stroke-12" points="38.9067 24.1264 38.9067 31.6664 46.6367 31.6664 46.6367 24.1264"></polyline>
                </g>
                <polygon id="Stroke-14" stroke="#E94D59" stroke-width="1.2" points="42.7338 24.1064 38.8318 28.8614 46.6368 28.8614"></polygon>
                <polyline id="Stroke-15" stroke="#E94D59" stroke-width="1.2" points="46.7124 28.8613 46.7124 36.4013 54.4414 36.4013 54.4414 28.8613"></polyline>
                <polygon id="Stroke-17" stroke="#E94D59" stroke-width="1.2" points="50.5395 24.1064 46.6375 28.8614 54.4415 28.8614"></polygon>
                <polyline id="Stroke-18" stroke="#E94D59" stroke-width="1.2" points="54.517 28.8613 54.517 36.4013 62.247 36.4013 62.247 28.8613"></polyline>
                <polygon id="Stroke-20" stroke="#E94D59" stroke-width="1.2" points="58.3442 24.1064 54.4422 28.8614 62.2472 28.8614"></polygon>
                <g id="Group-86" transform="translate(0.000000, 0.734900)">
                    <path d="M65.9213,35.6664 L65.9213,26.8094 L65.9213,35.6664 Z" id="Stroke-21" stroke="#E94D59" stroke-width="1.2"></path>
                    <path d="M69.5961,19.4838 C69.5961,17.4548 67.9501,15.8098 65.9211,15.8098 C63.8921,15.8098 62.2471,17.4548 62.2471,19.4838 C62.2471,20.2948 62.5181,21.0378 62.9621,21.6448 C62.5181,22.2528 62.2471,22.9958 62.2471,23.8058 C62.2471,25.8358 63.8921,27.4808 65.9211,27.4808 C67.9501,27.4808 69.5961,25.8358 69.5961,23.8058 C69.5961,22.9958 69.3251,22.2528 68.8801,21.6448 C69.3251,21.0378 69.5961,20.2948 69.5961,19.4838 Z" id="Stroke-23" stroke="#E94D59" stroke-width="1.2"></path>
                    <path d="M8.645,3.8432 L8.645,7.4462" id="Stroke-25" stroke="#E94D59" stroke-width="1.2"></path>
                    <path d="M8.645,8.6703 L8.645,12.2733" id="Stroke-27" stroke="#E94D59" stroke-width="1.2"></path>
                    <path d="M11.5268,3.8432 L11.5268,7.4462" id="Stroke-29" stroke="#E94D59" stroke-width="1.2"></path>
                    <path d="M11.5268,8.6703 L11.5268,12.2733" id="Stroke-31" stroke="#E94D59" stroke-width="1.2"></path>
                    <path d="M17.2905,3.8432 L17.2905,7.4462" id="Stroke-33" stroke="#E94D59" stroke-width="1.2"></path>
                    <path d="M17.2905,8.6703 L17.2905,12.2733" id="Stroke-35" stroke="#E94D59" stroke-width="1.2"></path>
                    <path d="M14.4086,3.8432 L14.4086,7.4462" id="Stroke-37" stroke="#E94D59" stroke-width="1.2"></path>
                    <path d="M14.4086,8.6703 L14.4086,12.2733" id="Stroke-39" stroke="#E94D59" stroke-width="1.2"></path>
                    <mask id="mask-2" fill="white">
                        <use xlink:href="#path-1"></use>
                    </mask>
                    <g id="Clip-42"></g>
                    <polygon id="Stroke-41" stroke="#E94D59" stroke-width="1.2" mask="url(#mask-2)" points="5.637 35.667 20.918 35.667 20.918 0.865 5.637 0.865"></polygon>
                    <path d="M8.645,14.1166 L8.645,17.7196" id="Stroke-43" stroke="#E94D59" stroke-width="1.2" mask="url(#mask-2)"></path>
                    <path d="M8.645,18.9437 L8.645,22.5457" id="Stroke-44" stroke="#E94D59" stroke-width="1.2" mask="url(#mask-2)"></path>
                    <path d="M11.5268,14.1166 L11.5268,17.7196" id="Stroke-45" stroke="#E94D59" stroke-width="1.2" mask="url(#mask-2)"></path>
                    <path d="M11.5268,18.9437 L11.5268,22.5457" id="Stroke-46" stroke="#E94D59" stroke-width="1.2" mask="url(#mask-2)"></path>
                    <path d="M17.2905,14.1166 L17.2905,17.7196" id="Stroke-47" stroke="#E94D59" stroke-width="1.2" mask="url(#mask-2)"></path>
                    <path d="M17.2905,18.9437 L17.2905,22.5457" id="Stroke-48" stroke="#E94D59" stroke-width="1.2" mask="url(#mask-2)"></path>
                    <path d="M14.4086,14.1166 L14.4086,17.7196" id="Stroke-49" stroke="#E94D59" stroke-width="1.2" mask="url(#mask-2)"></path>
                    <path d="M14.4086,18.9437 L14.4086,22.5457" id="Stroke-50" stroke="#E94D59" stroke-width="1.2" mask="url(#mask-2)"></path>
                    <path d="M24.2368,15.2377 L24.2368,18.8397" id="Stroke-51" stroke="#E94D59" stroke-width="1.2" mask="url(#mask-2)"></path>
                    <path d="M24.2368,20.0648 L24.2368,23.6668" id="Stroke-52" stroke="#E94D59" stroke-width="1.2" mask="url(#mask-2)"></path>
                    <path d="M27.1186,15.2377 L27.1186,18.8397" id="Stroke-53" stroke="#E94D59" stroke-width="1.2" mask="url(#mask-2)"></path>
                    <path d="M27.1186,20.0648 L27.1186,23.6668" id="Stroke-54" stroke="#E94D59" stroke-width="1.2" mask="url(#mask-2)"></path>
                    <path d="M32.8823,15.2377 L32.8823,18.8397" id="Stroke-55" stroke="#E94D59" stroke-width="1.2" mask="url(#mask-2)"></path>
                    <path d="M32.8823,20.0648 L32.8823,23.6668" id="Stroke-56" stroke="#E94D59" stroke-width="1.2" mask="url(#mask-2)"></path>
                    <path d="M30.0004,15.2377 L30.0004,18.8397" id="Stroke-57" stroke="#E94D59" stroke-width="1.2" mask="url(#mask-2)"></path>
                    <path d="M30.0004,20.0648 L30.0004,23.6668" id="Stroke-58" stroke="#E94D59" stroke-width="1.2" mask="url(#mask-2)"></path>
                    <path d="M42.7719,30.0766 L42.7719,33.6796" id="Stroke-59" stroke="#E94D59" stroke-width="1.2" mask="url(#mask-2)"></path>
                    <path d="M50.5776,30.0766 L50.5776,33.6796" id="Stroke-60" stroke="#E94D59" stroke-width="1.2" mask="url(#mask-2)"></path>
                    <path d="M58.3823,30.0766 L58.3823,33.6796" id="Stroke-61" stroke="#E94D59" stroke-width="1.2" mask="url(#mask-2)"></path>
                    <path d="M73.7387,7.4457 L73.7387,11.0487" id="Stroke-62" stroke="#E94D59" stroke-width="1.2" mask="url(#mask-2)"></path>
                    <path d="M73.7387,12.2728 L73.7387,15.8758" id="Stroke-63" stroke="#E94D59" stroke-width="1.2" mask="url(#mask-2)"></path>
                    <path d="M76.6206,7.4457 L76.6206,11.0487" id="Stroke-64" stroke="#E94D59" stroke-width="1.2" mask="url(#mask-2)"></path>
                    <path d="M76.6206,12.2728 L76.6206,15.8758" id="Stroke-65" stroke="#E94D59" stroke-width="1.2" mask="url(#mask-2)"></path>
                    <path d="M79.5024,7.4457 L79.5024,11.0487" id="Stroke-66" stroke="#E94D59" stroke-width="1.2" mask="url(#mask-2)"></path>
                    <path d="M79.5024,12.2728 L79.5024,15.8758" id="Stroke-67" stroke="#E94D59" stroke-width="1.2" mask="url(#mask-2)"></path>
                    <path d="M73.7387,17.4301 L73.7387,21.0331" id="Stroke-68" stroke="#E94D59" stroke-width="1.2" mask="url(#mask-2)"></path>
                    <path d="M73.7387,22.2572 L73.7387,25.8602" id="Stroke-69" stroke="#E94D59" stroke-width="1.2" mask="url(#mask-2)"></path>
                    <path d="M76.6206,17.4301 L76.6206,21.0331" id="Stroke-70" stroke="#E94D59" stroke-width="1.2" mask="url(#mask-2)"></path>
                    <path d="M76.6206,22.2572 L76.6206,25.8602" id="Stroke-71" stroke="#E94D59" stroke-width="1.2" mask="url(#mask-2)"></path>
                    <path d="M79.5024,17.4301 L79.5024,21.0331" id="Stroke-72" stroke="#E94D59" stroke-width="1.2" mask="url(#mask-2)"></path>
                    <path d="M79.5024,22.2572 L79.5024,25.8602" id="Stroke-73" stroke="#E94D59" stroke-width="1.2" mask="url(#mask-2)"></path>
                    <path d="M24.2368,25.1117 L24.2368,28.7147" id="Stroke-74" stroke="#E94D59" stroke-width="1.2" mask="url(#mask-2)"></path>
                    <path d="M27.1186,25.1117 L27.1186,28.7147" id="Stroke-75" stroke="#E94D59" stroke-width="1.2" mask="url(#mask-2)"></path>
                    <path d="M32.8823,25.1117 L32.8823,28.7147" id="Stroke-76" stroke="#E94D59" stroke-width="1.2" mask="url(#mask-2)"></path>
                    <path d="M30.0004,25.1117 L30.0004,28.7147" id="Stroke-77" stroke="#E94D59" stroke-width="1.2" mask="url(#mask-2)"></path>
                    <path d="M8.645,24.3891 L8.645,27.9921" id="Stroke-78" stroke="#E94D59" stroke-width="1.2" mask="url(#mask-2)"></path>
                    <path d="M8.645,29.2162 L8.645,32.8192" id="Stroke-79" stroke="#E94D59" stroke-width="1.2" mask="url(#mask-2)"></path>
                    <path d="M11.5268,24.3891 L11.5268,27.9921" id="Stroke-80" stroke="#E94D59" stroke-width="1.2" mask="url(#mask-2)"></path>
                    <path d="M11.5268,29.2162 L11.5268,32.8192" id="Stroke-81" stroke="#E94D59" stroke-width="1.2" mask="url(#mask-2)"></path>
                    <path d="M17.2905,24.3891 L17.2905,27.9921" id="Stroke-82" stroke="#E94D59" stroke-width="1.2" mask="url(#mask-2)"></path>
                    <path d="M17.2905,29.2162 L17.2905,32.8192" id="Stroke-83" stroke="#E94D59" stroke-width="1.2" mask="url(#mask-2)"></path>
                    <path d="M14.4086,24.3891 L14.4086,27.9921" id="Stroke-84" stroke="#E94D59" stroke-width="1.2" mask="url(#mask-2)"></path>
                    <path d="M14.4086,29.2162 L14.4086,32.8192" id="Stroke-85" stroke="#E94D59" stroke-width="1.2" mask="url(#mask-2)"></path>
                </g>
            </g>
        </g>
    </g>
</svg>