<?xml version="1.0" encoding="UTF-8" standalone="no"?>
<svg width="110px" height="110px" viewBox="0 0 110 110" version="1.1" xmlns="http://www.w3.org/2000/svg" xmlns:xlink="http://www.w3.org/1999/xlink">
    <!-- Generator: Sketch 41.2 (35397) - http://www.bohemiancoding.com/sketch -->
    <title>Artboard Copy 20</title>
    <desc>Created with Sketch.</desc>
    <defs>
        <polygon id="path-1" points="0 38 87.525 38 87.525 0.265 0 0.265"></polygon>
    </defs>
    <g id="Welcome" stroke="none" stroke-width="1" fill="none" fill-rule="evenodd">
        <g id="Artboard-Copy-20">
            <g id="Page-1" transform="translate(11.000000, 35.000000)">
                <polygon id="Fill-1" fill="#F8CBCE" points="7.659 3.9338 7.659 38.7348 22.941 38.7348 38.223 38.7348 38.223 16.1808 22.941 16.1808 22.941 3.9338"></polygon>
                <polygon id="Fill-2" fill="#F8CBCE" points="73.263 38.735 83.867 38.735 83.867 7.666 73.263 7.666"></polygon>
                <polygon id="Fill-3" fill="#F8CBCE" points="40.8546 31.1948 40.9296 31.1948 40.9296 38.7348 48.6596 38.7348 48.6596 31.1948 44.7566 26.4398"></polygon>
                <polygon id="Fill-4" fill="#F8CBCE" points="48.6594 31.1948 48.7354 31.1948 48.7354 38.7348 56.4654 38.7348 56.4654 31.1948 52.5624 26.4398"></polygon>
                <polygon id="Fill-5" fill="#F8CBCE" points="56.4651 31.1948 56.5401 31.1948 56.5401 38.7348 64.2701 38.7348 64.2701 31.1948 60.3671 26.4398"></polygon>
                <g id="Group-72" transform="translate(0.000000, 0.735000)">
                    <path d="M67.9443,29.8139 C69.9733,29.8139 71.6183,28.1689 71.6183,26.1389 C71.6183,25.3289 71.3473,24.5859 70.9033,23.9779 C71.3473,23.3709 71.6183,22.6279 71.6183,21.8169 C71.6183,19.7889 69.9733,18.1429 67.9443,18.1429 C65.9153,18.1429 64.2693,19.7889 64.2693,21.8169 C64.2693,22.6279 64.5413,23.3709 64.9853,23.9779 C64.5413,24.5859 64.2693,25.3289 64.2693,26.1389 C64.2693,28.1689 65.9153,29.8139 67.9443,29.8139 Z" id="Fill-6" fill="#F8CBCE"></path>
                    <mask id="mask-2" fill="white">
                        <use xlink:href="#path-1"></use>
                    </mask>
                    <g id="Clip-9"></g>
                    <path d="M21.519,35.067 L35.601,35.067 L35.601,13.712 L21.519,13.712 L21.519,35.067 Z M20.32,36.266 L36.8,36.266 L36.8,12.512 L20.32,12.512 L20.32,36.266 Z" id="Fill-8" fill="#E94D59" mask="url(#mask-2)"></path>
                    <path d="M71.84,35.067 L81.244,35.067 L81.244,5.197 L71.84,5.197 L71.84,35.067 Z M70.64,36.266 L82.443,36.266 L82.443,3.997 L70.64,3.997 L70.64,36.266 Z" id="Fill-10" fill="#E94D59" mask="url(#mask-2)"></path>
                    <polygon id="Fill-11" fill="#E94D59" mask="url(#mask-2)" points="0 36.266 87.525 36.266 87.525 35.067 0 35.067"></polygon>
                    <polygon id="Fill-12" fill="#E94D59" mask="url(#mask-2)" points="47.2363 36.266 38.3073 36.266 38.3073 28.126 39.5073 28.126 39.5073 35.067 46.0373 35.067 46.0373 28.126 47.2363 28.126"></polygon>
                    <path d="M40.1006,27.5267 L45.3686,27.5267 L42.7346,24.3167 L40.1006,27.5267 Z M47.9056,28.7257 L37.5636,28.7257 L42.7346,22.4257 L47.9056,28.7257 Z" id="Fill-13" fill="#E94D59" mask="url(#mask-2)"></path>
                    <polygon id="Fill-14" fill="#E94D59" mask="url(#mask-2)" points="55.042 36.266 46.113 36.266 46.113 28.126 47.313 28.126 47.313 35.067 53.843 35.067 53.843 28.126 55.042 28.126"></polygon>
                    <path d="M47.9053,27.5267 L53.1743,27.5267 L50.5403,24.3167 L47.9053,27.5267 Z M55.7113,28.7257 L45.3683,28.7257 L50.5403,22.4257 L55.7113,28.7257 Z" id="Fill-15" fill="#E94D59" mask="url(#mask-2)"></path>
                    <polygon id="Fill-16" fill="#E94D59" mask="url(#mask-2)" points="62.8467 36.266 53.9177 36.266 53.9177 28.126 55.1177 28.126 55.1177 35.067 61.6477 35.067 61.6477 28.126 62.8467 28.126"></polygon>
                    <path d="M55.7109,27.5267 L60.9789,27.5267 L58.3449,24.3167 L55.7109,27.5267 Z M63.5159,28.7257 L53.1739,28.7257 L58.3449,22.4257 L63.5159,28.7257 Z" id="Fill-17" fill="#E94D59" mask="url(#mask-2)"></path>
                    <polygon id="Fill-18" fill="#E94D59" mask="url(#mask-2)" points="65.322 35.666 66.521 35.666 66.521 26.809 65.322 26.809"></polygon>
                    <path d="M65.9219,16.4096 C64.2269,16.4096 62.8469,17.7886 62.8469,19.4836 C62.8469,20.1296 63.0549,20.7546 63.4469,21.2906 L63.7059,21.6446 L63.4469,21.9996 C63.0549,22.5356 62.8469,23.1606 62.8469,23.8056 C62.8469,25.5016 64.2269,26.8816 65.9219,26.8816 C67.6169,26.8816 68.9959,25.5016 68.9959,23.8056 C68.9959,23.1596 68.7879,22.5346 68.3969,21.9996 L68.1379,21.6446 L68.3969,21.2906 C68.7879,20.7556 68.9959,20.1306 68.9959,19.4836 C68.9959,17.7886 67.6169,16.4096 65.9219,16.4096 M65.9219,28.0806 C63.5649,28.0806 61.6479,26.1636 61.6479,23.8056 C61.6479,23.0436 61.8529,22.3046 62.2439,21.6446 C61.8529,20.9856 61.6479,20.2466 61.6479,19.4836 C61.6479,17.1276 63.5649,15.2106 65.9219,15.2106 C68.2779,15.2106 70.1949,17.1276 70.1949,19.4836 C70.1949,20.2466 69.9899,20.9856 69.5999,21.6446 C69.9899,22.3046 70.1949,23.0436 70.1949,23.8056 C70.1949,26.1636 68.2779,28.0806 65.9219,28.0806" id="Fill-19" fill="#E94D59" mask="url(#mask-2)"></path>
                    <polygon id="Fill-20" fill="#E94D59" mask="url(#mask-2)" points="8.046 7.446 9.245 7.446 9.245 3.843 8.046 3.843"></polygon>
                    <polygon id="Fill-21" fill="#E94D59" mask="url(#mask-2)" points="8.046 12.273 9.245 12.273 9.245 8.67 8.046 8.67"></polygon>
                    <polygon id="Fill-22" fill="#E94D59" mask="url(#mask-2)" points="10.928 7.446 12.127 7.446 12.127 3.843 10.928 3.843"></polygon>
                    <polygon id="Fill-23" fill="#E94D59" mask="url(#mask-2)" points="10.928 12.273 12.127 12.273 12.127 8.67 10.928 8.67"></polygon>
                    <polygon id="Fill-24" fill="#E94D59" mask="url(#mask-2)" points="16.692 7.446 17.891 7.446 17.891 3.843 16.692 3.843"></polygon>
                    <polygon id="Fill-25" fill="#E94D59" mask="url(#mask-2)" points="16.692 12.273 17.891 12.273 17.891 8.67 16.692 8.67"></polygon>
                    <polygon id="Fill-26" fill="#E94D59" mask="url(#mask-2)" points="13.81 7.446 15.009 7.446 15.009 3.843 13.81 3.843"></polygon>
                    <polygon id="Fill-27" fill="#E94D59" mask="url(#mask-2)" points="13.81 12.273 15.009 12.273 15.009 8.67 13.81 8.67"></polygon>
                    <path d="M6.236,35.067 L20.319,35.067 L20.319,1.464 L6.236,1.464 L6.236,35.067 Z M5.038,36.266 L21.519,36.266 L21.519,0.265 L5.038,0.265 L5.038,36.266 Z" id="Fill-28" fill="#E94D59" mask="url(#mask-2)"></path>
                    <polygon id="Fill-29" fill="#E94D59" mask="url(#mask-2)" points="8.046 17.719 9.245 17.719 9.245 14.116 8.046 14.116"></polygon>
                    <polygon id="Fill-30" fill="#E94D59" mask="url(#mask-2)" points="8.046 22.545 9.245 22.545 9.245 18.943 8.046 18.943"></polygon>
                    <polygon id="Fill-31" fill="#E94D59" mask="url(#mask-2)" points="10.928 17.719 12.127 17.719 12.127 14.116 10.928 14.116"></polygon>
                    <polygon id="Fill-32" fill="#E94D59" mask="url(#mask-2)" points="10.928 22.545 12.127 22.545 12.127 18.943 10.928 18.943"></polygon>
                    <polygon id="Fill-33" fill="#E94D59" mask="url(#mask-2)" points="16.692 17.719 17.891 17.719 17.891 14.116 16.692 14.116"></polygon>
                    <polygon id="Fill-34" fill="#E94D59" mask="url(#mask-2)" points="16.692 22.545 17.891 22.545 17.891 18.943 16.692 18.943"></polygon>
                    <polygon id="Fill-35" fill="#E94D59" mask="url(#mask-2)" points="13.81 17.719 15.009 17.719 15.009 14.116 13.81 14.116"></polygon>
                    <polygon id="Fill-36" fill="#E94D59" mask="url(#mask-2)" points="13.81 22.545 15.009 22.545 15.009 18.943 13.81 18.943"></polygon>
                    <polygon id="Fill-37" fill="#E94D59" mask="url(#mask-2)" points="23.637 18.839 24.836 18.839 24.836 15.237 23.637 15.237"></polygon>
                    <polygon id="Fill-38" fill="#E94D59" mask="url(#mask-2)" points="23.637 23.666 24.836 23.666 24.836 20.064 23.637 20.064"></polygon>
                    <polygon id="Fill-39" fill="#E94D59" mask="url(#mask-2)" points="26.519 18.839 27.718 18.839 27.718 15.237 26.519 15.237"></polygon>
                    <polygon id="Fill-40" fill="#E94D59" mask="url(#mask-2)" points="26.519 23.666 27.718 23.666 27.718 20.064 26.519 20.064"></polygon>
                    <polygon id="Fill-41" fill="#E94D59" mask="url(#mask-2)" points="32.282 18.839 33.481 18.839 33.481 15.237 32.282 15.237"></polygon>
                    <polygon id="Fill-42" fill="#E94D59" mask="url(#mask-2)" points="32.282 23.666 33.481 23.666 33.481 20.064 32.282 20.064"></polygon>
                    <polygon id="Fill-43" fill="#E94D59" mask="url(#mask-2)" points="29.401 18.839 30.6 18.839 30.6 15.237 29.401 15.237"></polygon>
                    <polygon id="Fill-44" fill="#E94D59" mask="url(#mask-2)" points="29.401 23.666 30.6 23.666 30.6 20.064 29.401 20.064"></polygon>
                    <polygon id="Fill-45" fill="#E94D59" mask="url(#mask-2)" points="42.173 33.679 43.372 33.679 43.372 30.076 42.173 30.076"></polygon>
                    <polygon id="Fill-46" fill="#E94D59" mask="url(#mask-2)" points="49.978 33.679 51.177 33.679 51.177 30.076 49.978 30.076"></polygon>
                    <polygon id="Fill-47" fill="#E94D59" mask="url(#mask-2)" points="57.783 33.679 58.982 33.679 58.982 30.076 57.783 30.076"></polygon>
                    <polygon id="Fill-48" fill="#E94D59" mask="url(#mask-2)" points="73.139 11.048 74.338 11.048 74.338 7.445 73.139 7.445"></polygon>
                    <polygon id="Fill-49" fill="#E94D59" mask="url(#mask-2)" points="73.139 15.875 74.338 15.875 74.338 12.272 73.139 12.272"></polygon>
                    <polygon id="Fill-50" fill="#E94D59" mask="url(#mask-2)" points="76.021 11.048 77.22 11.048 77.22 7.445 76.021 7.445"></polygon>
                    <polygon id="Fill-51" fill="#E94D59" mask="url(#mask-2)" points="76.021 15.875 77.22 15.875 77.22 12.272 76.021 12.272"></polygon>
                    <polygon id="Fill-52" fill="#E94D59" mask="url(#mask-2)" points="78.903 11.048 80.102 11.048 80.102 7.445 78.903 7.445"></polygon>
                    <polygon id="Fill-53" fill="#E94D59" mask="url(#mask-2)" points="78.903 15.875 80.102 15.875 80.102 12.272 78.903 12.272"></polygon>
                    <polygon id="Fill-54" fill="#E94D59" mask="url(#mask-2)" points="73.139 21.033 74.338 21.033 74.338 17.43 73.139 17.43"></polygon>
                    <polygon id="Fill-55" fill="#E94D59" mask="url(#mask-2)" points="73.139 25.86 74.338 25.86 74.338 22.257 73.139 22.257"></polygon>
                    <polygon id="Fill-56" fill="#E94D59" mask="url(#mask-2)" points="76.021 21.033 77.22 21.033 77.22 17.43 76.021 17.43"></polygon>
                    <polygon id="Fill-57" fill="#E94D59" mask="url(#mask-2)" points="76.021 25.86 77.22 25.86 77.22 22.257 76.021 22.257"></polygon>
                    <polygon id="Fill-58" fill="#E94D59" mask="url(#mask-2)" points="78.903 21.033 80.102 21.033 80.102 17.43 78.903 17.43"></polygon>
                    <polygon id="Fill-59" fill="#E94D59" mask="url(#mask-2)" points="78.903 25.86 80.102 25.86 80.102 22.257 78.903 22.257"></polygon>
                    <polygon id="Fill-60" fill="#E94D59" mask="url(#mask-2)" points="23.637 28.714 24.836 28.714 24.836 25.111 23.637 25.111"></polygon>
                    <polygon id="Fill-61" fill="#E94D59" mask="url(#mask-2)" points="26.519 28.714 27.718 28.714 27.718 25.111 26.519 25.111"></polygon>
                    <polygon id="Fill-62" fill="#E94D59" mask="url(#mask-2)" points="32.282 28.714 33.481 28.714 33.481 25.111 32.282 25.111"></polygon>
                    <polygon id="Fill-63" fill="#E94D59" mask="url(#mask-2)" points="29.401 28.714 30.6 28.714 30.6 25.111 29.401 25.111"></polygon>
                    <polygon id="Fill-64" fill="#E94D59" mask="url(#mask-2)" points="8.046 27.992 9.245 27.992 9.245 24.389 8.046 24.389"></polygon>
                    <polygon id="Fill-65" fill="#E94D59" mask="url(#mask-2)" points="8.046 32.819 9.245 32.819 9.245 29.216 8.046 29.216"></polygon>
                    <polygon id="Fill-66" fill="#E94D59" mask="url(#mask-2)" points="10.928 27.992 12.127 27.992 12.127 24.389 10.928 24.389"></polygon>
                    <polygon id="Fill-67" fill="#E94D59" mask="url(#mask-2)" points="10.928 32.819 12.127 32.819 12.127 29.216 10.928 29.216"></polygon>
                    <polygon id="Fill-68" fill="#E94D59" mask="url(#mask-2)" points="16.692 27.992 17.891 27.992 17.891 24.389 16.692 24.389"></polygon>
                    <polygon id="Fill-69" fill="#E94D59" mask="url(#mask-2)" points="16.692 32.819 17.891 32.819 17.891 29.216 16.692 29.216"></polygon>
                    <polygon id="Fill-70" fill="#E94D59" mask="url(#mask-2)" points="13.81 27.992 15.009 27.992 15.009 24.389 13.81 24.389"></polygon>
                    <polygon id="Fill-71" fill="#E94D59" mask="url(#mask-2)" points="13.81 32.819 15.009 32.819 15.009 29.216 13.81 29.216"></polygon>
                </g>
            </g>
        </g>
    </g>
</svg>