<?xml version="1.0" encoding="utf-8"?>
<!-- Generator: Adobe Illustrator 22.0.1, SVG Export Plug-In . SVG Version: 6.00 Build 0)  -->
<svg version="1.1" id="Capa_1" xmlns="http://www.w3.org/2000/svg" xmlns:xlink="http://www.w3.org/1999/xlink" x="0px" y="0px"
	 viewBox="0 0 222 89" style="enable-background:new 0 0 222 89;" xml:space="preserve">
<style type="text/css">
	.st0{fill:#FFFFFF;}
</style>
<title>logo-rectangular-blanco copy</title>
<desc>Created with Sketch.</desc>
<g>
	<g id="logo-fci">
		<g id="logo-ci" transform="translate(52.000000, 35.000000)">
			<path id="Ciudadanía-Inteligen" class="st0" d="M40.3-22.1c1.9,0,3.5,0.5,4.8,1.5c1.3,1,2.1,2.4,2.4,4.1h-3.8
				c-0.3-0.7-0.7-1.2-1.3-1.7c-0.6-0.4-1.3-0.6-2.1-0.6c-1.1,0-1.9,0.4-2.6,1.2c-0.7,0.8-1,1.8-1,3.1s0.3,2.3,1,3.1s1.5,1.2,2.6,1.2
				c0.8,0,1.5-0.2,2.1-0.6c0.6-0.4,1-0.9,1.3-1.6h3.8c-0.4,1.7-1.2,3.1-2.4,4.1c-1.3,1-2.8,1.5-4.8,1.5c-1.5,0-2.7-0.3-3.8-1
				s-2-1.5-2.6-2.7c-0.6-1.2-0.9-2.5-0.9-4s0.3-2.8,0.9-4c0.6-1.2,1.5-2.1,2.6-2.7S38.9-22.1,40.3-22.1z M49.5-22.1
				c0-0.5,0.2-1,0.6-1.4c0.4-0.3,0.9-0.5,1.6-0.5s1.2,0.2,1.6,0.5c0.4,0.3,0.6,0.8,0.6,1.4c0,0.5-0.2,1-0.6,1.3s-0.9,0.5-1.6,0.5
				s-1.2-0.2-1.6-0.5C49.7-21.1,49.5-21.5,49.5-22.1z M53.5-18.8v11.9h-3.6v-11.9H53.5z M68.1-18.8v11.9h-3.6V-9
				c-0.3,0.7-0.8,1.2-1.5,1.7c-0.7,0.4-1.5,0.6-2.3,0.6c-1.3,0-2.5-0.5-3.2-1.3c-0.8-0.9-1.2-2.2-1.2-3.7v-6.9h3.6v6.5
				c0,0.8,0.2,1.4,0.6,1.9c0.4,0.5,1,0.7,1.7,0.7c0.7,0,1.3-0.2,1.7-0.7c0.4-0.5,0.7-1.1,0.7-2v-6.3H68.1z M75.4-18.9
				c0.9,0,1.7,0.2,2.3,0.6c0.7,0.4,1.1,1,1.4,1.7v-6h3.6v15.7h-3.6V-9c-0.3,0.7-0.8,1.3-1.4,1.7c-0.7,0.4-1.4,0.6-2.3,0.6
				c-1,0-1.8-0.2-2.6-0.7s-1.4-1.2-1.8-2.1c-0.5-0.9-0.7-2-0.7-3.2c0-1.2,0.2-2.3,0.7-3.2c0.5-0.9,1-1.6,1.8-2.1
				C73.5-18.6,74.4-18.9,75.4-18.9z M76.5-15.7c-0.8,0-1.4,0.3-1.9,0.8c-0.5,0.5-0.7,1.2-0.7,2.1c0,0.9,0.2,1.6,0.7,2.1
				c0.5,0.5,1.1,0.8,1.9,0.8s1.4-0.3,1.9-0.8c0.5-0.5,0.7-1.2,0.7-2.1c0-0.9-0.2-1.6-0.7-2.1C77.9-15.5,77.3-15.7,76.5-15.7z
				 M90.1-18.9c0.9,0,1.7,0.2,2.3,0.6c0.7,0.4,1.1,1,1.5,1.7v-2.2h3.6v11.9h-3.6V-9c-0.3,0.7-0.8,1.3-1.5,1.7
				c-0.7,0.4-1.4,0.6-2.3,0.6c-1,0-1.8-0.2-2.6-0.7c-0.8-0.5-1.4-1.2-1.8-2.1c-0.5-0.9-0.7-2-0.7-3.2c0-1.2,0.2-2.3,0.7-3.2
				c0.5-0.9,1-1.6,1.8-2.1C88.2-18.6,89.1-18.9,90.1-18.9z M91.3-15.7c-0.8,0-1.4,0.3-1.9,0.8c-0.5,0.5-0.7,1.2-0.7,2.1
				c0,0.9,0.2,1.6,0.7,2.1c0.5,0.5,1.1,0.8,1.9,0.8c0.8,0,1.4-0.3,1.9-0.8c0.5-0.5,0.7-1.2,0.7-2.1c0-0.9-0.2-1.6-0.7-2.1
				C92.6-15.5,92-15.7,91.3-15.7z M104.8-18.9c0.9,0,1.7,0.2,2.3,0.6c0.7,0.4,1.1,1,1.4,1.7v-6h3.6v15.7h-3.6V-9
				c-0.3,0.7-0.8,1.3-1.4,1.7c-0.7,0.4-1.4,0.6-2.3,0.6c-1,0-1.8-0.2-2.6-0.7s-1.4-1.2-1.8-2.1c-0.5-0.9-0.7-2-0.7-3.2
				c0-1.2,0.2-2.3,0.7-3.2c0.5-0.9,1-1.6,1.8-2.1C102.9-18.6,103.8-18.9,104.8-18.9z M106-15.7c-0.8,0-1.4,0.3-1.9,0.8
				c-0.5,0.5-0.7,1.2-0.7,2.1c0,0.9,0.2,1.6,0.7,2.1c0.5,0.5,1.1,0.8,1.9,0.8c0.8,0,1.4-0.3,1.9-0.8c0.5-0.5,0.7-1.2,0.7-2.1
				c0-0.9-0.2-1.6-0.7-2.1C107.3-15.5,106.7-15.7,106-15.7z M119.5-18.9c0.9,0,1.7,0.2,2.3,0.6c0.7,0.4,1.1,1,1.5,1.7v-2.2h3.6v11.9
				h-3.6V-9c-0.3,0.7-0.8,1.3-1.5,1.7c-0.7,0.4-1.4,0.6-2.3,0.6c-1,0-1.8-0.2-2.6-0.7c-0.8-0.5-1.4-1.2-1.8-2.1
				c-0.5-0.9-0.7-2-0.7-3.2c0-1.2,0.2-2.3,0.7-3.2c0.5-0.9,1-1.6,1.8-2.1C117.6-18.6,118.5-18.9,119.5-18.9z M120.6-15.7
				c-0.8,0-1.4,0.3-1.9,0.8c-0.5,0.5-0.7,1.2-0.7,2.1c0,0.9,0.2,1.6,0.7,2.1c0.5,0.5,1.1,0.8,1.9,0.8c0.8,0,1.4-0.3,1.9-0.8
				c0.5-0.5,0.7-1.2,0.7-2.1c0-0.9-0.2-1.6-0.7-2.1C122-15.5,121.4-15.7,120.6-15.7z M137.2-18.9c1.3,0,2.5,0.5,3.2,1.3
				c0.8,0.9,1.2,2.2,1.2,3.7v6.9H138v-6.4c0-0.8-0.2-1.4-0.6-1.8c-0.4-0.5-1-0.7-1.7-0.7c-0.7,0-1.3,0.2-1.8,0.7
				c-0.4,0.5-0.7,1.1-0.7,2v6.3h-3.6v-11.9h3.6v2.2c0.3-0.7,0.8-1.3,1.5-1.7C135.5-18.7,136.3-18.9,137.2-18.9z M148.4-18.8v11.9
				h-3.6v-11.9H148.4z M149.6-21.8l-5.1,2.2v-2.5l5.1-2.5V-21.8z M156.1-18.9c0.9,0,1.7,0.2,2.3,0.6c0.7,0.4,1.1,1,1.5,1.7v-2.2h3.6
				v11.9h-3.6V-9c-0.3,0.7-0.8,1.3-1.5,1.7c-0.7,0.4-1.4,0.6-2.3,0.6c-1,0-1.8-0.2-2.6-0.7c-0.8-0.5-1.4-1.2-1.8-2.1
				c-0.5-0.9-0.7-2-0.7-3.2c0-1.2,0.2-2.3,0.7-3.2c0.5-0.9,1-1.6,1.8-2.1C154.2-18.6,155.1-18.9,156.1-18.9z M157.2-15.7
				c-0.8,0-1.4,0.3-1.9,0.8c-0.5,0.5-0.7,1.2-0.7,2.1c0,0.9,0.2,1.6,0.7,2.1c0.5,0.5,1.1,0.8,1.9,0.8c0.8,0,1.4-0.3,1.9-0.8
				c0.5-0.5,0.7-1.2,0.7-2.1c0-0.9-0.2-1.6-0.7-2.1C158.6-15.5,158-15.7,157.2-15.7z M37.1,0.5v15h-3.6v-15
				C33.4,0.5,37.1,0.5,37.1,0.5z M47.4,3.6c1.3,0,2.5,0.5,3.2,1.3c0.8,0.9,1.2,2.2,1.2,3.7v6.9h-3.6V9c0-0.8-0.2-1.4-0.6-1.8
				s-1-0.7-1.7-0.7c-0.7,0-1.3,0.2-1.8,0.7c-0.4,0.5-0.7,1.1-0.7,2v6.3h-3.6V3.7h3.6v2.2c0.3-0.7,0.8-1.3,1.5-1.7S46.5,3.6,47.4,3.6
				z M61.3,12.4v3.1h-1.7c-1.4,0-2.5-0.3-3.2-1c-0.8-0.7-1.2-1.8-1.2-3.4V6.7h-1.6V3.7h1.6V0.7h3.6v2.9h2.4v3.1h-2.4v4.4
				c0,0.5,0.1,0.8,0.3,1c0.2,0.2,0.5,0.3,1,0.3L61.3,12.4L61.3,12.4z M74.9,9.3c0,0.3,0,0.6-0.1,1h-8.2c0,0.9,0.3,1.5,0.7,1.9
				c0.4,0.4,0.9,0.6,1.6,0.6c0.5,0,1-0.2,1.3-0.4c0.3-0.3,0.6-0.6,0.7-1h3.8c-0.2,0.8-0.5,1.6-1,2.2c-0.5,0.7-1.2,1.2-2,1.5
				c-0.8,0.4-1.7,0.6-2.7,0.6c-1.2,0-2.2-0.2-3.1-0.7c-0.9-0.5-1.6-1.2-2.1-2.1c-0.5-0.9-0.8-2-0.8-3.2s0.3-2.3,0.8-3.2
				c0.5-0.9,1.2-1.6,2.1-2.1c0.9-0.5,2-0.7,3.1-0.7c1.2,0,2.2,0.2,3.1,0.7c0.9,0.5,1.6,1.2,2.1,2C74.6,7.2,74.9,8.2,74.9,9.3z
				 M71.2,8.7C71.2,8,71,7.4,70.6,7c-0.4-0.4-1-0.6-1.6-0.6c-0.7,0-1.2,0.2-1.7,0.6s-0.7,1-0.7,1.7L71.2,8.7L71.2,8.7z M80.7-0.2
				v15.7H77V-0.2H80.7z M83.1,0.4c0-0.5,0.2-1,0.6-1.4c0.4-0.3,0.9-0.5,1.6-0.5c0.7,0,1.2,0.2,1.6,0.5c0.4,0.3,0.6,0.8,0.6,1.4
				c0,0.5-0.2,1-0.6,1.3c-0.4,0.3-0.9,0.5-1.6,0.5c-0.7,0-1.2-0.2-1.6-0.5C83.3,1.3,83.1,0.9,83.1,0.4z M87.1,3.7v11.9h-3.6V3.7
				H87.1z M94.4,3.6c0.9,0,1.7,0.2,2.3,0.6c0.7,0.4,1.1,1,1.5,1.7V3.7h3.6v11.8c0,1.1-0.2,2.1-0.7,3c-0.4,0.9-1.1,1.6-2,2.1
				c-0.9,0.5-2,0.8-3.3,0.8c-1.8,0-3.2-0.4-4.3-1.3c-1.1-0.8-1.7-2-1.9-3.4h3.6c0.1,0.5,0.4,0.8,0.8,1.1c0.4,0.3,0.9,0.4,1.6,0.4
				c0.8,0,1.3-0.2,1.8-0.7c0.5-0.4,0.7-1.1,0.7-2.1v-2.1c-0.3,0.7-0.8,1.3-1.5,1.7c-0.7,0.4-1.4,0.6-2.3,0.6c-1,0-1.8-0.2-2.6-0.7
				c-0.8-0.5-1.4-1.2-1.8-2.1c-0.5-0.9-0.7-2-0.7-3.2s0.2-2.3,0.7-3.2c0.5-0.9,1-1.6,1.8-2.1C92.6,3.8,93.5,3.6,94.4,3.6z M95.6,6.7
				c-0.8,0-1.4,0.3-1.9,0.8C93.3,8,93,8.7,93,9.6s0.2,1.6,0.7,2.1c0.5,0.5,1.1,0.8,1.9,0.8s1.4-0.3,1.9-0.8c0.5-0.5,0.7-1.2,0.7-2.1
				S98,8,97.5,7.5S96.4,6.7,95.6,6.7z M115.9,9.3c0,0.3,0,0.6-0.1,1h-8.2c0,0.9,0.3,1.5,0.7,1.9c0.4,0.4,0.9,0.6,1.6,0.6
				c0.5,0,1-0.2,1.3-0.4c0.3-0.3,0.6-0.6,0.7-1h3.8c-0.2,0.8-0.5,1.6-1,2.2c-0.5,0.7-1.2,1.2-2,1.5c-0.8,0.4-1.7,0.6-2.7,0.6
				c-1.2,0-2.2-0.2-3.1-0.7c-0.9-0.5-1.6-1.2-2.1-2.1c-0.5-0.9-0.8-2-0.8-3.2s0.3-2.3,0.8-3.2c0.5-0.9,1.2-1.6,2.1-2.1
				c0.9-0.5,2-0.7,3.1-0.7c1.2,0,2.2,0.2,3.1,0.7s1.6,1.2,2.1,2C115.7,7.1,115.9,8.2,115.9,9.3z M112.2,8.7c0-0.8-0.2-1.3-0.6-1.8
				c-0.4-0.4-1-0.6-1.6-0.6c-0.7,0-1.2,0.2-1.7,0.6c-0.4,0.4-0.7,1-0.7,1.7L112.2,8.7L112.2,8.7z M125.6,3.6c1.3,0,2.5,0.5,3.2,1.3
				c0.8,0.9,1.2,2.2,1.2,3.7v6.9h-3.6V9c0-0.8-0.2-1.4-0.6-1.8c-0.4-0.5-1-0.7-1.7-0.7c-0.7,0-1.3,0.2-1.8,0.7
				c-0.4,0.5-0.7,1.1-0.7,2v6.3H118V3.7h3.6v2.2c0.3-0.7,0.8-1.3,1.5-1.7C123.9,3.7,124.7,3.6,125.6,3.6z M139.5,12.4v3.1h-1.7
				c-1.4,0-2.5-0.3-3.2-1c-0.8-0.7-1.2-1.8-1.2-3.4V6.7h-1.6V3.7h1.6V0.7h3.6v2.9h2.4v3.1h-2.4v4.4c0,0.5,0.1,0.8,0.3,1
				c0.2,0.2,0.5,0.3,1,0.3L139.5,12.4L139.5,12.4z M153.1,9.3c0,0.3,0,0.6-0.1,1h-8.2c0,0.9,0.3,1.5,0.7,1.9
				c0.4,0.4,0.9,0.6,1.6,0.6c0.5,0,1-0.2,1.3-0.4c0.3-0.3,0.6-0.6,0.7-1h3.8c-0.2,0.8-0.5,1.6-1,2.2c-0.5,0.7-1.2,1.2-2,1.5
				c-0.8,0.4-1.7,0.6-2.7,0.6c-1.2,0-2.2-0.2-3.1-0.7c-0.9-0.5-1.6-1.2-2.1-2.1c-0.5-0.9-0.8-2-0.8-3.2s0.3-2.3,0.8-3.2
				c0.5-0.9,1.2-1.6,2.1-2.1c0.9-0.5,2-0.7,3.1-0.7c1.2,0,2.2,0.2,3.1,0.7c0.9,0.5,1.6,1.2,2.1,2C152.8,7.2,153.1,8.2,153.1,9.3z
				 M149.4,8.7c0-0.8-0.2-1.3-0.6-1.8c-0.4-0.4-1-0.6-1.6-0.6s-1.2,0.2-1.7,0.6c-0.4,0.4-0.7,1-0.7,1.7L149.4,8.7L149.4,8.7z"/>
		</g>
	</g>
	<g>
		<path class="st0" d="M28.4,12.9c0.2-0.2,0.4-0.4,0.5-0.6c1.1-1.7,0.6-4.1-1.2-5.2c-0.6-0.4-1.3-0.6-2-0.6l0,0
			c-1.3,0-2.5,0.7-3.2,1.7c-0.5,0.9-0.7,1.9-0.5,2.8s0.8,1.8,1.7,2.3c0.6,0.4,1.3,0.6,2,0.6C26.7,14,27.6,13.6,28.4,12.9z"/>
		<path class="st0" d="M18.6,20.6c-0.6-0.4-1.3-0.6-2-0.6c-1.3,0-2.5,0.7-3.2,1.7c-0.5,0.9-0.7,1.9-0.5,2.8s0.8,1.8,1.7,2.3
			c0.6,0.4,1.3,0.6,2,0.6c1,0,2-0.4,2.7-1.1c0.2-0.2,0.4-0.4,0.5-0.6C20.8,24,20.3,21.7,18.6,20.6z"/>
		<path class="st0" d="M35,15.7c-0.7-0.4-1.5-0.6-2.2-0.4c-0.8,0.2-1.5,0.6-1.8,1.3c-0.4,0.7-0.6,1.5-0.4,2.2
			c0.2,0.8,0.6,1.5,1.3,1.9c0.5,0.3,1.1,0.5,1.6,0.5c0.8,0,1.5-0.3,2.1-0.9c0.2-0.2,0.3-0.3,0.4-0.5C36.8,18.4,36.4,16.6,35,15.7z"
			/>
		<path class="st0" d="M28.4,25.4c-0.7-0.4-1.5-0.6-2.2-0.4c-0.8,0.2-1.5,0.6-1.8,1.3c-0.4,0.7-0.6,1.5-0.4,2.2
			c0.2,0.8,0.6,1.5,1.3,1.9c0.5,0.3,1.1,0.5,1.6,0.5c0.8,0,1.5-0.3,2.1-0.9c0.2-0.2,0.3-0.3,0.4-0.5C30.1,28.1,29.8,26.3,28.4,25.4z
			"/>
		<path class="st0" d="M26.2,37.4c-0.7-0.4-1.5-0.6-2.2-0.4c-0.8,0.2-1.5,0.6-1.8,1.3c-0.4,0.7-0.6,1.5-0.4,2.2
			c0.2,0.8,0.6,1.5,1.3,1.8c0.5,0.3,1.1,0.5,1.6,0.5c0.8,0,1.5-0.3,2.1-0.9c0.2-0.2,0.3-0.3,0.4-0.5C28,40.1,27.5,38.2,26.2,37.4z"
			/>
		<path class="st0" d="M28.4,48.7c-0.7-0.4-1.5-0.6-2.2-0.4c-0.8,0.2-1.5,0.6-1.8,1.3c-0.4,0.7-0.6,1.5-0.4,2.2
			c0.2,0.8,0.6,1.5,1.3,1.8c0.5,0.3,1.1,0.5,1.6,0.5c0.8,0,1.5-0.3,2.1-0.9c0.2-0.2,0.3-0.3,0.4-0.5C30.1,51.4,29.8,49.6,28.4,48.7z
			"/>
		<path class="st0" d="M18.6,52.3c-0.6-0.4-1.3-0.6-2-0.6c-1.3,0-2.5,0.7-3.2,1.7c-0.5,0.9-0.7,1.9-0.5,2.8c0.2,1,0.8,1.8,1.7,2.3
			c0.6,0.4,1.3,0.6,2,0.6c1,0,2-0.4,2.7-1.1c0.2-0.2,0.4-0.4,0.5-0.6C20.8,55.8,20.3,53.5,18.6,52.3z"/>
		<path class="st0" d="M16.5,42.5c0.2-0.2,0.4-0.4,0.5-0.6c1.1-1.7,0.6-4.1-1.2-5.2c-0.6-0.4-1.3-0.6-2-0.6l0,0
			c-1.3,0-2.5,0.7-3.2,1.7c-0.5,0.9-0.7,1.9-0.5,2.8c0.2,1,0.8,1.8,1.7,2.3c0.6,0.4,1.3,0.6,2,0.6C14.9,43.6,15.9,43.2,16.5,42.5z"
			/>
		<path class="st0" d="M72.5,74.7c-0.6-0.4-1.3-0.6-2-0.6c-1.3,0-2.5,0.7-3.2,1.7l0,0c-0.5,0.9-0.7,1.9-0.5,2.8
			c0.2,1,0.8,1.8,1.7,2.3c0.6,0.4,1.3,0.6,2,0.6c1,0,2-0.4,2.7-1.1c0.2-0.2,0.4-0.4,0.5-0.6C74.8,78.2,74.3,75.8,72.5,74.7z"/>
		<path class="st0" d="M40.4,74.7c-0.6-0.4-1.3-0.6-2-0.6l0,0c-1.3,0-2.5,0.7-3.2,1.7c-0.5,0.9-0.7,1.9-0.5,2.8
			c0.2,1,0.8,1.8,1.7,2.3c0.6,0.4,1.3,0.6,2,0.6c1,0,2-0.4,2.7-1.1c0.2-0.2,0.4-0.4,0.5-0.6C42.6,78.2,42.1,75.8,40.4,74.7z"/>
		<g id="_xF672_-copy_2_">
			<path class="st0" d="M54.4,51.7c0.5,0,0.9-0.2,1.2-0.5c0.3-0.3,0.5-0.7,0.5-1.2s-0.2-0.9-0.5-1.2c-0.3-0.3-0.7-0.5-1.2-0.5
				c-2.3,0-4.3-0.8-5.9-2.5c-1.7-1.7-2.5-3.6-2.5-5.9c0-0.5-0.2-0.9-0.5-1.2c-0.3-0.3-0.7-0.5-1.2-0.5s-0.9,0.2-1.2,0.5
				c-0.3,0.3-0.5,0.7-0.5,1.2c0,2.1,0.5,4,1.6,5.9c1.1,1.8,2.5,3.3,4.3,4.3C50.3,51.2,52.3,51.7,54.4,51.7z M54.4,58.3
				c3.4,0,6.5-0.8,9.3-2.5c2.8-1.7,5.1-3.9,6.7-6.8c1.7-2.8,2.5-6,2.5-9.4c0-2.3-0.4-4.5-1.2-6.6c-0.8-2.1-1.9-4-3.4-5.7
				c-1.3-1.4-2.5-3.2-3.6-5.4c-1.1-2-1.7-3.4-1.9-4.3H46c-0.2,0.9-0.7,2.3-1.8,4.3c-1.2,2.2-2.4,4-3.7,5.4c-1.5,1.7-2.6,3.6-3.4,5.7
				c-0.8,2.1-1.2,4.3-1.2,6.6c0,3.2,0.8,6.3,2.3,9.1c1.6,2.8,3.8,5.1,6.6,6.8C47.7,57.5,50.9,58.3,54.4,58.3z M65.9,29.6
				c1.3,1.4,2.2,3,2.8,4.7c0.6,1.7,1,3.5,1,5.3c0,2.7-0.7,5.3-2.1,7.6c-1.3,2.3-3.2,4.2-5.5,5.6c-2.3,1.4-4.9,2.1-7.7,2.1
				c-2.8,0-5.4-0.7-7.7-2.1c-2.3-1.4-4.1-3.2-5.4-5.6c-1.3-2.3-2-4.9-2-7.5c0-3.8,1.3-7.1,3.8-10.1c0.9-0.9,1.7-2.1,2.7-3.6
				c1.1-1.7,1.9-3.4,2.7-5h12.3c0.7,1.7,1.6,3.3,2.7,5C64.2,27.5,65.1,28.7,65.9,29.6z"/>
		</g>
		<g id="Rectangle-Copy-2_2_">
			<path class="st0" d="M49,4.3h11c1.5,0,2.7,1.2,2.7,2.7v1.1H46.3V7C46.3,5.5,47.5,4.3,49,4.3z"/>
		</g>
		<g id="Rectangle-Copy_2_">
			<rect x="46.3" y="11.2" class="st0" width="16.4" height="3.8"/>
		</g>
		<path class="st0" d="M56.5,77.4c-0.6-0.4-1.3-0.6-2-0.6l0,0c-1.3,0-2.5,0.7-3.2,1.7c-0.5,0.9-0.7,1.9-0.5,2.8
			c0.2,1,0.8,1.8,1.7,2.3c0.6,0.4,1.3,0.6,2,0.6c1,0,2-0.4,2.7-1.1c0.2-0.2,0.4-0.4,0.5-0.6C58.7,80.9,58.2,78.5,56.5,77.4z"/>
		<path class="st0" d="M52.8,72.3c0.5,0.3,1.1,0.5,1.6,0.5c0.8,0,1.5-0.3,2.1-0.9c0.2-0.2,0.3-0.3,0.4-0.5c0.9-1.4,0.5-3.2-0.9-4.1
			c-0.7-0.4-1.5-0.6-2.2-0.4c-0.8,0.2-1.5,0.6-1.8,1.3c-0.4,0.7-0.6,1.5-0.4,2.2C51.7,71.2,52.2,71.9,52.8,72.3z"/>
		<path class="st0" d="M68.6,69.5c0.9-1.4,0.5-3.2-0.9-4.1c-0.7-0.4-1.5-0.6-2.2-0.4c-0.8,0.2-1.5,0.6-1.8,1.3
			c-0.4,0.7-0.6,1.5-0.4,2.2s0.6,1.5,1.3,1.8c0.5,0.3,1.1,0.5,1.6,0.5c0.8,0,1.5-0.3,2.1-0.9C68.4,69.8,68.5,69.6,68.6,69.5z"/>
		<path class="st0" d="M44.4,65.4c-0.7-0.4-1.5-0.6-2.2-0.4c-0.8,0.2-1.5,0.6-1.8,1.3c-0.4,0.7-0.6,1.5-0.4,2.2s0.6,1.5,1.3,1.8
			c0.5,0.3,1.1,0.5,1.6,0.5c0.8,0,1.5-0.3,2.1-0.9c0.2-0.2,0.3-0.3,0.4-0.5c0.4-0.7,0.6-1.5,0.4-2.2C45.4,66.5,45,65.8,44.4,65.4z"
			/>
		<path class="st0" d="M27.3,65.9c-0.6-0.4-1.3-0.6-2-0.6c-1.3,0-2.5,0.7-3.2,1.7c-0.5,0.9-0.7,1.9-0.5,2.8c0.2,1,0.8,1.8,1.7,2.3
			c0.6,0.4,1.3,0.6,2,0.6c1,0,2-0.4,2.7-1.1c0.2-0.2,0.4-0.4,0.5-0.6C29.6,69.4,29.1,67.1,27.3,65.9z"/>
		<path class="st0" d="M85.6,65.9c-0.6-0.4-1.3-0.6-2-0.6c-1.3,0-2.5,0.7-3.2,1.7c-0.5,0.9-0.7,1.9-0.5,2.8c0.2,1,0.8,1.8,1.7,2.3
			c0.6,0.4,1.3,0.6,2,0.6c1,0,2-0.4,2.7-1.1c0.2-0.2,0.4-0.4,0.5-0.6C87.8,69.4,87.3,67.1,85.6,65.9z"/>
		<path class="st0" d="M34.7,58.8c-0.7-0.4-1.5-0.6-2.2-0.4c-0.8,0.2-1.5,0.6-1.8,1.3c-0.4,0.7-0.6,1.5-0.4,2.2
			c0.2,0.8,0.6,1.5,1.3,1.8c0.5,0.3,1.1,0.5,1.6,0.5c0.8,0,1.5-0.3,2.1-0.9c0.2-0.2,0.3-0.3,0.4-0.5C36.5,61.5,36.1,59.7,34.7,58.8z
			"/>
		<path class="st0" d="M77.3,58.8c-0.7-0.4-1.5-0.6-2.2-0.4c-0.8,0.2-1.5,0.6-1.8,1.3c-0.4,0.7-0.6,1.5-0.4,2.2
			c0.2,0.8,0.6,1.5,1.3,1.8c0.5,0.3,1.1,0.5,1.6,0.5c0.8,0,1.5-0.3,2.1-0.9c0.2-0.2,0.3-0.3,0.4-0.5C79.1,61.5,78.7,59.7,77.3,58.8z
			"/>
	</g>
</g>
</svg>
