<?xml version="1.0" encoding="UTF-8" standalone="no"?>
<svg width="168px" height="105px" viewBox="0 0 168 105" version="1.1" xmlns="http://www.w3.org/2000/svg" xmlns:xlink="http://www.w3.org/1999/xlink">
    <!-- Generator: Sketch 41.2 (35397) - http://www.bohemiancoding.com/sketch -->
    <title>Group 21</title>
    <desc>Created with Sketch.</desc>
    <defs></defs>
    <g id="Page-1" stroke="none" stroke-width="1" fill="none" fill-rule="evenodd">
        <g id="Group-21">
            <g id="Group-19" transform="translate(17.833822, 77.240100)">
                <path d="M0,4.00048327 L27.9806513,4.00048327 L27.9806513,26.7724649 L0,26.7724649 C0,26.7724649 4.05772753,15.3870037 4.09448873,15.3870037 C4.13124993,15.3870037 0,4.00048327 0,4.00048327 Z" id="Rectangle-2-Copy-3" fill="#FB7881"></path>
                <path d="M104.850573,4.00048327 L132.831224,4.00048327 L132.831224,26.7724649 L104.850573,26.7724649 C104.850573,26.7724649 108.9083,15.3870037 108.945061,15.3870037 C108.981822,15.3870037 104.850573,4.00048327 104.850573,4.00048327 Z" id="Rectangle-2-Copy-4" fill="#FB7881" transform="translate(118.840898, 15.386474) scale(-1, 1) translate(-118.840898, -15.386474) "></path>
                <rect id="Rectangle-2-Copy-5" fill="#F64B57" x="13.8365858" y="0" width="104.850573" height="22.7719817"></rect>
                <path d="M21.7840132,6.32691815 C22.7363851,6.32691815 23.5025143,6.56520096 24.0824239,7.04177374 C24.6623335,7.51834651 25.0607206,8.13882552 25.2775974,8.90322937 L24.0753518,9.14387383 C23.8867634,8.58708583 23.5920983,8.14590874 23.1913477,7.82032932 C22.7905972,7.4947499 22.3214904,7.33196264 21.7840132,7.33196264 C21.0390887,7.33196264 20.4214707,7.64338176 19.9311406,8.26622934 C19.4408106,8.88907693 19.1956492,9.75491646 19.1956492,10.8637739 C19.1956492,11.9726313 19.4148801,12.8620632 19.8533483,13.5320962 C20.2918165,14.2021292 20.9353651,14.5371407 21.7840132,14.5371407 C22.49122,14.5371407 23.049905,14.3507611 23.460085,13.9779963 C23.8702649,13.6052314 24.0753518,13.1121511 24.0753518,12.4987406 L25.2775974,12.4987406 C25.2775974,13.433012 24.9593591,14.173812 24.322873,14.721163 C23.6863869,15.2685139 22.8141782,15.5421852 21.7062209,15.5421852 C20.5982635,15.5421852 19.7024817,15.1175228 19.0188484,14.2681852 C18.3352152,13.4188475 17.9934037,12.2816959 17.9934037,10.8566961 C17.9934037,9.43169634 18.3470018,8.3204963 19.0542086,7.52306265 C19.7614154,6.72562899 20.6713412,6.32691815 21.7840132,6.32691815 Z M31.9677404,14.0416963 C31.5056986,15.0231531 30.7560706,15.5138741 29.718834,15.5138741 C28.9550506,15.5138741 28.3397899,15.3015429 27.8730334,14.8768741 C27.4062769,14.4522053 27.1729022,13.7963377 27.1729022,12.9092518 L27.1729022,8.60596269 L28.2902834,8.60596269 L28.2902834,12.8243184 C28.2902834,13.9662057 28.8183232,14.5371407 29.8744187,14.5371407 C30.4873313,14.5371407 30.9847259,14.3012172 31.3666176,13.8293629 C31.7485093,13.3575087 31.9488815,12.7535443 31.9677404,12.0174517 L31.9677404,8.60596269 L33.0851216,8.60596269 L33.0851216,15.3864741 L31.9677404,15.3864741 L31.9677404,14.0416963 Z M38.2759936,14.6362296 C39.2095066,14.6362296 39.7422611,14.2257226 39.874273,13.4046962 L41.0199423,13.4046962 C40.9162186,14.0841663 40.6168389,14.6102759 40.1217941,14.9830407 C39.6267494,15.3558056 39.0114887,15.5421852 38.2759936,15.5421852 C37.3707689,15.5421852 36.6352848,15.2189699 36.0695194,14.5725296 C35.5037539,13.9260893 35.2208754,13.0649683 35.2208754,11.9891406 C35.2208754,10.913313 35.5061113,10.0545511 36.0765914,9.41282939 C36.6470716,8.77110764 37.4061288,8.45025157 38.353786,8.45025157 C39.3014431,8.45025157 40.0086393,8.81829235 40.4753958,9.55438496 C40.9421523,10.2904776 41.1048074,11.1869871 40.963366,12.2439406 L36.3382566,12.2439406 C36.3382566,12.9422849 36.5079837,13.5155792 36.847443,13.9638407 C37.1869023,14.4121022 37.663081,14.6362296 38.2759936,14.6362296 Z M39.0963494,9.51191829 C38.8794726,9.39867327 38.6154527,9.34205161 38.3042817,9.34205161 C37.7290869,9.34205161 37.274124,9.53786818 36.9393794,9.92950719 C36.6046349,10.3211462 36.4089772,10.809508 36.3524007,11.3946073 L39.9591374,11.3946073 C39.9591374,10.4508988 39.6715443,9.82334208 39.0963494,9.51191829 Z M44.3013655,9.92242942 C44.7445484,8.94097261 45.5036057,8.45025157 46.57856,8.45025157 C47.3800611,8.45025157 48.0047511,8.71448598 48.4526487,9.24296272 C48.9005464,9.77143946 49.1244918,10.4933656 49.1244918,11.4087628 L49.1244918,15.3864741 L48.0212547,15.3864741 L48.0212547,11.4087628 C48.0212547,10.757604 47.8680289,10.2668829 47.5615726,9.93658497 C47.2551163,9.60628701 46.819012,9.44114051 46.2532465,9.44114051 C45.6874811,9.44114051 45.2301609,9.67234561 44.8812722,10.1347628 C44.5323835,10.5971799 44.3485125,11.238892 44.3296536,12.0599184 L44.3296536,15.3864741 L43.2122725,15.3864741 L43.2122725,8.62011825 L44.1740689,8.62011825 L44.3013655,9.92242942 Z M55.2913044,15.1882963 C54.4803739,15.5657797 53.7401752,15.6459937 53.0706861,15.4289408 C52.5897855,15.2779474 52.2503313,14.9618098 52.0523134,14.4805185 C51.9485897,14.2445914 51.8967287,13.9614831 51.8967287,13.6311851 L51.8967287,9.46945162 L50.8076356,9.46945162 L50.8076356,8.62011825 L51.8967287,8.62011825 L51.8967287,6.73742928 L52.9999658,6.73742928 L52.9999658,8.62011825 L55.1215756,8.62011825 L55.1215756,9.46945162 L52.9999658,9.46945162 L52.9999658,13.6170296 C52.9999658,14.3059368 53.3205614,14.6503852 53.9617622,14.6503852 C54.3106509,14.6503852 54.7019662,14.5654527 55.1357197,14.3955852 L55.2913044,15.1882963 Z M61.2601,10.9982517 C61.2601,10.3848412 61.1328047,9.94602333 60.8782103,9.68178496 C60.6236158,9.41754659 60.2535165,9.28542939 59.7679011,9.28542939 C59.2822858,9.28542939 58.8909705,9.38215805 58.5939437,9.57561829 C58.2969168,9.76907852 58.1484056,10.0734199 58.1484056,10.4886517 L56.9178719,10.4886517 C56.9178719,9.45057235 57.4741996,8.80886022 58.5868717,8.56349602 C58.9263309,8.48799935 59.2940729,8.45025157 59.6901088,8.45025157 C60.5293275,8.45025157 61.1846627,8.66258279 61.6561339,9.0872516 C62.1276051,9.51192041 62.3633371,10.158351 62.3633371,11.0265628 L62.3633371,15.3864741 L61.4015407,15.3864741 L61.2883882,14.2540296 C60.8734935,15.1128043 60.1238655,15.5421852 59.0394817,15.5421852 C58.3134161,15.5421852 57.7311579,15.3392909 57.2926897,14.9334963 C56.8542214,14.5277017 56.6349906,14.0228252 56.6349906,13.4188518 C56.6349906,12.8148784 56.8777946,12.3430312 57.36341,12.0032962 C57.8490253,11.6635611 58.4548567,11.4936962 59.1809224,11.4936962 C59.9069881,11.4936962 60.6000403,11.6163764 61.2601,11.8617406 L61.2601,10.9982517 Z M61.2601,12.5695184 C60.5906109,12.3807767 60.0059954,12.2864073 59.5062359,12.2864073 C59.0064764,12.2864073 58.6010173,12.3760583 58.2898463,12.5553629 C57.9786753,12.7346675 57.8230921,13.0177758 57.8230921,13.4046962 C57.8230921,14.2540339 58.3039855,14.6786963 59.2657868,14.6786963 C59.8126934,14.6786963 60.2818002,14.4828797 60.6731213,14.0912407 C61.0644424,13.6996017 61.2601,13.192366 61.2601,12.5695184 Z M69.4070818,9.65347385 C69.8502647,8.85132165 70.5126718,8.45025157 71.394323,8.45025157 C72.2759741,8.45025157 73.0114582,8.77582611 73.6007972,9.42698495 C74.1901362,10.0781438 74.4848013,10.9369056 74.4848013,12.0032962 C74.4848013,13.0696867 74.1877789,13.9260893 73.5937251,14.5725296 C72.9996714,15.2189699 72.268902,15.5421852 71.401395,15.5421852 C70.533888,15.5421852 69.8926967,15.2166107 69.4778021,14.5654518 L69.4778021,18.7130298 L68.3604209,18.7130298 L68.3604209,8.62011825 L69.2797852,8.62011825 L69.4070818,9.65347385 Z M72.7380092,13.8718296 C73.1387597,13.4188495 73.339132,12.7983705 73.339132,12.010374 C73.339132,11.2223774 73.148189,10.5971799 72.7662973,10.1347628 C72.3844056,9.67234561 71.9200135,9.44114051 71.3731069,9.44114051 C70.8262003,9.44114051 70.3783093,9.61336472 70.0294206,9.95781831 C69.6805319,10.3022719 69.4966609,10.7670413 69.4778021,11.3521406 L69.4778021,12.6402962 C69.4778021,13.2348325 69.6569585,13.7019612 70.0152766,14.0416963 C70.3735947,14.3814313 70.816771,14.5512963 71.3448187,14.5512963 C71.8728665,14.5512963 72.3372587,14.3248096 72.7380092,13.8718296 Z M79.1099107,15.5138741 C78.3461273,15.5138741 77.7308666,15.3015429 77.2641101,14.8768741 C76.7973536,14.4522053 76.5639789,13.7963377 76.5639789,12.9092518 L76.5639789,8.60596269 L77.6813601,8.60596269 L77.6813601,12.8243184 C77.6813601,13.9662057 78.2093999,14.5371407 79.2654954,14.5371407 C79.8878374,14.5371407 80.392304,14.2941394 80.7789104,13.8081296 C81.1655168,13.3221197 81.3588171,12.6874853 81.3588171,11.9042073 L81.3588171,8.60596269 L82.4761983,8.60596269 L82.4761983,15.3864741 L81.3588171,15.3864741 L81.3588171,14.0416963 C80.8967753,15.0231531 80.1471473,15.5138741 79.1099107,15.5138741 Z M81.4578256,5.49174033 L78.0066736,7.09131818 L77.6813601,6.38354037 L81.0052155,4.5008514 L81.4578256,5.49174033 Z M86.4506807,9.62516274 C86.903293,8.84188471 87.5633428,8.45025157 88.4308499,8.45025157 C89.2983569,8.45025157 90.019697,8.77346687 90.5948919,9.41990717 C91.1700867,10.0663475 91.4576799,10.9203908 91.4576799,11.9820628 C91.4576799,13.0437349 91.1653721,13.9024967 90.5807478,14.5583741 C89.9961235,15.2142514 89.2842127,15.5421852 88.4449939,15.5421852 C87.9923816,15.5421852 87.5845651,15.4289419 87.2215323,15.2024519 C86.8584994,14.9759618 86.5732636,14.6409504 86.3658163,14.1974074 L86.1112231,15.3864741 L85.3332995,15.3864741 L85.3332995,5.74654035 L86.4506807,5.74654035 L86.4506807,9.62516274 Z M87.0164433,9.95781831 C86.6581252,10.3022719 86.4695395,10.7811968 86.4506807,11.3946073 L86.4506807,12.4987406 C86.4506807,13.1215882 86.636909,13.619387 87.0093713,13.9921518 C87.3818335,14.3649167 87.8320818,14.5512963 88.3601295,14.5512963 C88.8881773,14.5512963 89.3454975,14.3177319 89.7321039,13.8505963 C90.1187103,13.3834606 90.3120106,12.7629816 90.3120106,11.9891406 C90.3120106,11.2152997 90.1210676,10.5971799 89.7391759,10.1347628 C89.3572842,9.67234561 88.8976067,9.44114051 88.3601295,9.44114051 C87.8226524,9.44114051 87.3747614,9.61336472 87.0164433,9.95781831 Z M93.5934338,5.74654035 L94.7108149,5.74654035 L94.7108149,15.3864741 L93.5934338,15.3864741 L93.5934338,5.74654035 Z M97.6244924,8.60596269 L98.7418736,8.60596269 L98.7418736,15.3864741 L97.6244924,15.3864741 L97.6244924,8.60596269 Z M97.6457085,6.82944039 C97.5184113,6.70203975 97.4547636,6.53217477 97.4547636,6.31984037 C97.4547636,6.10750597 97.5184113,5.93764099 97.6457085,5.81024035 C97.7730058,5.68283971 97.9498048,5.61914034 98.176111,5.61914034 C98.4024172,5.61914034 98.5839309,5.68283971 98.7206575,5.81024035 C98.8573842,5.93764099 98.9257465,6.10750597 98.9257465,6.31984037 C98.9257465,6.53217477 98.8573842,6.70203975 98.7206575,6.82944039 C98.5839309,6.95684104 98.4024172,7.0205404 98.176111,7.0205404 C97.9498048,7.0205404 97.7730058,6.95684104 97.6457085,6.82944039 Z M105.941203,9.06601827 C106.412674,9.47653145 106.719126,9.98848561 106.860567,10.6018961 L105.729042,10.700985 C105.606459,10.3046275 105.408445,9.99556756 105.134991,9.77379608 C104.861538,9.55202459 104.559801,9.44114051 104.229771,9.44114051 C103.626288,9.44114051 103.138322,9.66762714 102.76586,10.1206072 C102.393398,10.5735873 102.20717,11.1893478 102.20717,11.9679073 C102.20717,12.7464668 102.388683,13.3716642 102.751716,13.8435185 C103.114749,14.3153727 103.567355,14.5512963 104.109546,14.5512963 C104.651738,14.5512963 105.057198,14.4262568 105.325936,14.176174 C105.594675,13.9260913 105.729042,13.5698467 105.729042,13.1074296 L106.874711,13.1074296 C106.874711,13.8340851 106.622478,14.4215348 106.118004,14.8697963 C105.61353,15.3180578 104.955837,15.5421852 104.144907,15.5421852 C103.286829,15.5421852 102.558417,15.2166107 101.959649,14.5654518 C101.36088,13.914293 101.0615,13.0484535 101.0615,11.9679073 C101.0615,10.8873611 101.358523,10.0309585 101.952576,9.39867384 C102.54663,8.76638917 103.24204,8.45025157 104.038826,8.45025157 C104.835612,8.45025157 105.469732,8.65550509 105.941203,9.06601827 Z M113.253685,10.9982517 C113.253685,10.3848412 113.126389,9.94602333 112.871795,9.68178496 C112.617201,9.41754659 112.247101,9.28542939 111.761486,9.28542939 C111.275871,9.28542939 110.884555,9.38215805 110.587528,9.57561829 C110.290502,9.76907852 110.14199,10.0734199 110.14199,10.4886517 L108.911457,10.4886517 C108.911457,9.45057235 109.467784,8.80886022 110.580456,8.56349602 C110.919916,8.48799935 111.287658,8.45025157 111.683694,8.45025157 C112.522912,8.45025157 113.178247,8.66258279 113.649719,9.0872516 C114.12119,9.51192041 114.356922,10.158351 114.356922,11.0265628 L114.356922,15.3864741 L113.395125,15.3864741 L113.281973,14.2540296 C112.867078,15.1128043 112.11745,15.5421852 111.033067,15.5421852 C110.307001,15.5421852 109.724743,15.3392909 109.286274,14.9334963 C108.847806,14.5277017 108.628575,14.0228252 108.628575,13.4188518 C108.628575,12.8148784 108.871379,12.3430312 109.356995,12.0032962 C109.84261,11.6635611 110.448442,11.4936962 111.174507,11.4936962 C111.900573,11.4936962 112.593625,11.6163764 113.253685,11.8617406 L113.253685,10.9982517 Z M113.253685,12.5695184 C112.584196,12.3807767 111.99958,12.2864073 111.499821,12.2864073 C111.000061,12.2864073 110.594602,12.3760583 110.283431,12.5553629 C109.97226,12.7346675 109.816677,13.0177758 109.816677,13.4046962 C109.816677,14.2540339 110.29757,14.6786963 111.259372,14.6786963 C111.806278,14.6786963 112.275385,14.4828797 112.666706,14.0912407 C113.058027,13.6996017 113.253685,13.192366 113.253685,12.5695184 Z" id="Cuenta-pública-Copy" fill="#FFFFFF"></path>
            </g>
            <g id="Group-15-Copy-3">
                <g id="Group-14" transform="translate(145.567069, 37.959615)" fill="#FFFFFF">
                    <g id="Group-3" transform="translate(0.000000, 17.005248)">
                        <path d="M0,1.89795582 C0,1.31577023 0.13289946,0.874510522 0.399472177,0.574754252 C0.665657995,0.27480546 1.04791321,0.125023585 1.54565748,0.125023585 C2.05210695,0.125023585 2.44732325,0.27480546 2.73130637,0.574754252 C3.0149026,0.874510522 3.15689416,1.31577023 3.15689416,1.89795582 C3.15689416,2.46300698 3.01277466,2.89752844 2.72453566,3.20152018 C2.4364901,3.50570445 2.04340174,3.65798911 1.54565748,3.65798911 C1.10033789,3.65798911 0.731237204,3.52110619 0.438742323,3.24714782 C0.146053992,2.97338198 0,2.52365131 0,1.89795582" id="Fill-1"></path>
                    </g>
                    <path d="M13.1910936,20.5458377 C11.1124841,20.5458377 9.50356882,19.9091685 8.36396079,18.6360225 C7.22435275,17.3628766 6.65445201,15.5614512 6.65445201,13.2321312 C6.65445201,10.842167 7.23286451,8.99530641 8.39026985,7.69154953 C9.54728829,6.38798517 11.1954737,5.73610673 13.3352131,5.73610673 C14.0250522,5.73610673 14.7148913,5.81003506 15.4049239,5.95769919 C16.094763,6.10574837 16.6362267,6.27940294 17.0293151,6.47924045 L16.3611423,8.31743754 C15.8808084,8.1262635 15.3567551,7.96762563 14.7891757,7.84152393 C14.2214029,7.71561474 13.7194028,7.65246763 13.2827884,7.65246763 C10.3659644,7.65246763 8.90755246,9.50375619 8.90755246,13.2061408 C8.90755246,14.9619386 9.26330517,16.3088204 9.97519747,17.2475561 C10.6868963,18.1860993 11.7413868,18.6554672 13.1386689,18.6554672 C14.3351509,18.6554672 15.5621979,18.3992209 16.8196164,17.8863431 L16.8196164,19.802704 C15.8589487,20.2980623 14.6495056,20.5458377 13.1910936,20.5458377" id="Fill-4"></path>
                    <polygon id="Fill-6" points="20.2254794 20.2850478 22.4000396 20.2850478 22.4000396 0 20.2254794 0"></polygon>
                </g>
                <path d="M47.425745,7.49280763 L44.2142913,7.49280763 L44.2142913,25.7558227 L47.2176037,25.7558227 C52.0555063,25.7558227 52.8079461,20.4756217 52.8079461,16.7507296 C52.8079461,13.1563594 52.2627266,7.49280763 47.425745,7.49280763 Z M47.2176037,29.6431824 L39.7134671,29.6431824 L39.7134671,3.60727337 L47.5924422,3.60727337 C55.1407859,3.60727337 57.3925794,10.3040469 57.3925794,16.6631066 C57.3925794,23.1189167 54.6406943,29.6431824 47.2176037,29.6431824 Z" id="Fill-1-Copy" fill="#0F0F28"></path>
                <polygon id="Fill-3-Copy" fill="#0F0F28" points="62.277937 29.6422697 66.7759983 29.6422697 66.7759983 3.60727337 62.277937 3.60727337"></polygon>
                <path d="M81.5229076,29.9781268 C73.887071,29.9781268 71.3037249,22.7455749 71.3037249,16.3381399 C71.3037249,10.3076666 74.5170206,2.70545503 81.6021118,2.70545503 C83.7258894,2.70545503 86.6472347,3.28230672 88.3998576,4.56288097 L86.6472347,7.66528429 C85.272213,6.83925457 83.1438306,6.54900325 81.6021118,6.54900325 C77.7238694,6.54900325 75.8496772,12.9527872 75.8496772,16.5051714 C75.8496772,20.1899028 76.8498603,26.094418 81.6849999,26.094418 C83.3132908,26.094418 85.3136571,25.5148281 86.6877577,24.5235924 L88.780222,27.5812715 C86.940106,29.1119365 83.9386355,29.9781268 81.5229076,29.9781268" id="Fill-5-Copy" fill="#0F0F28"></path>
                <polygon id="Fill-6-Copy" fill="#0F0F28" points="105.094909 29.6422697 105.094909 18.1125377 97.5078844 18.1125377 97.5078844 29.6422697 92.9656161 29.6422697 92.9656161 3.60727337 97.5078844 3.60727337 97.5078844 14.0627103 105.094909 14.0627103 105.094909 3.60727337 109.645466 3.60727337 109.645466 29.6422697"></polygon>
                <path d="M123.966234,6.67039767 C120.176406,6.67039767 119.173459,12.2883125 119.173459,16.3381399 C119.173459,20.3897929 120.176406,26.0131841 123.966234,26.0131841 C127.76343,26.0131841 128.763613,20.3897929 128.763613,16.3381399 C128.763613,12.2883125 127.76343,6.67039767 123.966234,6.67039767 M123.966234,29.9781268 C117.172172,29.9781268 114.627507,22.457149 114.627507,16.3381399 C114.627507,10.2273455 117.298346,2.70545503 123.966234,2.70545503 C130.72622,2.70545503 133.311408,10.2273455 133.311408,16.3381399 C133.311408,22.457149 130.72622,29.9781268 123.966234,29.9781268" id="Fill-7-Copy" fill="#0F0F28"></path>
                <path d="M6.74064511,11.5408408 C3.21605858,11.5408408 2.08417542,15.8617521 2.08417542,18.6510856 C2.08417542,20.4747401 2.70399427,22.2454558 4.84527038,22.2454558 C7.52439822,22.2454558 7.9894926,19.2160716 8.33670167,17.2016544 L9.12782261,12.7465704 C8.57984012,11.9962981 7.63215276,11.5408408 6.74064511,11.5408408 M0,18.4886178 C0,14.4132337 2.32455093,9.90612344 6.93128776,9.90612344 C7.82279541,9.90612344 8.84968696,10.3086418 9.39306456,11.0278809 C9.60949462,9.87691576 9.82684565,8.6711862 9.82684565,7.51748282 C9.82684565,6.79002902 9.6629114,5.79605514 9.25860163,5.20825057 L10.8565001,4.50909171 C11.5076323,5.42183173 11.8318169,6.79002902 11.8318169,7.89170622 C11.8318169,8.24311113 11.8041875,8.59086508 11.7480078,8.91214956 L10.1768177,18.3553578 C9.69146174,21.3053335 8.01620099,23.8564419 4.71080745,23.8564419 C1.48830202,23.8564419 0,21.4422445 0,18.4886178" id="Fill-8-Copy" fill="#FFFFFF"></path>
                <path d="M19.9827718,11.5264242 C17.7088747,11.5264242 16.2205727,14.5320771 15.8706007,16.4132343 C17.7650545,16.0098032 21.4996242,15.1217071 21.4996242,12.6828658 C21.4996242,11.7947698 20.7692879,11.5264242 19.9827718,11.5264242 M15.7057455,18.0479516 C15.6771951,18.2597073 15.6771951,18.4787649 15.6771951,18.6649639 C15.6771951,20.114395 16.3577986,22.2593341 18.1454188,22.2593341 C19.4670236,22.2593341 20.982955,21.2708366 21.856964,20.3261507 L22.6674255,21.4305661 C21.3126655,22.8480514 19.6899005,23.8703202 17.6812454,23.8703202 C14.7322707,23.8703202 13.538682,21.2708366 13.538682,18.7233792 C13.538682,14.7757787 15.8963881,9.92000177 20.415632,9.92000177 C22.3128486,9.92000177 23.7237884,10.856473 23.7237884,12.8407698 C23.7237884,16.2224716 18.3056691,17.5121732 15.7057455,18.0479516" id="Fill-9-Copy" fill="#FFFFFF"></path>
                <path d="M28.3648731,18.7469545 C28.2248843,19.5236962 28.151206,20.3287329 28.151206,21.1319441 C28.151206,21.8338412 28.2248843,23.0651275 28.5288074,23.7122602 L26.6076452,24.2726825 C26.2788557,23.358117 26.1747851,22.0191274 26.1747851,21.079918 C26.1747851,20.300438 26.2272809,19.5236962 26.3617438,18.7469545 L28.499336,5.41091006 L30.5024653,5.41091006 L28.3648731,18.7469545 Z" id="Fill-10-Copy" fill="#FFFFFF"></path>
                <path d="M45.6215084,3.88370878 L42.4137386,3.88370878 L42.4137386,22.1458111 L45.4133671,22.1458111 C50.2512697,22.1458111 51.0064724,16.8646973 51.0064724,13.1434563 C51.0064724,9.54543511 50.4594109,3.88370878 45.6215084,3.88370878 M45.4133671,26.0322581 L37.9083095,26.0322581 L37.9083095,0 L45.7918895,0 C53.3374702,0 55.5920267,6.69586077 55.5920267,13.0558332 C55.5920267,19.5079924 52.8364577,26.0322581 45.4133671,26.0322581" id="Fill-11-Copy" fill="#FFFFFF"></path>
                <polygon id="Fill-12-Copy" fill="#FFFFFF" points="60.4727794 26.0322581 64.9736036 26.0322581 64.9736036 0 60.4727794 0"></polygon>
                <path d="M79.7177501,27.2699335 C72.0809924,27.2699335 69.4985674,20.0382944 69.4985674,13.6335977 C69.4985674,7.60038613 72.710021,0 79.7997172,0 C81.9207318,0 84.8411561,0.577764432 86.5937791,1.85833868 L84.8411561,4.95709104 C83.4670555,4.1328868 81.3377521,3.84446096 79.7997172,3.84446096 C75.9214747,3.84446096 74.0435986,10.244594 74.0435986,13.8006291 C74.0435986,17.4817096 75.0447027,23.3862248 79.8816843,23.3862248 C81.5072122,23.3862248 83.5075785,22.8084603 84.8826001,21.8172247 L86.9741434,24.8758165 C85.1377113,26.4064815 82.1334779,27.2699335 79.7177501,27.2699335" id="Fill-13-Copy" fill="#FFFFFF"></path>
                <polygon id="Fill-14-Copy" fill="#FFFFFF" points="103.289752 26.0322581 103.289752 14.5052644 95.7054897 14.5052644 95.7054897 26.0322581 91.1604585 26.0322581 91.1604585 0 95.7054897 0 95.7054897 10.4563497 103.289752 10.4563497 103.289752 0 107.840309 0 107.840309 26.0322581"></polygon>
                <path d="M122.161076,3.96585538 C118.371248,3.96585538 117.370144,9.58011923 117.370144,13.6335977 C117.370144,17.6843379 118.371248,23.3040781 122.161076,23.3040781 C125.960115,23.3040781 126.957535,17.6843379 126.957535,13.6335977 C126.957535,9.58011923 125.960115,3.96585538 122.161076,3.96585538 M122.161076,27.2699335 C115.369777,27.2699335 112.82235,19.751694 112.82235,13.6335977 C112.82235,7.52006501 115.493189,0 122.161076,0 C128.920141,0 131.505329,7.52006501 131.505329,13.6335977 C131.505329,19.751694 128.920141,27.2699335 122.161076,27.2699335" id="Fill-15-Copy" fill="#FFFFFF"></path>
                <g id="Group-2" transform="translate(13.538682, 34.063484)">
                    <path d="M7.08969614,11.817835 C3.8460082,11.817835 2.19100898,17.6931425 2.19100898,20.2442509 C2.19100898,20.8895581 2.25179359,22.2823993 3.19487606,22.2823993 C5.19616337,22.2823993 7.55479052,19.0093136 7.85318771,17.2121285 C8.12211357,15.4934391 8.41682684,13.7510184 8.69127858,12.0031213 C8.17460937,11.870774 7.63583667,11.817835 7.08969614,11.817835 L7.08969614,11.817835 Z M9.17571352,21.8242039 C9.17571352,21.9054377 9.154531,21.9866716 9.154531,22.0441742 C9.154531,22.4476053 9.37188204,22.684005 9.77434985,22.684005 C9.98801697,22.684005 10.2311554,22.6036838 10.4208771,22.5233627 L10.774533,23.5456315 C10.2311554,23.866916 9.60488972,24.0522022 8.98875479,24.0522022 C7.85318771,24.0522022 7.06575069,23.2444273 7.06575069,22.1254081 C7.06575069,21.6644744 7.22692201,21.2354865 7.28218075,20.7772911 C6.50211156,22.3891899 4.22360957,24.0823227 2.38165163,24.0823227 C0.321421662,24.0823227 0,22.0441742 0,20.4322753 C0,16.5376137 2.30244744,10.125615 7.06575069,10.125615 C8.33578069,10.125615 9.58739112,10.315465 10.8307127,10.5564283 L9.17571352,21.8242039 Z" id="Fill-16-Copy" fill="#FFFFFF"></path>
                    <path d="M16.6341117,18.9562187 C16.4996488,19.7329604 16.4149187,20.5352589 16.4149187,21.3412084 C16.4149187,22.0431054 16.4996488,23.2725662 16.795283,23.9178734 L14.8713579,24.4837722 C14.5490153,23.5701195 14.4412607,22.2283917 14.4412607,21.2891822 C14.4412607,20.5124404 14.4965195,19.7329604 14.6328244,18.9562187 L16.7685746,5.61652332 L18.7717039,5.61652332 L16.6341117,18.9562187 Z" id="Fill-17-Copy" fill="#FFFFFF"></path>
                    <polygon id="Fill-18-Copy" fill="#0F0F28" points="39.2140248 29.8424065 39.2140248 18.3172383 31.627921 18.3172383 31.627921 29.8424065 27.0773639 29.8424065 27.0773639 3.81288664 31.627921 3.81288664 31.627921 14.2664981 39.2140248 14.2664981 39.2140248 3.81288664 43.7572141 3.81288664 43.7572141 29.8424065"></polygon>
                    <polygon id="Fill-19-Copy" fill="#0F0F28" points="49.6418338 29.8424065 49.6418338 3.81288664 63.8184632 3.81288664 63.8184632 7.82255354 54.1868651 7.82255354 54.1868651 14.2664981 61.5685115 14.2664981 61.5685115 18.3172383 54.1868651 18.3172383 54.1868651 25.7533312 64.2393506 25.7533312 64.2393506 29.8424065"></polygon>
                    <path d="M77.9061456,30.1810018 C70.2758348,30.1810018 67.6934098,22.9548391 67.6934098,16.5483169 C67.6934098,10.5141926 70.8993376,2.9110683 77.9917966,2.9110683 C80.1146532,2.9110683 83.0295516,3.49157095 84.7858585,4.76940697 L83.0295516,7.87089756 C81.655451,7.0439551 79.5353574,6.75461651 77.9917966,6.75461651 C74.1126332,6.75461651 72.2356781,13.1611387 72.2356781,16.7171738 C72.2356781,20.3918651 73.2358612,26.3027695 78.0765267,26.3027695 C79.6965287,26.3027695 81.700579,25.7195286 83.0774425,24.728293 L85.159776,27.7932739 C83.3270278,29.3175498 80.3255574,30.1810018 77.9061456,30.1810018" id="Fill-20-Copy" fill="#0F0F28"></path>
                    <polygon id="Fill-21-Copy" fill="#0F0F28" points="101.487357 29.8424065 101.487357 18.3172383 93.8975692 18.3172383 93.8975692 29.8424065 89.3553009 29.8424065 89.3553009 3.81288664 93.8975692 3.81288664 93.8975692 14.2664981 101.487357 14.2664981 101.487357 3.81288664 106.029625 3.81288664 106.029625 29.8424065"></polygon>
                    <path d="M120.358682,6.87692368 C116.559643,6.87692368 115.56867,12.5030531 115.56867,16.5492296 C115.56867,20.5981444 116.559643,26.2187974 120.358682,26.2187974 C124.155878,26.2187974 125.153298,20.5981444 125.153298,16.5492296 C125.153298,12.5030531 124.155878,6.87692368 120.358682,6.87692368 M120.358682,30.1810018 C113.561857,30.1810018 111.017192,22.6682387 111.017192,16.5492296 C111.017192,10.435697 113.690794,2.9110683 120.358682,2.9110683 C127.112221,2.9110683 129.69833,10.435697 129.69833,16.5492296 C129.69833,22.6682387 127.112221,30.1810018 120.358682,30.1810018" id="Fill-22-Copy" fill="#0F0F28"></path>
                    <path d="M128.131134,11.4472626 C128.131134,12.1801928 127.53526,12.7752993 126.798477,12.7752993 C126.057089,12.7752993 125.458453,12.1801928 125.458453,11.4472626 C125.458453,10.7198088 126.057089,10.125615 126.798477,10.125615 C127.53526,10.125615 128.131134,10.7198088 128.131134,11.4472626" id="Fill-23-Copy" fill="#FFFFFF"></path>
                    <polygon id="Fill-24-Copy" fill="#FFFFFF" points="37.4070253 27.1369515 37.4070253 15.609045 29.8209215 15.609045 29.8209215 27.1369515 25.2722063 27.1369515 25.2722063 1.10743161 29.8209215 1.10743161 29.8209215 11.5601303 37.4070253 11.5601303 37.4070253 1.10743161 41.9502146 1.10743161 41.9502146 27.1369515"></polygon>
                    <polygon id="Fill-25-Copy" fill="#FFFFFF" points="48.739255 27.1369515 48.739255 1.10743161 62.9186473 1.10743161 62.9186473 5.11618577 53.2842863 5.11618577 53.2842863 11.5601303 60.6668537 11.5601303 60.6668537 15.609045 53.2842863 15.609045 53.2842863 23.0442252 63.3367718 23.0442252 63.3367718 27.1369515"></polygon>
                    <path d="M77.0044878,27.4755468 C69.374177,27.4755468 66.790831,20.2493841 66.790831,13.8419491 C66.790831,7.80782488 69.9976798,0.205613267 77.0892179,0.205613267 C79.2120744,0.205613267 82.1306568,0.784290439 83.8832797,2.0630392 L82.1306568,5.16270431 C80.7565561,4.33484911 78.6336996,4.04916148 77.0892179,4.04916148 C73.2109754,4.04916148 71.3330993,10.4547709 71.3330993,14.010806 C71.3330993,17.6864101 72.3332824,23.5964017 77.1748689,23.5964017 C78.7976338,23.5964017 80.7998421,23.0140736 82.1776267,22.019187 L84.2581182,25.0859934 C82.4235281,26.6084438 79.4257415,27.4755468 77.0044878,27.4755468" id="Fill-26-Copy" fill="#FFFFFF"></path>
                    <polygon id="Fill-27-Copy" fill="#FFFFFF" points="100.588462 27.1369515 100.588462 15.609045 92.9949904 15.609045 92.9949904 27.1369515 88.4527221 27.1369515 88.4527221 1.10743161 92.9949904 1.10743161 92.9949904 11.5601303 100.588462 11.5601303 100.588462 1.10743161 105.127967 1.10743161 105.127967 27.1369515"></polygon>
                    <path d="M119.456103,4.17055591 C115.659828,4.17055591 114.666091,9.79668538 114.666091,13.8428619 C114.666091,17.8926893 115.659828,23.5124296 119.456103,23.5124296 C123.253299,23.5124296 124.253482,17.8926893 124.253482,13.8428619 C124.253482,9.79668538 123.253299,4.17055591 119.456103,4.17055591 M119.456103,27.4755468 C112.659278,27.4755468 110.114613,19.9591327 110.114613,13.8428619 C110.114613,7.72659102 112.788215,0.205613267 119.456103,0.205613267 C126.212405,0.205613267 128.798514,7.72659102 128.798514,13.8428619 C128.798514,19.9591327 126.212405,27.4755468 119.456103,27.4755468" id="Fill-28-Copy" fill="#FFFFFF"></path>
                </g>
            </g>
        </g>
    </g>
</svg>