<?xml version="1.0" encoding="UTF-8" standalone="no"?>
<svg width="292px" height="403px" viewBox="0 0 292 403" version="1.1" xmlns="http://www.w3.org/2000/svg" xmlns:xlink="http://www.w3.org/1999/xlink">
    <!-- Generator: Sketch 41.2 (35397) - http://www.bohemiancoding.com/sketch -->
    <title>Artboard</title>
    <desc>Created with Sketch.</desc>
    <defs>
        <polygon id="path-1" points="0 402 287.912 402 287.912 0.185 0 0.185"></polygon>
        <polygon id="path-3" points="16.221 5.844 13.616 4.439 5.799 11.368 0.125 22.436 1.571 44.089 9.454 70.185 13.385 74.902 20.568 80.96 28.003 85.564 31.721 87.055 36.132 86.552 41.993 84.536 45.948 80.18 51.442 72.831 52.916 69.136 54.603 63.354 58.467 44.089 56.358 30.224 41.585 5.101 26.633 0.999"></polygon>
        <polygon id="path-5" points="0.592 0.577 0.592 0.833 2.012 1.796 2.137 0.577"></polygon>
        <path d="M28.109,1.902 L24.41,3.599 L21.408,3.179 L18.616,4.139 L18.05,4.954 L19.314,4.954 L14.503,10.214 L10.73,16.41 L12.963,10.864 L9.612,15.114 L11.218,11.944 L10.798,11.368 L9.33,13.457 L4.789,22.03 L1.781,30.601 L0.536,40.624 L1.248,41.067 L0.446,49.105 L0.446,54.157 L2.784,54.881 L2.784,54.157 L3.368,55.963 L3.368,58.695 L5.108,63.18 L7.475,66.906 L8.628,67.692 L8.628,69.068 L11.056,70.702 L12.544,70.702 L14.454,69.797 L14.428,64.249 L15.406,61.72 L14.497,57.543 L13.102,54.013 L13.172,50.123 L12.264,46.809 L13.452,43.823 L14.289,40.264 L16.591,35.427 L17.709,27.791 L19.105,23.398 L22.386,18.5 L22.874,14.681 L23.641,13.529 L24.689,15.114 L24.409,15.834 L25.044,16.195 L25.744,14.681 L24.409,13.386 L25.044,11.439 L27.061,13.312 L28.691,17.347 L31.687,21.308 L35.089,22.82 L37.109,25.462 L37.742,25.462 L37.043,23.963 L37.393,21.309 L42.348,24.695 L44.79,27.215 L44.513,27.431 L43.325,26.206 L42.975,26.639 L49.118,33.41 L49.717,33.122 L46.584,28.368 L47.164,28.296 L50.026,33.122 L46.584,35.644 L43.465,36.237 L42.559,37.013 L42.626,38.309 L45.21,38.237 L48.837,36.652 L53.86,36.796 L55.321,38.094 L55.87,37.805 L54.873,36.237 L51.624,34.202 L49.542,30.88 L49.542,28.441 L55.941,33.413 L58.472,37.954 L59.169,42.354 L60.497,43.229 L60.217,54.706 L60.147,61.09 L59.239,65.142 L57.916,69.497 L59.518,69.497 L60.356,68.201 L61.753,61.432 L60.217,60.351 L60.356,59.92 L62.031,60.351 L67.405,46.088 L66.986,39.678 L65.66,33.483 L64.683,28.295 L62.59,22.245 L55.889,11.368 C55.889,11.368 54.772,9.495 54.563,9.495 C54.354,9.495 46.587,5.101 46.587,5.101 L46.121,5.317 L47.241,6.253 L45.502,5.605 L44.128,6.398 L47.495,7.91 L47.474,8.342 L47.419,8.275 L41.36,5.618 L41.36,6.326 L47.229,8.918 L46.886,10.287 L42.418,8.27 L42.696,9.423 L47.374,11.944 L51.4,14.826 L47.095,13.961 L44.051,12.304 L45.419,14.681 L41.023,11.224 L42.419,11.079 L36.146,7.766 L35.018,6.326 L40.181,9.135 L40.598,8.198 L35.427,5.317 L39.533,6.037 L40,5.462 L35.277,3.66 L39.021,4.536 L39.021,3.948 L31.597,0.98 L28.109,1.902 Z" id="path-7"></path>
        <polygon id="path-9" points="2.607 1.647 1.7 1.123 0.051 1.606 0.63 7.443 9.017 13.351 9.818 10.974 11.387 9.678 11.387 5.353 12.077 5.067 13.031 3.195 14.762 1.609 14.409 0.667 11.053 3.05 11.194 2.401 8.61 1.384 6.047 1.384 6.306 0.17"></polygon>
        <polygon id="path-11" points="8.345 0.384 8.758 0.987 6.422 0.987 3.424 1.739 0.811 0.682 0.811 1.285 5.281 3.923 3.53 6.732 4.574 9.831 6.282 11.888 6.422 14.258 7.647 14.258 13.087 12.448 14.255 12.448 14.255 14.098 16.699 13.556 15.68 9.974 17.177 6.588 17.177 2.007 11.581 0.384"></polygon>
        <polygon id="path-13" points="0.656 0.481 0.656 2.775 3.575 8.902 5.19 8.182 2.807 2.779 1.378 1.374 1.295 0.481"></polygon>
        <path d="M8.808,0.528 L5.312,1.525 L4.59,3.423 L3.143,2.769 L1.85,1.157 L0.583,2.259 L1.836,5.241 L4.067,8.118 L6.3,9.268 L5.671,10.42 L7.147,10.852 L7.835,9.843 L14.194,9.627 L17.62,5.305 L17.62,4.148 L17.035,4.148 L17.035,3.518 L17.28,2.855 L18.296,2.783 L19.741,1.775 L18.289,0.768 L15.078,1.703 L13.013,1.404 L11.255,0.528 L8.808,0.528 Z M17.62,4.148 L17.62,3.361 L17.62,4.148 Z" id="path-15"></path>
        <polygon id="path-17" points="4.07 0.671 1.432 2.869 0.948 5.192 1.408 6.602 2.682 7.026 4.496 3.74 4.913 0.671"></polygon>
        <polygon id="path-19" points="0.384 1.015 3.735 7.121 4.922 8.544 6.044 8.544 5.41 7.04 0.942 0.581"></polygon>
        <polygon id="path-21" points="3.444 0.462 2.744 2.331 1.056 1.835 0.237 2.368 0.553 2.959 1.121 2.57 2.744 4.263 1.777 6.409 0.742 6.541 0.679 7.061 3.462 8.231 5.691 9.986 9.737 10.572 12.588 14.799 15.137 20.586 13.657 28.194 14.932 32.752 18.03 31.839 18.712 27.741 16.923 23.513 16.607 20.911 16.488 15.624 15.734 12.085 15.134 10.832 15.423 10.572 17.376 13.108 18.762 10.052 22.543 9.661 23.993 8.38 22.227 7.098 18.655 7.098 17.25 8.072 14.541 5.486 12.33 5.136 13.469 7.561 13.137 7.822 11.39 5.288 10.177 5.288 10.177 5.88 8.884 5.176 8.201 5.488 7.895 2.875 7.255 2.875 7.255 4.437 6.67 4.329 6.67 2.813 6.355 1.014 5.501 1.533 5.501 2.992 4.886 3.013 4.23 0.462"></polygon>
        <polygon id="path-23" points="0.166 1.911 5.284 1.549 4.4 0.499 1.631 0.049"></polygon>
        <polygon id="path-25" points="2.372 2.408 0.799 4.479 3.215 3.624 6.744 2.729 12.29 3.84 12.687 3.264 6.744 0.979"></polygon>
        <polygon id="path-27" points="0.995 1.111 1.459 2.274 4.753 2.274 5.83 1.679 2.147 0.628"></polygon>
        <polygon id="path-29" points="0.008 0.775 0.008 1.406 0.84 1.758 2.084 1.242 4.934 2.702 6.706 2.702 9.83 2.204 12.051 1.389 12.801 0.29 12.102 0.29 10.454 0.29 9.596 0.025"></polygon>
        <polygon id="path-31" points="4.082 1.115 0.995 1.115 1.634 1.718 4.123 1.718 4.814 1.252 5.316 0.527"></polygon>
        <polygon id="path-33" points="1.71 0.639 0.882 1.195 0.137 1.551 0.391 2.448 3.984 2.448 4.137 1.442 2.626 0.639"></polygon>
        <polygon id="path-35" points="3.309 0.417 0.734 3.864 0.734 4.971 4.647 4.971 8.924 4.424 11.255 3.576 11.255 4.368 12.687 4.368 11.412 2.81 9.249 1.906 4.782 1.228 4.974 0.067"></polygon>
        <polygon id="path-37" points="7.221 0.543 9.05 1.283 7.096 0.543 5.649 0.543 0.698 3.135 0.698 3.879 3.466 5.368 8.445 5.368 12.331 4.333 11.562 1.933 9.05 0.543"></polygon>
        <polygon id="path-39" points="0.102 1.644 0.051 2.479 5.118 0.75 3.304 0.179"></polygon>
        <polygon id="path-41" points="0.163 0.543 0.163 0.985 4.301 3.186 5.29 2.599 2.319 0.543"></polygon>
        <polygon id="path-43" points="0.487 1.923 1.735 1.923 10.334 3.551 12.177 3.279 12.177 2.016 6.142 1.32 1.215 1.32 0.487 0.933"></polygon>
        <polygon id="path-45" points="2.764 1.104 1.355 3.189 0.734 5.072 1.08 5.48 2.512 5.069 2.826 3.113 3.799 1.526 4.325 1.526 4.71 0.979 4.307 0.619"></polygon>
        <polygon id="path-47" points="17.022 1.544 15.006 3.084 10.41 3.084 6.435 2.481 4.115 2.481 0.462 3.281 3.17 6.69 8.091 8.871 9.228 7.906 6.008 5.932 6.008 4.233 7.247 3.728 12.106 4.236 17.147 3.084 19.152 3.084 18.037 7.313 17.113 8.022 17.113 9.115 18.452 9.115 24.948 1.758 20.993 0.994"></polygon>
        <polygon id="path-49" points="2.337 0.532 1.415 0.261 0.169 0.98 0.995 2.115 3.382 2.115 4.502 0.98 4.06 0.216 2.706 0.133"></polygon>
        <path d="M8.762,0.935 L5.975,1.887 L2.846,2.954 C1.246,3.499 0.322,4.975 0.783,6.252 L2.488,10.969 C2.949,12.245 4.619,12.834 6.219,12.288 L8.899,11.374 L9.35,11.222 C10.948,10.677 11.871,9.2 11.41,7.924 L10.799,6.233 L13.586,5.281 L12.492,2.257 C12.148,1.302 11.129,0.732 9.968,0.732 C9.575,0.732 9.166,0.797 8.762,0.935 Z" id="path-51"></path>
        <path d="M1.009,1.938 L0.429,5.15 L3.233,5.952 L2.911,7.748 C2.666,9.103 3.774,10.574 5.382,11.034 L5.836,11.162 L8.531,11.933 C10.141,12.393 11.643,11.669 11.887,10.315 L12.791,5.306 C13.033,3.952 11.926,2.482 10.316,2.021 L7.168,1.121 L4.363,0.32 C4.035,0.226 3.711,0.181 3.401,0.181 C2.193,0.181 1.202,0.86 1.009,1.938 Z" id="path-53"></path>
        <polygon id="path-55" points="1.35525272e-20 0.992260436 1.35525272e-20 53.6732 45.3998349 53.6732 45.3998349 0.992260436 0 0.992260436"></polygon>
    </defs>
    <g id="Page-1" stroke="none" stroke-width="1" fill="none" fill-rule="evenodd">
        <g id="Artboard">
            <g id="Page-1" transform="translate(2.000000, 0.000000)">
                <g id="Group-74" transform="translate(0.000000, 0.815000)">
                    <path d="M45.9149,210.2386 C45.2959,211.8416 38.4039,210.6736 30.5199,207.6296 C22.6369,204.5866 16.7479,200.8206 17.3659,199.2176 L45.9149,210.2386 Z" id="Fill-1" fill="#69C4EF"></path>
                    <path d="M17.366,199.2176 C17.985,197.6146 24.877,198.7826 32.761,201.8256 C40.644,204.8696 46.533,208.6356 45.915,210.2386" id="Fill-3" fill="#69C4EF"></path>
                    <path d="M45.9149,210.2386 L31.1529,248.4786 C30.5339,250.0816 23.6419,248.9136 15.7579,245.8696 C7.8739,242.8266 1.9849,239.0606 2.6039,237.4576 L17.3659,199.2176" id="Fill-5" fill="#69C4EF"></path>
                    <polygon id="Fill-7" fill="#0C1423" points="164.4178 271.1586 39.0488 222.7626 41.4358 216.5796 166.8048 264.9756"></polygon>
                    <mask id="mask-2" fill="white">
                        <use xlink:href="#path-1"></use>
                    </mask>
                    <g id="Clip-10"></g>
                    <polygon id="Fill-9" fill="#4BB4E7" mask="url(#mask-2)" points="244.263 87.269 287.912 87.269 287.912 61.593 244.263 61.593"></polygon>
                    <polygon id="Fill-11" fill="#0C1423" mask="url(#mask-2)" points="210.884 328.073 244.263 328.073 244.263 74.432 210.884 74.432"></polygon>
                    <polyline id="Fill-12" fill="#FFFFFF" mask="url(#mask-2)" points="224.7205 320.4374 224.7205 81.4384 230.4265 81.4384 230.4265 320.4074"></polyline>
                    <path d="M250.9671,58.0443 C250.9671,45.1243 240.4931,34.6503 227.5731,34.6503 C214.6541,34.6503 204.1801,45.1243 204.1801,58.0443 C204.1801,70.9643 214.6541,81.4383 227.5731,81.4383 C240.4931,81.4383 250.9671,70.9643 250.9671,58.0443" id="Fill-13" fill="#ED7780" mask="url(#mask-2)"></path>
                    <path d="M230.5692,58.0443 C230.5692,56.3903 229.2282,55.0483 227.5732,55.0483 C225.9192,55.0483 224.5782,56.3903 224.5782,58.0443 C224.5782,59.6983 225.9192,61.0403 227.5732,61.0403 C229.2282,61.0403 230.5692,59.6983 230.5692,58.0443" id="Fill-14" fill="#F3A6AE" mask="url(#mask-2)"></path>
                    <path d="M268.6546,346.5848 L268.6546,393.6118 C268.6546,398.2448 250.0386,401.9998 227.0736,401.9998 C204.1106,401.9998 185.4936,398.2448 185.4936,393.6118 L185.4936,346.5848" id="Fill-15" fill="#69C4EF" mask="url(#mask-2)"></path>
                    <path d="M253.0863,340.0399 C262.5783,341.5779 268.6543,343.9379 268.6543,346.5849 C268.6543,351.2179 250.0383,354.9729 227.0743,354.9729 C204.1103,354.9729 185.4933,351.2179 185.4933,346.5849 C185.4933,343.9249 191.6293,341.5549 201.2023,340.0179" id="Fill-16" fill="#AADCF6" mask="url(#mask-2)"></path>
                    <path d="M253.0355,332.9183 L253.0355,343.1893 C253.0355,346.1043 241.4125,348.4663 227.0745,348.4663 C212.7365,348.4663 201.1135,346.1043 201.1135,343.1893 L201.1135,332.9183" id="Fill-17" fill="#69C4EF" mask="url(#mask-2)"></path>
                    <path d="M243.8241,328.8861 C249.4581,329.8541 253.0351,331.3021 253.0351,332.9181 C253.0351,335.8331 241.4121,338.1961 227.0741,338.1961 C212.7361,338.1961 201.1131,335.8331 201.1131,332.9181 C201.1131,331.2931 204.7271,329.8391 210.4121,328.8711" id="Fill-18" fill="#AADCF6" mask="url(#mask-2)"></path>
                    <path d="M244.4056,323.1966 L244.4056,330.1896 C244.4056,331.7136 236.9336,332.9486 227.7166,332.9486 C218.4986,332.9486 211.0266,331.7136 211.0266,330.1896 L211.0266,323.1966" id="Fill-19" fill="#ED7780" mask="url(#mask-2)"></path>
                    <path d="M244.4056,323.1966 C244.4056,324.7206 236.9336,325.9556 227.7166,325.9556 C218.4986,325.9556 211.0266,324.7206 211.0266,323.1966 C211.0266,321.6726 218.4986,320.4376 227.7166,320.4376 C236.9336,320.4376 244.4056,321.6726 244.4056,323.1966" id="Fill-20" fill="#F3A6AE" mask="url(#mask-2)"></path>
                    <polygon id="Fill-21" fill="#D2F2FF" mask="url(#mask-2)" points="244.263 292.315 287.912 292.315 287.912 266.639 244.263 266.639"></polygon>
                    <polygon id="Fill-22" fill="#91CEEC" mask="url(#mask-2)" points="244.263 189.833 287.912 189.833 287.912 164.157 244.263 164.157"></polygon>
                    <polygon id="Fill-23" fill="#AADCF6" mask="url(#mask-2)" points="167.235 241.185 210.884 241.185 210.884 215.509 167.235 215.509"></polygon>
                    <polygon id="Fill-24" fill="#69C4EF" mask="url(#mask-2)" points="167.235 138.911 210.884 138.911 210.884 113.235 167.235 113.235"></polygon>
                    <path d="M236.1322,35.8666 L236.1322,28.3246 C236.1322,23.8336 232.4922,20.1936 228.0012,20.1936 C223.5112,20.1936 219.8712,23.8336 219.8712,28.3246 L219.8712,35.5486 C222.2832,34.7066 224.8742,34.2436 227.5732,34.2436 C230.5952,34.2436 233.4802,34.8236 236.1322,35.8666" id="Fill-25" fill="#F3A6AE" mask="url(#mask-2)"></path>
                    <polygon id="Fill-26" fill="#FFFFFF" mask="url(#mask-2)" points="208.175 279.384 241.553 279.384 241.553 277.384 208.175 277.384"></polygon>
                    <polygon id="Fill-27" fill="#FFFFFF" mask="url(#mask-2)" points="208.175 228.203 241.553 228.203 241.553 226.203 208.175 226.203"></polygon>
                    <polygon id="Fill-28" fill="#FFFFFF" mask="url(#mask-2)" points="208.175 177.023 241.553 177.023 241.553 175.023 208.175 175.023"></polygon>
                    <polygon id="Fill-29" fill="#FFFFFF" mask="url(#mask-2)" points="208.175 125.842 241.553 125.842 241.553 123.842 208.175 123.842"></polygon>
                    <path d="M224.8631,32.1508 C227.4461,32.1508 229.9811,32.5538 232.4221,33.3518 L232.4221,27.2318 C232.4221,23.2988 229.2231,20.1008 225.2911,20.1008 C221.3591,20.1008 218.1601,23.2988 218.1601,27.2318 L218.1601,33.0888 C220.3391,32.4658 222.5881,32.1508 224.8631,32.1508 L224.8631,32.1508 Z M234.4221,36.2408 L233.0551,35.7038 C228.0951,33.7528 222.5241,33.6438 217.4891,35.3998 L216.1601,35.8628 L216.1601,27.2318 C216.1601,22.1968 220.2571,18.1008 225.2911,18.1008 C230.3261,18.1008 234.4221,22.1968 234.4221,27.2318 L234.4221,36.2408 Z" id="Fill-30" fill="#0C1423" mask="url(#mask-2)"></path>
                    <path d="M224.8631,34.1508 C222.3461,34.1508 219.8651,34.5708 217.4891,35.3998 C208.5061,38.5318 202.4691,47.0298 202.4691,56.5448 C202.4691,68.8918 212.5151,78.9378 224.8631,78.9378 C230.9181,78.9378 236.5921,76.5558 240.8391,72.2308 C243.9771,69.0348 246.0651,65.0278 246.8761,60.6418 C247.1291,59.2768 247.2571,57.8978 247.2571,56.5448 C247.2571,47.2788 241.6821,39.0988 233.0551,35.7038 C230.4361,34.6728 227.6791,34.1508 224.8631,34.1508 M224.8631,80.9378 C211.4121,80.9378 200.4691,69.9948 200.4691,56.5448 C200.4691,46.1798 207.0451,36.9238 216.8311,33.5108 C222.3171,31.5988 228.3841,31.7168 233.7881,33.8428 C243.1851,37.5408 249.2571,46.4508 249.2571,56.5448 C249.2571,58.0198 249.1171,59.5208 248.8421,61.0058 C247.9591,65.7848 245.6841,70.1508 242.2661,73.6318 C237.6391,78.3428 231.4591,80.9378 224.8631,80.9378" id="Fill-31" fill="#0C1423" mask="url(#mask-2)"></path>
                    <path d="M252.2982,281.9525 L257.2902,281.9525 L257.2902,283.4055 L250.7112,283.4055 L250.7112,281.9125 C250.7112,280.8625 251.0832,280.1005 251.8272,279.6255 C252.0782,279.4635 252.3702,279.3205 252.7022,279.1945 L254.4912,278.5085 C254.8862,278.3555 255.1752,278.1655 255.3592,277.9365 C255.5432,277.7085 255.6352,277.4235 255.6352,277.0825 C255.6352,276.7415 255.5142,276.4565 255.2722,276.2275 C255.0292,275.9995 254.6842,275.8855 254.2352,275.8855 C253.7872,275.8855 253.4172,275.9925 253.1262,276.2085 C252.8342,276.4235 252.6662,276.7415 252.6212,277.1635 L250.8592,277.1635 C250.8772,276.3105 251.2042,275.6425 251.8412,275.1585 C252.4232,274.7195 253.2092,274.4995 254.1952,274.4995 C255.1012,274.4995 255.8502,274.7415 256.4422,275.2255 C257.0432,275.7275 257.3432,276.3425 257.3432,277.0685 C257.3432,277.7955 257.1622,278.3765 256.7992,278.8105 C256.4352,279.2465 255.8722,279.6115 255.1102,279.9075 L253.2942,280.6065 C252.9442,280.7415 252.6912,280.8915 252.5342,281.0575 C252.3772,281.2235 252.2982,281.4365 252.2982,281.6965 L252.2982,281.9525 Z" id="Fill-32" fill="#1D1D1B" mask="url(#mask-2)"></path>
                    <path d="M263.7674,276.7396 C263.4214,276.2056 262.9334,275.9386 262.3014,275.9386 C261.6684,275.9386 261.1794,276.2056 260.8344,276.7396 C260.4894,277.2726 260.3164,278.0426 260.3164,279.0466 C260.3164,280.0516 260.4894,280.8156 260.8344,281.3406 C261.1794,281.8656 261.6684,282.1276 262.3014,282.1276 C262.9334,282.1276 263.4214,281.8656 263.7674,281.3406 C264.1124,280.8156 264.2854,280.0516 264.2854,279.0466 C264.2854,278.0426 264.1124,277.2726 263.7674,276.7396 M262.2944,274.4996 C262.8324,274.4996 263.3234,274.5916 263.7674,274.7746 C264.2114,274.9596 264.5904,275.2396 264.9044,275.6156 C265.5854,276.4146 265.9264,277.5576 265.9264,279.0466 C265.9264,280.5356 265.5854,281.6786 264.9044,282.4766 C264.2764,283.2216 263.4114,283.5936 262.3074,283.5936 C261.1954,283.5936 260.3214,283.2216 259.6844,282.4766 C259.0114,281.6966 258.6754,280.5526 258.6754,279.0466 C258.6754,277.5396 259.0114,276.3956 259.6844,275.6156 C260.3214,274.8716 261.1904,274.4996 262.2944,274.4996" id="Fill-33" fill="#1D1D1B" mask="url(#mask-2)"></path>
                    <path d="M274.2679,280.513 C273.8369,280.513 273.6219,280.856 273.6219,281.542 C273.6219,282.229 273.8369,282.572 274.2679,282.572 C274.4559,282.572 274.6129,282.493 274.7389,282.336 C274.8639,282.179 274.9269,281.914 274.9269,281.542 C274.9269,281.17 274.8639,280.906 274.7389,280.748 C274.6129,280.592 274.4559,280.513 274.2679,280.513 L274.2679,280.513 Z M274.2679,279.504 C274.7789,279.504 275.2099,279.674 275.5599,280.015 C275.9269,280.366 276.1109,280.871 276.1109,281.535 C276.1109,282.2 275.9269,282.715 275.5599,283.082 C275.2189,283.423 274.7879,283.594 274.2679,283.594 C273.7469,283.594 273.3169,283.423 272.9759,283.082 C272.6079,282.715 272.4249,282.2 272.4249,281.535 C272.4249,280.871 272.6079,280.366 272.9759,280.015 C273.3259,279.674 273.7569,279.504 274.2679,279.504 L274.2679,279.504 Z M269.8689,276.531 C269.8689,275.849 269.6489,275.508 269.2089,275.508 C268.7789,275.508 268.5629,275.849 268.5629,276.531 C268.5629,277.222 268.7789,277.567 269.2089,277.567 C269.6489,277.567 269.8689,277.222 269.8689,276.531 L269.8689,276.531 Z M273.9049,274.674 L275.5059,274.674 L269.5999,283.406 L267.9849,283.406 L273.9049,274.674 Z M269.2229,274.499 C269.4649,274.499 269.6979,274.542 269.9219,274.627 C270.1459,274.712 270.3439,274.84 270.5149,275.01 C270.8819,275.361 271.0659,275.867 271.0659,276.531 C271.0659,277.186 270.8819,277.697 270.5149,278.065 C270.1729,278.406 269.7389,278.576 269.2089,278.576 C268.6979,278.576 268.2719,278.406 267.9309,278.065 C267.5629,277.697 267.3799,277.186 267.3799,276.531 C267.3799,275.867 267.5629,275.361 267.9309,275.01 C268.2809,274.67 268.7109,274.499 269.2229,274.499 L269.2229,274.499 Z" id="Fill-34" fill="#1D1D1B" mask="url(#mask-2)"></path>
                    <path d="M254.2357,176.6507 C253.8047,176.6507 253.4437,176.7777 253.1527,177.0337 C252.8607,177.2897 252.7147,177.6287 252.7147,178.0497 C252.7147,178.4717 252.8607,178.8057 253.1527,179.0517 C253.4437,179.2987 253.8027,179.4217 254.2287,179.4217 C254.6547,179.4217 255.0157,179.2987 255.3117,179.0517 C255.6077,178.8057 255.7557,178.4717 255.7557,178.0497 C255.7557,177.6287 255.6037,177.2827 255.2977,177.0137 C255.0207,176.7717 254.6657,176.6507 254.2357,176.6507 L254.2357,176.6507 Z M255.6077,174.3637 C255.5627,174.0137 255.4377,173.7377 255.2317,173.5357 C255.0247,173.3347 254.7397,173.2337 254.3767,173.2337 C254.0137,173.2337 253.6947,173.3117 253.4217,173.4687 C253.1477,173.6257 252.9127,173.8527 252.7147,174.1487 C252.3207,174.7577 252.1237,175.5837 252.1237,176.6237 C252.1237,177.0087 252.1367,177.3007 252.1637,177.4977 C252.2617,176.7267 252.5537,176.1617 253.0377,175.8027 C253.4597,175.4977 253.9847,175.3457 254.6117,175.3457 C255.4197,175.3457 256.0877,175.6057 256.6167,176.1257 C257.1367,176.6287 257.3977,177.2917 257.3977,178.1167 C257.3977,178.9427 257.1057,179.6097 256.5227,180.1217 C255.9397,180.6327 255.1767,180.8887 254.2357,180.8887 C253.1407,180.8887 252.2487,180.4757 251.5587,179.6507 C250.8677,178.8257 250.5227,177.7717 250.5227,176.4887 C250.5227,175.0007 250.8677,173.8387 251.5587,173.0047 C252.2307,172.1967 253.1457,171.7937 254.3027,171.7937 C255.1817,171.7937 255.8907,172.0267 256.4287,172.4937 C256.9757,172.9687 257.2667,173.5917 257.3027,174.3637 L255.6077,174.3637 Z" id="Fill-35" fill="#1D1D1B" mask="url(#mask-2)"></path>
                    <path d="M263.7811,174.0336 C263.4351,173.5006 262.9471,173.2336 262.3151,173.2336 C261.6821,173.2336 261.1931,173.5006 260.8481,174.0336 C260.5031,174.5676 260.3301,175.3366 260.3301,176.3416 C260.3301,177.3456 260.5031,178.1106 260.8481,178.6356 C261.1931,179.1596 261.6821,179.4216 262.3151,179.4216 C262.9471,179.4216 263.4351,179.1596 263.7811,178.6356 C264.1261,178.1106 264.2991,177.3456 264.2991,176.3416 C264.2991,175.3366 264.1261,174.5676 263.7811,174.0336 M262.3081,171.7936 C262.8461,171.7936 263.3371,171.8856 263.7811,172.0696 C264.2251,172.2536 264.6041,172.5336 264.9181,172.9106 C265.5991,173.7086 265.9401,174.8526 265.9401,176.3416 C265.9401,177.8296 265.5991,178.9736 264.9181,179.7716 C264.2901,180.5166 263.4251,180.8886 262.3211,180.8886 C261.2091,180.8886 260.3351,180.5166 259.6981,179.7716 C259.0251,178.9916 258.6891,177.8476 258.6891,176.3416 C258.6891,174.8346 259.0251,173.6906 259.6981,172.9106 C260.3351,172.1656 261.2041,171.7936 262.3081,171.7936" id="Fill-36" fill="#1D1D1B" mask="url(#mask-2)"></path>
                    <path d="M274.2811,177.8075 C273.8501,177.8075 273.6351,178.1505 273.6351,178.8365 C273.6351,179.5225 273.8501,179.8665 274.2811,179.8665 C274.4691,179.8665 274.6261,179.7875 274.7521,179.6305 C274.8771,179.4735 274.9401,179.2085 274.9401,178.8365 C274.9401,178.4645 274.8771,178.2005 274.7521,178.0425 C274.6261,177.8865 274.4691,177.8075 274.2811,177.8075 L274.2811,177.8075 Z M274.2811,176.7985 C274.7921,176.7985 275.2231,176.9695 275.5731,177.3095 C275.9401,177.6595 276.1241,178.1665 276.1241,178.8295 C276.1241,179.4945 275.9401,180.0095 275.5731,180.3775 C275.2321,180.7185 274.8011,180.8885 274.2811,180.8885 C273.7601,180.8885 273.3301,180.7185 272.9891,180.3775 C272.6211,180.0095 272.4381,179.4945 272.4381,178.8295 C272.4381,178.1665 272.6211,177.6595 272.9891,177.3095 C273.3391,176.9695 273.7701,176.7985 274.2811,176.7985 L274.2811,176.7985 Z M269.8821,173.8255 C269.8821,173.1435 269.6621,172.8025 269.2221,172.8025 C268.7921,172.8025 268.5761,173.1435 268.5761,173.8255 C268.5761,174.5155 268.7921,174.8615 269.2221,174.8615 C269.6621,174.8615 269.8821,174.5155 269.8821,173.8255 L269.8821,173.8255 Z M273.9181,171.9685 L275.5191,171.9685 L269.6131,180.7005 L267.9981,180.7005 L273.9181,171.9685 Z M269.2361,171.7935 C269.4781,171.7935 269.7111,171.8365 269.9351,171.9215 C270.1591,172.0065 270.3571,172.1345 270.5281,172.3055 C270.8951,172.6545 271.0791,173.1615 271.0791,173.8255 C271.0791,174.4795 270.8951,174.9915 270.5281,175.3585 C270.1861,175.7005 269.7521,175.8705 269.2221,175.8705 C268.7111,175.8705 268.2851,175.7005 267.9441,175.3585 C267.5761,174.9915 267.3931,174.4795 267.3931,173.8255 C267.3931,173.1615 267.5761,172.6545 267.9441,172.3055 C268.2941,171.9645 268.7241,171.7935 269.2361,171.7935 L269.2361,171.7935 Z" id="Fill-37" fill="#1D1D1B" mask="url(#mask-2)"></path>
                    <path d="M247.8787,70.5145 C248.5517,70.4155 249.1437,70.1785 249.6547,69.8015 L250.8517,69.8015 L250.8517,78.5865 L249.2647,78.5865 L249.2647,71.6985 C248.8067,71.9225 248.3447,72.0355 247.8787,72.0355 L247.8787,70.5145 Z" id="Fill-38" fill="#1D1D1B" mask="url(#mask-2)"></path>
                    <path d="M257.8412,71.9203 C257.4952,71.3873 257.0072,71.1203 256.3752,71.1203 C255.7422,71.1203 255.2532,71.3873 254.9082,71.9203 C254.5632,72.4543 254.3902,73.2233 254.3902,74.2283 C254.3902,75.2323 254.5632,75.9973 254.9082,76.5223 C255.2532,77.0463 255.7422,77.3083 256.3752,77.3083 C257.0072,77.3083 257.4952,77.0463 257.8412,76.5223 C258.1862,75.9973 258.3592,75.2323 258.3592,74.2283 C258.3592,73.2233 258.1862,72.4543 257.8412,71.9203 M256.3682,69.6803 C256.9062,69.6803 257.3972,69.7723 257.8412,69.9563 C258.2852,70.1403 258.6642,70.4203 258.9782,70.7973 C259.6592,71.5953 260.0002,72.7393 260.0002,74.2283 C260.0002,75.7163 259.6592,76.8603 258.9782,77.6583 C258.3502,78.4033 257.4852,78.7753 256.3812,78.7753 C255.2692,78.7753 254.3952,78.4033 253.7572,77.6583 C253.0852,76.8783 252.7492,75.7343 252.7492,74.2283 C252.7492,72.7213 253.0852,71.5773 253.7572,70.7973 C254.3952,70.0523 255.2642,69.6803 256.3682,69.6803" id="Fill-39" fill="#1D1D1B" mask="url(#mask-2)"></path>
                    <path d="M266.3573,71.9203 C266.0113,71.3873 265.5233,71.1203 264.8913,71.1203 C264.2583,71.1203 263.7693,71.3873 263.4243,71.9203 C263.0793,72.4543 262.9063,73.2233 262.9063,74.2283 C262.9063,75.2323 263.0793,75.9973 263.4243,76.5223 C263.7693,77.0463 264.2583,77.3083 264.8913,77.3083 C265.5233,77.3083 266.0113,77.0463 266.3573,76.5223 C266.7023,75.9973 266.8753,75.2323 266.8753,74.2283 C266.8753,73.2233 266.7023,72.4543 266.3573,71.9203 M264.8843,69.6803 C265.4223,69.6803 265.9133,69.7723 266.3573,69.9563 C266.8013,70.1403 267.1803,70.4203 267.4943,70.7973 C268.1753,71.5953 268.5163,72.7393 268.5163,74.2283 C268.5163,75.7163 268.1753,76.8603 267.4943,77.6583 C266.8663,78.4033 266.0013,78.7753 264.8973,78.7753 C263.7853,78.7753 262.9113,78.4033 262.2743,77.6583 C261.6013,76.8783 261.2653,75.7343 261.2653,74.2283 C261.2653,72.7213 261.6013,71.5773 262.2743,70.7973 C262.9113,70.0523 263.7803,69.6803 264.8843,69.6803" id="Fill-40" fill="#1D1D1B" mask="url(#mask-2)"></path>
                    <path d="M276.8578,75.6942 C276.4268,75.6942 276.2118,76.0372 276.2118,76.7232 C276.2118,77.4092 276.4268,77.7532 276.8578,77.7532 C277.0458,77.7532 277.2028,77.6742 277.3288,77.5172 C277.4538,77.3602 277.5168,77.0952 277.5168,76.7232 C277.5168,76.3512 277.4538,76.0872 277.3288,75.9292 C277.2028,75.7732 277.0458,75.6942 276.8578,75.6942 L276.8578,75.6942 Z M276.8578,74.6852 C277.3688,74.6852 277.7998,74.8562 278.1498,75.1962 C278.5168,75.5462 278.7008,76.0532 278.7008,76.7162 C278.7008,77.3812 278.5168,77.8962 278.1498,78.2642 C277.8088,78.6052 277.3778,78.7752 276.8578,78.7752 C276.3368,78.7752 275.9068,78.6052 275.5658,78.2642 C275.1978,77.8962 275.0148,77.3812 275.0148,76.7162 C275.0148,76.0532 275.1978,75.5462 275.5658,75.1962 C275.9158,74.8562 276.3468,74.6852 276.8578,74.6852 L276.8578,74.6852 Z M272.4588,71.7122 C272.4588,71.0302 272.2388,70.6892 271.7988,70.6892 C271.3688,70.6892 271.1528,71.0302 271.1528,71.7122 C271.1528,72.4022 271.3688,72.7482 271.7988,72.7482 C272.2388,72.7482 272.4588,72.4022 272.4588,71.7122 L272.4588,71.7122 Z M276.4948,69.8552 L278.0958,69.8552 L272.1898,78.5872 L270.5748,78.5872 L276.4948,69.8552 Z M271.8128,69.6802 C272.0548,69.6802 272.2878,69.7232 272.5118,69.8082 C272.7358,69.8932 272.9338,70.0212 273.1048,70.1922 C273.4718,70.5412 273.6558,71.0482 273.6558,71.7122 C273.6558,72.3662 273.4718,72.8782 273.1048,73.2452 C272.7628,73.5872 272.3288,73.7572 271.7988,73.7572 C271.2878,73.7572 270.8618,73.5872 270.5208,73.2452 C270.1528,72.8782 269.9698,72.3662 269.9698,71.7122 C269.9698,71.0482 270.1528,70.5412 270.5208,70.1922 C270.8708,69.8512 271.3008,69.6802 271.8128,69.6802 L271.8128,69.6802 Z" id="Fill-41" fill="#1D1D1B" mask="url(#mask-2)"></path>
                    <path d="M175.1234,228.9169 L177.7464,228.9169 L177.7464,225.5809 L175.1234,228.9169 Z M179.2404,223.2259 L179.2404,228.7559 L180.7604,228.7559 L180.7604,230.1139 L179.2404,230.1139 L179.2404,232.0519 L177.6654,232.0519 L177.6654,230.1139 L173.2394,230.1139 L173.2394,228.9169 L177.7064,223.2259 L179.2404,223.2259 Z" id="Fill-42" fill="#1D1D1B" mask="url(#mask-2)"></path>
                    <path d="M186.6732,225.3851 C186.3272,224.8521 185.8392,224.5851 185.2072,224.5851 C184.5742,224.5851 184.0852,224.8521 183.7402,225.3851 C183.3952,225.9191 183.2222,226.6881 183.2222,227.6931 C183.2222,228.6971 183.3952,229.4621 183.7402,229.9871 C184.0852,230.5111 184.5742,230.7731 185.2072,230.7731 C185.8392,230.7731 186.3272,230.5111 186.6732,229.9871 C187.0182,229.4621 187.1912,228.6971 187.1912,227.6931 C187.1912,226.6881 187.0182,225.9191 186.6732,225.3851 M185.2002,223.1451 C185.7382,223.1451 186.2292,223.2371 186.6732,223.4211 C187.1172,223.6051 187.4962,223.8851 187.8102,224.2621 C188.4912,225.0601 188.8322,226.2041 188.8322,227.6931 C188.8322,229.1811 188.4912,230.3251 187.8102,231.1231 C187.1822,231.8681 186.3172,232.2401 185.2132,232.2401 C184.1012,232.2401 183.2272,231.8681 182.5902,231.1231 C181.9172,230.3431 181.5812,229.1991 181.5812,227.6931 C181.5812,226.1861 181.9172,225.0421 182.5902,224.2621 C183.2272,223.5171 184.0962,223.1451 185.2002,223.1451" id="Fill-43" fill="#1D1D1B" mask="url(#mask-2)"></path>
                    <path d="M197.1737,229.159 C196.7427,229.159 196.5277,229.502 196.5277,230.188 C196.5277,230.874 196.7427,231.218 197.1737,231.218 C197.3617,231.218 197.5187,231.139 197.6447,230.982 C197.7697,230.825 197.8327,230.56 197.8327,230.188 C197.8327,229.816 197.7697,229.552 197.6447,229.394 C197.5187,229.238 197.3617,229.159 197.1737,229.159 L197.1737,229.159 Z M197.1737,228.15 C197.6847,228.15 198.1157,228.321 198.4657,228.661 C198.8327,229.011 199.0167,229.518 199.0167,230.181 C199.0167,230.846 198.8327,231.361 198.4657,231.729 C198.1247,232.07 197.6937,232.24 197.1737,232.24 C196.6527,232.24 196.2227,232.07 195.8817,231.729 C195.5137,231.361 195.3307,230.846 195.3307,230.181 C195.3307,229.518 195.5137,229.011 195.8817,228.661 C196.2317,228.321 196.6627,228.15 197.1737,228.15 L197.1737,228.15 Z M192.7747,225.177 C192.7747,224.495 192.5547,224.154 192.1147,224.154 C191.6847,224.154 191.4687,224.495 191.4687,225.177 C191.4687,225.867 191.6847,226.213 192.1147,226.213 C192.5547,226.213 192.7747,225.867 192.7747,225.177 L192.7747,225.177 Z M196.8107,223.32 L198.4117,223.32 L192.5057,232.052 L190.8907,232.052 L196.8107,223.32 Z M192.1287,223.145 C192.3707,223.145 192.6037,223.188 192.8277,223.273 C193.0517,223.358 193.2497,223.486 193.4207,223.657 C193.7877,224.006 193.9717,224.513 193.9717,225.177 C193.9717,225.831 193.7877,226.343 193.4207,226.71 C193.0787,227.052 192.6447,227.222 192.1147,227.222 C191.6037,227.222 191.1777,227.052 190.8367,226.71 C190.4687,226.343 190.2857,225.831 190.2857,225.177 C190.2857,224.513 190.4687,224.006 190.8367,223.657 C191.1867,223.316 191.6167,223.145 192.1287,223.145 L192.1287,223.145 Z" id="Fill-44" fill="#1D1D1B" mask="url(#mask-2)"></path>
                    <path d="M176.078,124.2479 L177.087,124.6379 C177.517,124.6379 177.894,124.5299 178.217,124.3149 C178.531,124.0999 178.688,123.8169 178.688,123.4679 C178.688,123.1179 178.527,122.8369 178.204,122.6269 C177.881,122.4159 177.459,122.3109 176.939,122.3109 C176.437,122.3109 176.02,122.4049 175.688,122.5929 C175.356,122.7809 175.19,123.0439 175.19,123.3799 C175.19,123.7159 175.486,124.0059 176.078,124.2479 L176.078,124.2479 Z M176.67,126.0369 C175.854,126.0909 175.302,126.3509 175.016,126.8169 C174.934,126.9519 174.894,127.1089 174.894,127.2889 C174.894,127.4679 174.948,127.6339 175.056,127.7859 C175.163,127.9389 175.311,128.0689 175.499,128.1759 C175.858,128.3919 176.363,128.4989 177.013,128.4989 C177.663,128.4989 178.157,128.4119 178.493,128.2369 C178.829,128.0619 178.997,127.8469 178.997,127.5909 C178.997,127.3349 178.914,127.1289 178.749,126.9719 C178.582,126.8149 178.356,126.6789 178.069,126.5619 L176.67,126.0369 Z M176.838,120.8709 C177.856,120.8709 178.693,121.1059 179.348,121.5769 C180.002,122.0479 180.329,122.6469 180.329,123.3729 C180.329,123.8129 180.179,124.2059 179.879,124.5509 C179.578,124.8959 179.145,125.1179 178.58,125.2169 C179.325,125.5129 179.841,125.8129 180.128,126.1179 C180.469,126.4769 180.639,126.9249 180.639,127.4629 C180.639,128.2079 180.316,128.8089 179.67,129.2659 C178.997,129.7319 178.087,129.9659 176.939,129.9659 C175.836,129.9659 174.943,129.7239 174.262,129.2389 C173.589,128.7729 173.253,128.1669 173.253,127.4229 C173.253,126.8759 173.443,126.4339 173.825,126.0979 C174.206,125.7609 174.692,125.5579 175.285,125.4859 C174.504,125.1089 173.974,124.6199 173.697,124.0189 C173.598,123.7949 173.549,123.5399 173.549,123.2519 C173.549,122.5169 173.843,121.9359 174.43,121.5099 C175.017,121.0839 175.82,120.8709 176.838,120.8709 L176.838,120.8709 Z" id="Fill-45" fill="#1D1D1B" mask="url(#mask-2)"></path>
                    <path d="M187.0223,123.1107 C186.6763,122.5777 186.1883,122.3107 185.5563,122.3107 C184.9233,122.3107 184.4343,122.5777 184.0893,123.1107 C183.7443,123.6447 183.5713,124.4137 183.5713,125.4187 C183.5713,126.4227 183.7443,127.1877 184.0893,127.7127 C184.4343,128.2367 184.9233,128.4987 185.5563,128.4987 C186.1883,128.4987 186.6763,128.2367 187.0223,127.7127 C187.3673,127.1877 187.5403,126.4227 187.5403,125.4187 C187.5403,124.4137 187.3673,123.6447 187.0223,123.1107 M185.5493,120.8707 C186.0873,120.8707 186.5783,120.9627 187.0223,121.1467 C187.4663,121.3307 187.8453,121.6107 188.1593,121.9877 C188.8403,122.7857 189.1813,123.9297 189.1813,125.4187 C189.1813,126.9067 188.8403,128.0507 188.1593,128.8487 C187.5313,129.5937 186.6663,129.9657 185.5623,129.9657 C184.4503,129.9657 183.5763,129.5937 182.9393,128.8487 C182.2663,128.0687 181.9303,126.9247 181.9303,125.4187 C181.9303,123.9117 182.2663,122.7677 182.9393,121.9877 C183.5763,121.2427 184.4453,120.8707 185.5493,120.8707" id="Fill-46" fill="#1D1D1B" mask="url(#mask-2)"></path>
                    <path d="M197.5228,126.8846 C197.0918,126.8846 196.8768,127.2276 196.8768,127.9136 C196.8768,128.5996 197.0918,128.9436 197.5228,128.9436 C197.7108,128.9436 197.8678,128.8646 197.9938,128.7076 C198.1188,128.5506 198.1818,128.2856 198.1818,127.9136 C198.1818,127.5416 198.1188,127.2776 197.9938,127.1196 C197.8678,126.9636 197.7108,126.8846 197.5228,126.8846 L197.5228,126.8846 Z M197.5228,125.8756 C198.0338,125.8756 198.4648,126.0466 198.8148,126.3866 C199.1818,126.7366 199.3658,127.2436 199.3658,127.9066 C199.3658,128.5716 199.1818,129.0866 198.8148,129.4546 C198.4738,129.7956 198.0428,129.9656 197.5228,129.9656 C197.0018,129.9656 196.5718,129.7956 196.2308,129.4546 C195.8628,129.0866 195.6798,128.5716 195.6798,127.9066 C195.6798,127.2436 195.8628,126.7366 196.2308,126.3866 C196.5808,126.0466 197.0118,125.8756 197.5228,125.8756 L197.5228,125.8756 Z M193.1238,122.9026 C193.1238,122.2206 192.9038,121.8796 192.4638,121.8796 C192.0338,121.8796 191.8178,122.2206 191.8178,122.9026 C191.8178,123.5926 192.0338,123.9386 192.4638,123.9386 C192.9038,123.9386 193.1238,123.5926 193.1238,122.9026 L193.1238,122.9026 Z M197.1598,121.0456 L198.7608,121.0456 L192.8548,129.7776 L191.2398,129.7776 L197.1598,121.0456 Z M192.4778,120.8706 C192.7198,120.8706 192.9528,120.9136 193.1768,120.9986 C193.4008,121.0836 193.5988,121.2116 193.7698,121.3826 C194.1368,121.7316 194.3208,122.2386 194.3208,122.9026 C194.3208,123.5566 194.1368,124.0686 193.7698,124.4356 C193.4278,124.7776 192.9938,124.9476 192.4638,124.9476 C191.9528,124.9476 191.5268,124.7776 191.1858,124.4356 C190.8178,124.0686 190.6348,123.5566 190.6348,122.9026 C190.6348,122.2386 190.8178,121.7316 191.1858,121.3826 C191.5358,121.0416 191.9658,120.8706 192.4778,120.8706 L192.4778,120.8706 Z" id="Fill-47" fill="#1D1D1B" mask="url(#mask-2)"></path>
                    <path d="M224.3641,399.4999 C199.2211,399.4999 183.7831,395.1969 183.7831,392.1119 L183.7831,348.1509 C189.5681,352.3119 207.0501,354.4729 224.3641,354.4729 C241.6781,354.4729 259.1601,352.3119 264.9451,348.1509 L264.9451,392.1119 C264.9451,395.1969 249.5071,399.4999 224.3641,399.4999 L224.3641,399.4999 Z M197.7601,339.6579 L197.7601,341.6889 C197.7601,346.6549 215.3951,347.9669 224.7201,347.9669 C234.0461,347.9669 251.6821,346.6549 251.6821,341.6889 L251.6821,339.7809 C262.0891,341.6289 264.9451,343.9579 264.9451,345.0849 C264.9451,348.1699 249.5071,352.4729 224.3641,352.4729 C199.2211,352.4729 183.7831,348.1699 183.7831,345.0849 C183.7831,343.9299 186.7751,341.5229 197.7601,339.6579 L197.7601,339.6579 Z M207.1741,328.5479 L207.1741,328.6589 C207.1741,332.1469 220.7141,332.4179 224.8631,332.4179 C229.0131,332.4179 242.5521,332.1469 242.5521,328.6589 L242.5521,328.6019 C248.4331,329.7539 249.6821,331.1009 249.6821,331.4179 C249.6821,332.8709 240.8711,335.6959 224.7201,335.6959 C208.5701,335.6959 199.7601,332.8709 199.7601,331.4179 C199.7601,331.0939 201.0581,329.7109 207.1741,328.5479 L207.1741,328.5479 Z M224.8631,319.9069 C232.9941,319.9069 238.6781,320.8719 240.2541,321.6669 C238.6781,322.4609 232.9941,323.4259 224.8631,323.4259 C216.7321,323.4259 211.0491,322.4609 209.4731,321.6669 C211.0491,320.8719 216.7321,319.9069 224.8631,319.9069 L224.8631,319.9069 Z M209.1741,323.6489 C213.0961,325.2669 221.7021,325.4259 224.8631,325.4259 C228.0251,325.4259 236.6301,325.2669 240.5521,323.6489 L240.5521,328.4719 C239.5721,329.2929 233.6451,330.4179 224.8631,330.4179 C216.0811,330.4179 210.1541,329.2929 209.1741,328.4719 L209.1741,323.6489 Z M199.7601,334.0239 C204.6351,336.8639 217.3021,337.6959 224.7201,337.6959 C232.1381,337.6959 244.8071,336.8639 249.6821,334.0239 L249.6821,341.6889 C249.6821,343.1409 240.8711,345.9669 224.7201,345.9669 C208.5701,345.9669 199.7601,343.1409 199.7601,341.6889 L199.7601,334.0239 Z M266.9451,345.0849 C266.9451,341.9679 261.8011,339.5029 251.6821,337.7499 L251.6821,331.4179 C251.6821,330.6299 251.6821,328.2799 242.5521,326.5649 L242.5521,321.6669 C242.5521,318.1779 229.0131,317.9069 224.8631,317.9069 C220.7141,317.9069 207.1741,318.1779 207.1741,321.6669 L207.1741,326.5129 C197.7641,328.2309 197.7601,330.6209 197.7601,331.4179 L197.7601,337.6259 C190.3351,338.8619 181.7831,341.1389 181.7831,345.0849 L181.7831,392.1119 C181.7831,398.2749 203.2041,401.4999 224.3641,401.4999 C244.4531,401.4999 264.7641,398.5909 266.7691,393.0219 L266.9451,393.0219 L266.9451,345.9959 L266.7691,345.9959 C266.8761,345.6989 266.9451,345.3969 266.9451,345.0849 L266.9451,345.0849 Z" id="Fill-48" fill="#0C1423" mask="url(#mask-2)"></path>
                    <path d="M224.8631,54.5487 C223.7631,54.5487 222.8681,55.4437 222.8681,56.5447 C222.8681,57.6447 223.7631,58.5397 224.8631,58.5397 C225.9641,58.5397 226.8591,57.6447 226.8591,56.5447 C226.8591,55.4437 225.9641,54.5487 224.8631,54.5487 M224.8631,60.5397 C222.6601,60.5397 220.8681,58.7477 220.8681,56.5447 C220.8681,54.3407 222.6601,52.5487 224.8631,52.5487 C227.0661,52.5487 228.8591,54.3407 228.8591,56.5447 C228.8591,58.7477 227.0661,60.5397 224.8631,60.5397" id="Fill-49" fill="#0C1423" mask="url(#mask-2)"></path>
                    <polygon id="Fill-50" fill="#0C1423" mask="url(#mask-2)" points="223.863 12.738 225.863 12.738 225.863 0.186 223.863 0.186"></polygon>
                    <polygon id="Fill-51" fill="#0C1423" mask="url(#mask-2)" points="197.618 28.43 210.171 28.43 210.171 26.43 197.618 26.43"></polygon>
                    <polygon id="Fill-52" fill="#0C1423" mask="url(#mask-2)" points="239.555 28.43 252.108 28.43 252.108 26.43 239.555 26.43"></polygon>
                    <polygon id="Fill-53" fill="#0C1423" mask="url(#mask-2)" points="213.9862 17.5394 205.1092 8.6614 206.5232 7.2474 215.4002 16.1254"></polygon>
                    <polygon id="Fill-54" fill="#0C1423" mask="url(#mask-2)" points="235.9593 17.7484 234.5453 16.3344 243.4183 7.4614 244.8323 8.8754"></polygon>
                    <polygon id="Fill-55" fill="#FFD3B3" mask="url(#mask-2)" points="81.939 260.532 99.374 260.532 99.374 238.586 81.939 238.586"></polygon>
                    <polygon id="Fill-56" fill="#FFD3B3" mask="url(#mask-2)" points="83.4432 384.6732 84.1772 385.2832 76.3832 394.1202 72.3682 393.3802 77.0232 384.6732 72.1092 340.7052 86.6232 340.7052"></polygon>
                    <path d="M67.306,397.2416 L77.177,397.2416 L82.176,391.6516 L82.176,397.2416 L83.948,397.2416 L85.593,386.4206 L83.641,384.8376 L76.45,393.7366 L72.368,393.3806 L66.99,396.1746 C66.99,396.1746 66.104,396.9876 67.306,397.2416" id="Fill-57" fill="#31425D" mask="url(#mask-2)"></path>
                    <polygon id="Fill-58" fill="#FFD3B3" mask="url(#mask-2)" points="97.662 384.6732 96.929 385.2832 104.722 394.1202 108.737 393.3802 104.082 384.6732 108.996 340.7052 94.483 340.7052"></polygon>
                    <path d="M113.7992,397.2416 L103.9282,397.2416 L98.9292,391.6516 L98.9292,397.2416 L97.1572,397.2416 L95.5122,386.4206 L97.4642,384.8376 L104.6552,393.7366 L108.7372,393.3806 L114.1152,396.1746 C114.1152,396.1746 115.0022,396.9876 113.7992,397.2416" id="Fill-59" fill="#31425D" mask="url(#mask-2)"></path>
                    <path d="M95.6908,249.9335 C95.6908,250.2495 96.0098,250.5055 96.4038,250.5055 C96.7978,250.5055 97.1168,250.2495 97.1168,249.9335 C97.1168,249.6175 96.7978,249.3605 96.4038,249.3605 C96.0098,249.3605 95.6908,249.6175 95.6908,249.9335" id="Fill-60" fill="#F6F6F6" mask="url(#mask-2)"></path>
                    <path d="M94.4798,250.5057 C94.4798,250.8217 94.7988,251.0777 95.1928,251.0777 C95.5858,251.0777 95.9058,250.8217 95.9058,250.5057 C95.9058,250.1897 95.5858,249.9337 95.1928,249.9337 C94.7988,249.9337 94.4798,250.1897 94.4798,250.5057" id="Fill-61" fill="#F6F6F6" mask="url(#mask-2)"></path>
                    <path d="M93.1576,250.7308 C93.1576,251.0468 93.4766,251.3038 93.8706,251.3038 C94.2646,251.3038 94.5836,251.0468 94.5836,250.7308 C94.5836,250.4148 94.2646,250.1588 93.8706,250.1588 C93.4766,250.1588 93.1576,250.4148 93.1576,250.7308" id="Fill-62" fill="#F6F6F6" mask="url(#mask-2)"></path>
                    <path d="M91.8358,250.8353 C91.8358,251.1513 92.1548,251.4073 92.5488,251.4073 C92.9428,251.4073 93.2618,251.1513 93.2618,250.8353 C93.2618,250.5193 92.9428,250.2623 92.5488,250.2623 C92.1548,250.2623 91.8358,250.5193 91.8358,250.8353" id="Fill-63" fill="#F6F6F6" mask="url(#mask-2)"></path>
                    <path d="M90.5526,250.8353 C90.5526,251.1513 90.8716,251.4073 91.2656,251.4073 C91.6596,251.4073 91.9786,251.1513 91.9786,250.8353 C91.9786,250.5193 91.6596,250.2623 91.2656,250.2623 C90.8716,250.2623 90.5526,250.5193 90.5526,250.8353" id="Fill-64" fill="#F6F6F6" mask="url(#mask-2)"></path>
                    <path d="M89.2308,250.8353 C89.2308,251.1513 89.5498,251.4073 89.9438,251.4073 C90.3378,251.4073 90.6568,251.1513 90.6568,250.8353 C90.6568,250.5193 90.3378,250.2623 89.9438,250.2623 C89.5498,250.2623 89.2308,250.5193 89.2308,250.8353" id="Fill-65" fill="#F6F6F6" mask="url(#mask-2)"></path>
                    <path d="M87.909,250.7308 C87.909,251.0468 88.228,251.3038 88.622,251.3038 C89.016,251.3038 89.335,251.0468 89.335,250.7308 C89.335,250.4148 89.016,250.1588 88.622,250.1588 C88.228,250.1588 87.909,250.4148 87.909,250.7308" id="Fill-66" fill="#F6F6F6" mask="url(#mask-2)"></path>
                    <path d="M86.6131,250.6268 C86.6131,250.9428 86.9321,251.1998 87.3261,251.1998 C87.7201,251.1998 88.0391,250.9428 88.0391,250.6268 C88.0391,250.3108 87.7201,250.0548 87.3261,250.0548 C86.9321,250.0548 86.6131,250.3108 86.6131,250.6268" id="Fill-67" fill="#F6F6F6" mask="url(#mask-2)"></path>
                    <path d="M85.3553,250.3563 C85.3553,250.6723 85.6743,250.9293 86.0683,250.9293 C86.4623,250.9293 86.7813,250.6723 86.7813,250.3563 C86.7813,250.0403 86.4623,249.7843 86.0683,249.7843 C85.6743,249.7843 85.3553,250.0403 85.3553,250.3563" id="Fill-68" fill="#F6F6F6" mask="url(#mask-2)"></path>
                    <path d="M84.1507,249.9335 C84.1507,250.2495 84.4697,250.5055 84.8637,250.5055 C85.2577,250.5055 85.5767,250.2495 85.5767,249.9335 C85.5767,249.6175 85.2577,249.3605 84.8637,249.3605 C84.4697,249.3605 84.1507,249.6175 84.1507,249.9335" id="Fill-69" fill="#F6F6F6" mask="url(#mask-2)"></path>
                    <path d="M97.0277,249.93 L94.4947,246.869 L101.6347,239.808 L101.6347,242.888 C101.6347,245.809 99.8127,248.388 97.0317,249.933 L97.0277,249.93" id="Fill-70" fill="#ED7780" mask="url(#mask-2)"></path>
                    <path d="M84.4525,249.93 L86.9855,246.869 L79.8455,239.808 L79.8455,242.888 C79.8455,245.809 81.6675,248.388 84.4485,249.933 L84.4525,249.93" id="Fill-71" fill="#ED7780" mask="url(#mask-2)"></path>
                    <polygon id="Fill-72" fill="#F3A6AE" mask="url(#mask-2)" points="90.5101 307.0585 90.5521 307.0585 122.6211 307.0585 116.8161 358.6055 90.5521 358.6055 90.5101 358.6055 64.2471 358.6055 58.4421 307.0585"></polygon>
                    <path d="M54.9339,250.5135 C57.0069,244.8125 67.6419,244.1455 67.6419,244.1455 L79.8459,242.8885 L90.5529,258.2945 L96.5719,249.9335 L101.6109,242.8885 L113.8139,244.1455 C113.8139,244.1455 121.2139,244.8125 123.2869,250.5135 C124.5299,253.9305 130.3709,269.0905 130.3709,269.0915 L133.4339,260.5315 L145.7739,262.8865 L139.3039,285.3645 C139.3039,285.3645 136.8159,291.4685 131.1489,290.4695 C131.1489,290.4695 127.4109,290.1655 126.0789,286.9075 L119.8419,277.1105 L123.1739,307.0585 L90.5529,307.0585 L58.4419,307.0585 L62.1179,273.4985 L56.2589,284.0995 L62.1179,309.5775 L50.3549,313.3845 L40.6639,282.6805 C40.6639,282.6805 54.2689,252.3405 54.9339,250.5135" id="Fill-73" fill="#ED7780" mask="url(#mask-2)"></path>
                </g>
                <g id="Group-77" transform="translate(57.000000, 156.815000)">
                    <mask id="mask-4" fill="white">
                        <use xlink:href="#path-3"></use>
                    </mask>
                    <g id="Clip-76"></g>
                    <polygon id="Fill-75" fill="#F9C293" mask="url(#mask-4)" points="-3.718 90.898 62.31 90.898 62.31 -2.844 -3.718 -2.844"></polygon>
                </g>
                <g id="Group-80" transform="translate(84.000000, 240.815000)">
                    <mask id="mask-6" fill="white">
                        <use xlink:href="#path-5"></use>
                    </mask>
                    <g id="Clip-79"></g>
                    <polygon id="Fill-78" fill="#FFD3B3" mask="url(#mask-6)" points="-3.251 5.639 5.979 5.639 5.979 -3.266 -3.251 -3.266"></polygon>
                </g>
                <path d="M66.4544,226.6117 L64.5434,227.5177 L63.0554,227.5177 L60.6284,225.8827 L60.6284,224.5077 L59.4744,223.7217 L57.1074,219.9947 L55.3684,215.5097 L55.3684,212.7777 L54.7834,210.9717 L54.7834,211.6947 L52.4454,210.9717 L52.4454,205.9207 L53.2474,197.8827 L52.5354,197.4397 L53.7814,187.4167 L56.7884,178.8447 L61.3294,170.2727 L62.7984,168.1837 L63.2174,168.7587 L61.6124,171.9287 L64.9624,167.6787 L62.7304,173.2247 L66.5024,167.0287 L71.3134,161.7687 L70.0494,161.7687 L70.6164,160.9537 L73.4084,159.9937 L76.4104,160.4147 L80.1094,158.7167 L83.5974,157.7947 L91.0214,160.7627 L91.0214,161.3507 L87.2764,160.4747 L91.9994,162.2767 L91.5324,162.8517 L87.4274,162.1317 L92.5984,165.0127 L92.1814,165.9497 L87.0174,163.1397 L88.1454,164.5817 L94.4184,167.8947 L93.0224,168.0387 L97.4184,171.4957 L96.0504,169.1197 L99.0954,170.7767 L103.3994,171.6407 L99.3744,168.7587 L94.6964,166.2377 L94.4174,165.0857 L98.8854,167.1027 L99.2284,165.7337 L93.3594,163.1397 L93.3594,162.4327 L99.4184,165.0907 L99.4744,165.1577 L99.4954,164.7247 L96.1274,163.2127 L97.5024,162.4197 L99.2414,163.0687 L98.1214,162.1317 L98.5874,161.9157 C98.5874,161.9157 106.3544,166.3097 106.5624,166.3097 C106.7724,166.3097 107.8894,168.1837 107.8894,168.1837 L114.5894,179.0597 L116.6834,185.1107 L117.6604,190.2987 L118.9864,196.4927 L119.4054,202.9037 L114.0314,217.1657 L112.3554,216.7347 L112.2174,217.1657 L113.7524,218.2467 L112.3554,225.0157 L111.5184,226.3117 L109.9164,226.3117 L111.2394,221.9567 L112.1474,217.9047 L112.2174,211.5207 L112.4964,200.0437 L111.1694,199.1697 L110.4724,194.7687 L107.9404,190.2277 L101.5424,185.2557 L101.5424,187.6947 L103.6234,191.0177 L106.8734,193.0517 L107.8704,194.6197 L107.3214,194.9087 L105.8594,193.6107 L100.8364,193.4667 L97.2104,195.0517 L94.6264,195.1237 L94.5584,193.8277 L95.4644,193.0517 L98.5834,192.4587 L102.0254,189.9377 L99.1634,185.1117 L98.5834,185.1827 L101.7174,189.9377 L101.1184,190.2257 L94.9754,183.4537 L95.3254,183.0217 L96.5134,184.2467 L96.7904,184.0307 L94.3474,181.5087 L89.3924,178.1237 L89.0434,180.7777 L89.7414,182.2777 L89.1084,182.2777 L87.0894,179.6347 L83.6874,178.1227 L80.6914,174.1617 L79.0614,170.1267 L77.0444,168.2547 L76.4094,170.2007 L77.7444,171.4967 L77.0444,173.0097 L76.4094,172.6497 L76.6894,171.9287 L75.6414,170.3437 L74.8734,171.4957 L74.3854,175.3147 L71.1054,180.2137 L69.7084,184.6067 L68.5914,192.2417 L66.2884,197.0787 L65.4524,200.6377 L64.2644,203.6237 L65.1714,206.9377 L65.1014,210.8277 L66.4974,214.3577 L67.4064,218.5347 L66.4284,221.0637 L66.4544,226.6117" id="Fill-81" fill="#0C1423"></path>
                <g id="Group-85" transform="translate(52.000000, 156.815000)">
                    <mask id="mask-8" fill="white">
                        <use xlink:href="#path-7"></use>
                    </mask>
                    <g id="Clip-84"></g>
                    <polygon id="Fill-83" fill="#0C1423" mask="url(#mask-8)" points="-3.397 74.546 71.249 74.546 71.249 -2.863 -3.397 -2.863"></polygon>
                </g>
                <g id="Group-88" transform="translate(96.000000, 203.815000)">
                    <mask id="mask-10" fill="white">
                        <use xlink:href="#path-9"></use>
                    </mask>
                    <g id="Clip-87"></g>
                    <polygon id="Fill-86" fill="#FFD3B3" mask="url(#mask-10)" points="-3.793 17.193 18.604 17.193 18.604 -3.673 -3.793 -3.673"></polygon>
                </g>
                <g id="Group-91" transform="translate(68.000000, 204.815000)">
                    <mask id="mask-12" fill="white">
                        <use xlink:href="#path-11"></use>
                    </mask>
                    <g id="Clip-90"></g>
                    <polygon id="Fill-89" fill="#FFD3B3" mask="url(#mask-12)" points="-3.032 18.101 21.02 18.101 21.02 -3.459 -3.032 -3.459"></polygon>
                </g>
                <g id="Group-94" transform="translate(74.000000, 222.815000)">
                    <mask id="mask-14" fill="white">
                        <use xlink:href="#path-13"></use>
                    </mask>
                    <g id="Clip-93"></g>
                    <polygon id="Fill-92" fill="#FFD3B3" mask="url(#mask-14)" points="-3.187 12.745 9.034 12.745 9.034 -3.362 -3.187 -3.362"></polygon>
                </g>
                <g id="Group-97" transform="translate(81.000000, 231.815000)">
                    <mask id="mask-16" fill="white">
                        <use xlink:href="#path-15"></use>
                    </mask>
                    <g id="Clip-96"></g>
                    <polygon id="Fill-95" fill="#FFD3B3" mask="url(#mask-16)" points="-3.259 14.695 23.584 14.695 23.584 -3.315 -3.259 -3.315"></polygon>
                </g>
                <g id="Group-100" transform="translate(102.000000, 220.815000)">
                    <mask id="mask-18" fill="white">
                        <use xlink:href="#path-17"></use>
                    </mask>
                    <g id="Clip-99"></g>
                    <polygon id="Fill-98" fill="#FFD3B3" mask="url(#mask-18)" points="-2.894 10.868 8.756 10.868 8.756 -3.173 -2.894 -3.173"></polygon>
                </g>
                <g id="Group-103" transform="translate(71.000000, 226.815000)">
                    <mask id="mask-20" fill="white">
                        <use xlink:href="#path-19"></use>
                    </mask>
                    <g id="Clip-102"></g>
                    <polygon id="Fill-101" fill="#FFD3B3" mask="url(#mask-20)" points="-3.458 12.388 9.887 12.388 9.887 -3.261 -3.458 -3.261"></polygon>
                </g>
                <g id="Group-106" transform="translate(75.000000, 181.815000)">
                    <mask id="mask-22" fill="white">
                        <use xlink:href="#path-21"></use>
                    </mask>
                    <g id="Clip-105"></g>
                    <polygon id="Fill-104" fill="#FFD3B3" mask="url(#mask-22)" points="-3.605 36.594 27.836 36.594 27.836 -3.381 -3.605 -3.381"></polygon>
                </g>
                <g id="Group-109" transform="translate(99.000000, 193.815000)">
                    <mask id="mask-24" fill="white">
                        <use xlink:href="#path-23"></use>
                    </mask>
                    <g id="Clip-108"></g>
                    <polygon id="Fill-107" fill="#FFD3B3" mask="url(#mask-24)" points="-3.677 5.753 9.126 5.753 9.126 -3.794 -3.677 -3.794"></polygon>
                </g>
                <g id="Group-112" transform="translate(71.000000, 193.815000)">
                    <mask id="mask-26" fill="white">
                        <use xlink:href="#path-25"></use>
                    </mask>
                    <g id="Clip-111"></g>
                    <polygon id="Fill-110" fill="#FFD3B3" mask="url(#mask-26)" points="-3.043 8.322 16.531 8.322 16.531 -2.863 -3.043 -2.863"></polygon>
                </g>
                <g id="Group-115" transform="translate(88.000000, 219.815000)">
                    <mask id="mask-28" fill="white">
                        <use xlink:href="#path-27"></use>
                    </mask>
                    <g id="Clip-114"></g>
                    <polygon id="Fill-113" fill="#FFD3B3" mask="url(#mask-28)" points="-2.848 6.117 9.673 6.117 9.673 -3.216 -2.848 -3.216"></polygon>
                </g>
                <g id="Group-118" transform="translate(84.000000, 224.815000)">
                    <mask id="mask-30" fill="white">
                        <use xlink:href="#path-29"></use>
                    </mask>
                    <g id="Clip-117"></g>
                    <polygon id="Fill-116" fill="#FFD3B3" mask="url(#mask-30)" points="-3.835 6.546 16.644 6.546 16.644 -3.818 -3.835 -3.818"></polygon>
                </g>
                <g id="Group-121" transform="translate(88.000000, 228.815000)">
                    <mask id="mask-32" fill="white">
                        <use xlink:href="#path-31"></use>
                    </mask>
                    <g id="Clip-120"></g>
                    <polygon id="Fill-119" fill="#FFD3B3" mask="url(#mask-32)" points="-2.848 5.561 9.158 5.561 9.158 -3.316 -2.848 -3.316"></polygon>
                </g>
                <polygon id="Fill-122" fill="#0C1423" points="90.1366 216.2563 88.6256 215.4533 87.7106 215.4533 86.8816 216.0103 86.1366 216.3653 86.3916 217.2633 89.9846 217.2633"></polygon>
                <g id="Group-126" transform="translate(86.000000, 214.815000)">
                    <mask id="mask-34" fill="white">
                        <use xlink:href="#path-33"></use>
                    </mask>
                    <g id="Clip-125"></g>
                    <polygon id="Fill-124" fill="#0C1423" mask="url(#mask-34)" points="-3.706 6.292 7.98 6.292 7.98 -3.204 -3.706 -3.204"></polygon>
                </g>
                <polygon id="Fill-127" fill="#0C1423" points="75.9745 197.8822 74.3085 198.2312 71.7335 201.6782 71.7335 202.7862 75.6465 202.7862 79.9245 202.2392 82.2545 201.3912 82.2545 202.1832 83.6875 202.1832 82.4115 200.6252 80.2485 199.7202 75.7825 199.0432"></polygon>
                <g id="Group-131" transform="translate(71.000000, 197.815000)">
                    <mask id="mask-36" fill="white">
                        <use xlink:href="#path-35"></use>
                    </mask>
                    <g id="Clip-130"></g>
                    <polygon id="Fill-129" fill="#0C1423" mask="url(#mask-36)" points="-3.11 8.814 16.531 8.814 16.531 -3.776 -3.11 -3.776"></polygon>
                </g>
                <polygon id="Fill-132" fill="#0C1423" points="95.6976 200.6938 98.4666 202.1828 103.4456 202.1828 107.3306 201.1478 106.5616 198.7478 104.0506 197.3578 102.2216 197.3578 104.0506 198.0988 102.0956 197.3578 100.6486 197.3578 95.6976 199.9508"></polygon>
                <g id="Group-136" transform="translate(95.000000, 196.815000)">
                    <mask id="mask-38" fill="white">
                        <use xlink:href="#path-37"></use>
                    </mask>
                    <g id="Clip-135"></g>
                    <polygon id="Fill-134" fill="#0C1423" mask="url(#mask-38)" points="-3.146 9.211 16.174 9.211 16.174 -3.3 -3.146 -3.3"></polygon>
                </g>
                <polygon id="Fill-137" fill="#0C1423" points="96.0506 198.2934 96.1026 197.4594 99.3046 195.9944 101.1176 196.5644"></polygon>
                <g id="Group-141" transform="translate(96.000000, 195.815000)">
                    <mask id="mask-40" fill="white">
                        <use xlink:href="#path-39"></use>
                    </mask>
                    <g id="Clip-140"></g>
                    <polygon id="Fill-139" fill="#0C1423" mask="url(#mask-40)" points="-3.793 6.321 8.96 6.321 8.96 -3.664 -3.793 -3.664"></polygon>
                </g>
                <polygon id="Fill-142" fill="#0C1423" points="83.2904 199.414 80.3184 197.357 78.1634 197.357 78.1634 197.8 82.3004 200.001"></polygon>
                <g id="Group-146" transform="translate(78.000000, 196.815000)">
                    <mask id="mask-42" fill="white">
                        <use xlink:href="#path-41"></use>
                    </mask>
                    <g id="Clip-145"></g>
                    <polygon id="Fill-144" fill="#0C1423" mask="url(#mask-42)" points="-3.68 7.029 9.133 7.029 9.133 -3.3 -3.68 -3.3"></polygon>
                </g>
                <polygon id="Fill-147" fill="#0C1423" points="85.1766 193.8305 85.1766 195.0935 83.3336 195.3655 74.7346 193.7385 73.4876 193.7385 73.4876 192.7475 74.2156 193.1355 79.1426 193.1355"></polygon>
                <g id="Group-151" transform="translate(73.000000, 191.815000)">
                    <mask id="mask-44" fill="white">
                        <use xlink:href="#path-43"></use>
                    </mask>
                    <g id="Clip-150"></g>
                    <polygon id="Fill-149" fill="#0C1423" mask="url(#mask-44)" points="-3.356 7.394 16.02 7.394 16.02 -2.91 -3.356 -2.91"></polygon>
                </g>
                <polygon id="Fill-152" fill="#0C1423" points="72.307 193.434 70.765 193.918 69.355 196.004 68.734 197.887 69.08 198.296 70.512 197.884 70.826 195.928 71.8 194.341 72.325 194.341 72.71 193.794"></polygon>
                <g id="Group-156" transform="translate(68.000000, 192.815000)">
                    <mask id="mask-46" fill="white">
                        <use xlink:href="#path-45"></use>
                    </mask>
                    <g id="Clip-155"></g>
                    <polygon id="Fill-154" fill="#0C1423" mask="url(#mask-46)" points="-3.109 9.324 8.553 9.324 8.553 -3.224 -3.109 -3.224"></polygon>
                </g>
                <polygon id="Fill-157" fill="#0C1423" points="95.1131 228.8373 95.1131 229.9303 96.4521 229.9303 102.9481 222.5723 98.9931 221.8083 95.0221 222.3583 93.0061 223.8983 88.4091 223.8983 84.4351 223.2953 82.1151 223.2953 78.4621 224.0953 81.1701 227.5053 86.0921 229.6853 87.2281 228.7203 84.0081 226.7473 84.0081 225.0483 85.2471 224.5433 90.1061 225.0503 95.1471 223.8983 97.1521 223.8983 96.0371 228.1273"></polygon>
                <g id="Group-161" transform="translate(78.000000, 220.815000)">
                    <mask id="mask-48" fill="white">
                        <use xlink:href="#path-47"></use>
                    </mask>
                    <g id="Clip-160"></g>
                    <polygon id="Fill-159" fill="#0C1423" mask="url(#mask-48)" points="-3.382 12.958 28.791 12.958 28.791 -2.85 -3.382 -2.85"></polygon>
                </g>
                <polygon id="Fill-162" fill="#0C1423" points="88.1698 228.7948 88.9948 229.9308 91.3808 229.9308 92.5028 228.7948 92.0608 228.0318 90.7058 227.9478 90.3368 228.3468 89.4158 228.0758"></polygon>
                <g id="Group-166" transform="translate(88.000000, 227.815000)">
                    <mask id="mask-50" fill="white">
                        <use xlink:href="#path-49"></use>
                    </mask>
                    <g id="Clip-165"></g>
                    <polygon id="Fill-164" fill="#0C1423" mask="url(#mask-50)" points="-3.673 5.958 8.345 5.958 8.345 -3.71 -3.673 -3.71"></polygon>
                </g>
                <g id="Group-181" transform="translate(37.000000, 236.815000)">
                    <path d="M56.2625,9.911 L57.6625,11.604 C59.7975,10.171 61.0485,8.072 61.0485,5.863 L61.0485,5.179 L56.2625,9.911 Z M57.3985,14.078 L56.6705,13.542 L53.5545,9.776 L63.0485,0.388 L63.0485,5.863 C63.0485,9.041 61.1355,12.002 57.9315,13.782 L57.3985,14.078 Z" id="Fill-167" fill="#0C1423"></path>
                    <path d="M41.2591,5.1786 L41.2591,5.8626 C41.2591,8.0726 42.5101,10.1706 44.6441,11.6036 L46.0451,9.9106 L41.2591,5.1786 Z M44.9091,14.0776 L44.3761,13.7816 C41.1721,12.0016 39.2591,9.0416 39.2591,5.8626 L39.2591,0.3876 L48.7531,9.7766 L45.4161,13.7396 L44.9091,14.0776 Z" id="Fill-169" fill="#0C1423"></path>
                    <polygon id="Fill-171" fill="#0C1423" points="78.1229 122.5804 23.7669 122.5804 18.2649 73.7234 20.2519 73.4994 25.5539 120.5804 76.3359 120.5804 81.9149 71.0334 21.9519 71.0334 21.9519 69.0334 84.1539 69.0334"></polygon>
                    <path d="M84.7049,71.0331 L21.9519,71.0331 L21.9519,69.0331 L82.4709,69.0331 L78.7859,35.9131 L87.4179,49.5041 C88.5049,52.1621 91.6119,52.4451 91.6429,52.4471 C96.3319,53.2711 98.5339,48.5561 98.7729,48.0051 L104.9239,26.6381 L94.4999,24.6491 L90.8179,34.9411 L89.8509,32.4251 C89.2339,30.8231 83.9339,17.0551 82.7609,13.8301 C80.9339,8.8061 74.2049,8.1221 74.1369,8.1161 L61.9219,6.8571 L62.1269,4.8671 L74.3299,6.1261 C74.6449,6.1541 82.3759,6.9201 84.6409,13.1461 C85.5569,15.6651 89.0149,24.6791 90.7499,29.1931 L93.1939,22.3641 L107.4519,25.0841 L100.6429,48.7171 C99.6779,51.0861 96.4989,55.3281 91.3889,54.4291 C91.3049,54.4261 87.1779,54.0501 85.6019,50.3461 L81.7259,44.2571 L84.7049,71.0331 Z" id="Fill-173" fill="#0C1423"></path>
                    <polygon id="Fill-175" fill="#0C1423" points="50.9227 22.9593 43.9237 12.8893 45.5667 11.7473 51.0097 19.5793 56.6507 12.2923 58.2317 13.5173"></polygon>
                    <path d="M17.7327,47.223 L19.3717,54.349 L20.9247,41.447 L17.7327,47.223 Z M10.1187,77.62 L0.0087,45.594 L0.1647,45.246 C4.8657,34.764 13.8917,14.565 14.4077,13.146 C16.6787,6.902 27.5317,6.151 27.9927,6.122 L40.1567,4.868 L40.3617,6.857 L28.1577,8.115 C28.0187,8.125 18.1117,8.813 16.2877,13.83 C15.6497,15.585 3.7327,42.179 2.1457,45.718 L11.4197,75.097 L21.3507,71.883 L15.6117,46.925 L24.1367,31.499 L20.6927,60.098 L23.7117,73.222 L10.1187,77.62 Z" id="Fill-177" fill="#0C1423"></path>
                    <path d="M23.7991,79.2328 L24.4101,80.9238 C24.8711,82.1998 23.9471,83.6768 22.3491,84.2218 L21.8991,84.3748 L19.2191,85.2888 C17.6191,85.8348 15.9491,85.2448 15.4871,83.9688 L13.7821,79.2518 C13.3221,77.9758 14.2461,76.4998 15.8461,75.9538 L18.9741,74.8868 L21.7621,73.9358 C23.3611,73.3898 25.0311,73.9798 25.4921,75.2568 L26.5861,78.2818 L23.7991,79.2328" id="Fill-179" fill="#FFD3B3"></path>
                </g>
                <g id="Group-184" transform="translate(50.000000, 309.815000)">
                    <mask id="mask-52" fill="white">
                        <use xlink:href="#path-51"></use>
                    </mask>
                    <g id="Clip-183"></g>
                    <polygon id="Fill-182" fill="#FFD3B3" mask="url(#mask-52)" points="-4.6965 0.1356 16.4735 -4.3544 19.3165 13.1646 -1.8535 17.6546"></polygon>
                </g>
                <path d="M137.2332,258.7675 L136.9102,260.5625 C136.6662,261.9175 137.7742,263.3885 139.3822,263.8485 L139.8352,263.9775 L142.5312,264.7475 C144.1412,265.2075 145.6432,264.4845 145.8872,263.1295 L146.7912,258.1215 C147.0332,256.7665 145.9252,255.2965 144.3162,254.8365 L141.1682,253.9365 L138.3632,253.1345 C136.7542,252.6745 135.2522,253.3975 135.0082,254.7535 L134.4292,257.9655 L137.2332,258.7675" id="Fill-185" fill="#FFD3B3"></path>
                <g id="Group-189" transform="translate(134.000000, 252.815000)">
                    <mask id="mask-54" fill="white">
                        <use xlink:href="#path-53"></use>
                    </mask>
                    <g id="Clip-188"></g>
                    <polygon id="Fill-187" fill="#FFD3B3" mask="url(#mask-54)" points="17.077 -1.4044 -3.804 -4.6574 -3.826 13.7126 17.055 16.9656"></polygon>
                </g>
                <g id="Group-195" transform="translate(0.000000, 193.815000)">
                    <g id="Group-192">
                        <mask id="mask-56" fill="white">
                            <use xlink:href="#path-55"></use>
                        </mask>
                        <g id="Clip-191"></g>
                        <path d="M28.6986,51.5072 C27.8496,52.0052 22.8456,51.6102 14.5636,48.4122 C6.2816,45.2152 2.3076,42.1452 2.0156,41.2072 L15.9466,5.1202 C16.5856,5.7602 17.4856,6.4492 18.6616,7.2012 C21.2006,8.8252 24.7326,10.5432 28.6056,12.0382 C29.7556,12.4822 37.5276,15.4142 42.0906,15.4142 C42.2796,15.4142 42.4606,15.4082 42.6376,15.3982 L28.6986,51.5072 Z M30.8456,6.2342 C38.8086,9.3082 42.7836,12.2622 43.3396,13.3192 C42.2176,13.7282 37.2876,13.2452 29.3256,10.1722 C21.3636,7.0982 17.3876,4.1442 16.8326,3.0872 C17.9546,2.6772 22.8846,3.1602 30.8456,6.2342 L30.8456,6.2342 Z M31.5656,4.3682 C30.0096,3.7672 16.3196,-1.3928 14.8786,2.3322 L0.1156,40.5722 C-0.4014,41.9132 0.8016,43.4602 3.8996,45.4412 C6.4386,47.0652 9.9696,48.7832 13.8436,50.2782 C17.7166,51.7732 21.4866,52.8742 24.4576,53.3782 C25.6176,53.5742 26.6046,53.6732 27.4266,53.6732 C29.1736,53.6732 30.1786,53.2252 30.5316,52.3142 L45.2936,14.0742 L44.3606,13.7142 L45.2936,14.0732 C46.7316,10.3462 33.1226,4.9692 31.5656,4.3682 L31.5656,4.3682 Z" id="Fill-190" fill="#0C1423" mask="url(#mask-56)"></path>
                    </g>
                    <polygon id="Fill-193" fill="#0C1423" points="129.1507 64.5438 97.8117 51.9368 100.2847 45.7888 131.6247 58.3958"></polygon>
                </g>
            </g>
        </g>
    </g>
</svg>